<svg xmlns="http://www.w3.org/2000/svg" xmlns:xlink="http://www.w3.org/1999/xlink" width="1366" zoomAndPan="magnify" viewBox="0 0 1024.5 576" height="768" preserveAspectRatio="xMidYMid meet" version="1.0"><defs><filter x="0%" y="0%" width="100%" height="100%" id="4972814149"><feColorMatrix values="0 0 0 0 1 0 0 0 0 1 0 0 0 0 1 0 0 0 1 0" color-interpolation-filters="sRGB"/></filter><clipPath id="51482750f0"><path d="M 0 0.140625 L 1024 0.140625 L 1024 575.859375 L 0 575.859375 Z M 0 0.140625 " clip-rule="nonzero"/></clipPath><clipPath id="aa7a312529"><path d="M 470.023438 296.433594 L 811.855469 296.433594 L 811.855469 575.859375 L 470.023438 575.859375 Z M 470.023438 296.433594 " clip-rule="nonzero"/></clipPath><clipPath id="7892ea288c"><path d="M 218.226562 321.003906 L 467.855469 321.003906 L 467.855469 551.140625 L 218.226562 551.140625 Z M 218.226562 321.003906 " clip-rule="nonzero"/></clipPath><mask id="d22261152b"><g filter="url(#4972814149)"><rect x="-102.45" width="1229.4" fill="#000000" y="-57.6" height="691.2" fill-opacity="0.31"/></g></mask><clipPath id="43df5eee45"><path d="M 136 0.00390625 L 167 0.00390625 L 167 22 L 136 22 Z M 136 0.00390625 " clip-rule="nonzero"/></clipPath><clipPath id="7051e95a77"><path d="M 137 55 L 249.855469 55 L 249.855469 230.140625 L 137 230.140625 Z M 137 55 " clip-rule="nonzero"/></clipPath><clipPath id="35babdabde"><path d="M 0.226562 0.00390625 L 204 0.00390625 L 204 122 L 0.226562 122 Z M 0.226562 0.00390625 " clip-rule="nonzero"/></clipPath><clipPath id="e0ba8e3fd0"><rect x="0" width="250" y="0" height="231"/></clipPath><clipPath id="34193e1051"><path d="M 221 383.433594 L 540 383.433594 L 540 575.859375 L 221 575.859375 Z M 221 383.433594 " clip-rule="nonzero"/></clipPath><clipPath id="8b1985a07f"><path d="M 825.269531 408 L 915.226562 408 L 915.226562 575.859375 L 825.269531 575.859375 Z M 825.269531 408 " clip-rule="nonzero"/></clipPath><clipPath id="bdaa9aa27c"><path d="M 533.628906 371 L 579 371 L 579 447 L 533.628906 447 Z M 533.628906 371 " clip-rule="nonzero"/></clipPath><clipPath id="80c94969fd"><path d="M 638 371 L 683.359375 371 L 683.359375 447 L 638 447 Z M 638 371 " clip-rule="nonzero"/></clipPath><clipPath id="76abb0cbca"><path d="M 586 355.863281 L 632 355.863281 L 632 460.136719 L 586 460.136719 Z M 586 355.863281 " clip-rule="nonzero"/></clipPath><clipPath id="bc2fb253ee"><path d="M 532.730469 354.964844 L 684.15625 354.964844 L 684.15625 460.664062 L 532.730469 460.664062 Z M 532.730469 354.964844 " clip-rule="nonzero"/></clipPath><clipPath id="cbda527959"><path d="M 876 453.285156 L 900.277344 453.285156 L 900.277344 530.496094 L 876 530.496094 Z M 876 453.285156 " clip-rule="nonzero"/></clipPath><clipPath id="ff1685bffa"><path d="M 840.304688 453.285156 L 864 453.285156 L 864 530.496094 L 840.304688 530.496094 Z M 840.304688 453.285156 " clip-rule="nonzero"/></clipPath><clipPath id="c0dbdf5609"><path d="M 945 433 L 984 433 L 984 468.890625 L 945 468.890625 Z M 945 433 " clip-rule="nonzero"/></clipPath><clipPath id="fe2cbd7ae3"><path d="M 931.476562 383.433594 L 1001.195312 383.433594 L 1001.195312 447 L 931.476562 447 Z M 931.476562 383.433594 " clip-rule="nonzero"/></clipPath><clipPath id="a434f8b2ea"><path d="M 147.753906 477 L 218.222656 477 L 218.222656 575.632812 L 147.753906 575.632812 Z M 147.753906 477 " clip-rule="nonzero"/></clipPath><clipPath id="6f9f7fda6f"><path d="M 166 444.445312 L 175 444.445312 L 175 474 L 166 474 Z M 166 444.445312 " clip-rule="nonzero"/></clipPath><clipPath id="019a76312d"><path d="M 238 446 L 268 446 L 268 497.84375 L 238 497.84375 Z M 238 446 " clip-rule="nonzero"/></clipPath><clipPath id="6b29e51a91"><path d="M 220.855469 374.15625 L 314.027344 374.15625 L 314.027344 491.425781 L 220.855469 491.425781 Z M 220.855469 374.15625 " clip-rule="nonzero"/></clipPath></defs><g clip-path="url(#51482750f0)"><path fill="#ffffff" d="M 0 0.140625 L 1024 0.140625 L 1024 575.859375 L 0 575.859375 Z M 0 0.140625 " fill-opacity="1" fill-rule="nonzero"/><path fill="#ffffff" d="M 0 0.140625 L 1024 0.140625 L 1024 575.859375 L 0 575.859375 Z M 0 0.140625 " fill-opacity="1" fill-rule="nonzero"/></g><g clip-path="url(#aa7a312529)"><path fill="#e99643" d="M 481.125 303.960938 L 800.597656 303.960938 C 802.257812 303.929688 803.621094 305.261719 803.648438 306.925781 C 803.648438 306.925781 803.648438 306.953125 803.648438 306.984375 L 803.648438 507.507812 C 803.648438 509.171875 802.320312 510.53125 800.65625 510.53125 C 800.625 510.53125 800.625 510.53125 800.597656 510.53125 L 481.125 510.53125 C 479.492188 510.5625 478.101562 509.230469 478.070312 507.566406 C 478.070312 507.566406 478.070312 507.539062 478.070312 507.507812 L 478.070312 306.984375 C 478.070312 305.320312 479.433594 303.960938 481.066406 303.960938 C 481.09375 303.960938 481.125 303.960938 481.125 303.960938 Z M 478.011719 296.460938 C 473.898438 296.523438 470.632812 299.878906 470.632812 303.960938 L 470.632812 526.132812 C 470.632812 530.246094 473.898438 533.570312 478.011719 533.660156 L 615.824219 533.660156 L 615.824219 557.398438 C 615.824219 559.058594 614.496094 560.421875 612.832031 560.421875 C 612.800781 560.421875 612.773438 560.421875 612.742188 560.421875 L 596.171875 560.421875 C 588.945312 560.480469 582.71875 565.4375 580.996094 572.453125 C 580.601562 574.054688 581.597656 575.6875 583.203125 576.082031 C 583.441406 576.144531 583.683594 576.171875 583.925781 576.171875 L 698.007812 576.171875 C 699.667969 576.171875 701 574.8125 701 573.148438 C 701 572.90625 700.96875 572.664062 700.9375 572.453125 C 699.214844 565.378906 692.835938 560.390625 685.550781 560.421875 L 668.980469 560.421875 C 667.347656 560.359375 666.046875 559.027344 666.046875 557.398438 L 666.046875 533.660156 L 803.679688 533.660156 C 807.824219 533.691406 811.207031 530.335938 811.269531 526.191406 C 811.269531 526.191406 811.269531 526.164062 811.269531 526.132812 L 811.269531 303.960938 C 811.238281 299.820312 807.882812 296.460938 803.742188 296.460938 C 803.710938 296.460938 803.710938 296.460938 803.679688 296.460938 L 478.011719 296.460938 " fill-opacity="1" fill-rule="nonzero"/></g><g clip-path="url(#7892ea288c)"><g mask="url(#d22261152b)"><g transform="matrix(1, 0, 0, 1, 218, 321)"><g clip-path="url(#e0ba8e3fd0)"><path fill="#e99643" d="M 135.59375 170.089844 L 106.9375 162.410156 L 85.957031 183.390625 L 93.636719 212.046875 L 122.296875 219.726562 L 143.277344 198.746094 Z M 121.945312 218.425781 L 94.589844 211.09375 L 87.257812 183.738281 L 107.285156 163.710938 L 134.644531 171.042969 L 141.972656 198.398438 Z M 121.945312 218.425781 " fill-opacity="1" fill-rule="nonzero"/><g clip-path="url(#43df5eee45)"><path fill="#e99643" d="M 163.402344 0.0976562 L 162.195312 0.0976562 L 164.820312 9.890625 L 154.914062 19.796875 L 141.375 16.183594 L 137.75 2.664062 L 140.300781 0.0976562 L 138.652344 0.0976562 L 136.457031 2.296875 L 140.421875 17.125 L 155.25 21.085938 L 166.109375 10.230469 Z M 163.402344 0.0976562 " fill-opacity="1" fill-rule="nonzero"/></g><g clip-path="url(#7051e95a77)"><path fill="#e99643" d="M 230.359375 142.648438 L 217.496094 106.992188 L 227.863281 96.636719 L 224.0625 82.457031 L 235.917969 70.601562 L 243.894531 72.738281 L 250.207031 66.425781 L 247.894531 57.800781 L 239.269531 55.488281 L 232.957031 61.800781 L 235.089844 69.777344 L 223.234375 81.632812 L 209.054688 77.832031 L 198.191406 88.683594 L 201.992188 102.863281 L 186.324219 118.527344 L 158.320312 111.023438 L 137.339844 132.003906 L 145.019531 160.660156 L 173.675781 168.339844 L 194.65625 147.359375 L 187.152344 119.351562 L 202.820312 103.6875 L 216.375 107.332031 L 229.246094 142.988281 L 218.886719 153.34375 L 222.6875 167.523438 L 191.085938 199.121094 L 176.90625 195.320312 L 166.050781 206.171875 L 170.011719 221.003906 L 184.84375 224.976562 L 195.234375 214.585938 L 218.644531 219.902344 L 220.777344 227.863281 L 229.402344 230.171875 L 235.71875 223.859375 L 233.40625 215.234375 L 224.78125 212.921875 L 218.929688 218.773438 L 195.523438 213.457031 L 191.898438 199.9375 L 223.5 168.335938 L 237.679688 172.136719 L 248.535156 161.277344 L 244.574219 146.449219 Z M 234.246094 62.148438 L 239.609375 56.789062 L 246.933594 58.75 L 248.898438 66.074219 L 243.535156 71.4375 L 236.210938 69.472656 Z M 193.359375 147.019531 L 173.335938 167.046875 L 145.976562 159.714844 L 138.648438 132.355469 L 158.675781 112.328125 L 186.03125 119.660156 Z M 203.125 102.566406 L 199.5 89.046875 L 209.398438 79.125 L 222.917969 82.75 L 226.542969 96.28125 L 216.640625 106.1875 Z M 225.144531 214.230469 L 232.46875 216.191406 L 234.433594 223.515625 L 229.070312 228.878906 L 221.738281 226.917969 L 219.773438 219.59375 Z M 194.417969 213.777344 L 184.503906 223.679688 L 170.980469 220.054688 L 167.355469 206.535156 L 177.253906 196.613281 L 190.773438 200.238281 Z M 237.351562 170.84375 L 223.828125 167.21875 L 220.203125 153.699219 L 230.105469 143.792969 L 243.628906 147.417969 L 247.253906 160.9375 Z M 237.351562 170.84375 " fill-opacity="1" fill-rule="nonzero"/></g><g clip-path="url(#35babdabde)"><path fill="#e99643" d="M 201.273438 55.300781 L 192.648438 52.992188 L 186.792969 58.84375 L 170.1875 55.347656 L 166.394531 41.1875 L 151.5625 37.226562 L 141.195312 47.59375 L 117.460938 40.132812 L 109.949219 12.09375 L 81.898438 4.574219 L 80.066406 0.0976562 L 78.808594 0.0976562 L 80.785156 4.925781 L 60.316406 25.390625 L 67.824219 53.402344 L 49.214844 72.007812 L 21.207031 64.503906 L 0.226562 85.484375 L 7.917969 114.144531 L 36.574219 121.820312 L 57.554688 100.84375 L 50.035156 72.832031 L 68.644531 54.222656 L 96.0625 61.570312 L 108.402344 88.242188 L 102.613281 94.03125 L 104.925781 102.65625 L 113.550781 104.96875 L 119.863281 98.652344 L 117.550781 90.027344 L 109.515625 87.875 L 97.179688 61.203125 L 117.132812 41.238281 L 140.867188 48.699219 L 144.671875 62.894531 L 159.5 66.859375 L 169.898438 56.464844 L 186.503906 59.960938 L 188.632812 67.914062 L 197.257812 70.226562 L 203.570312 63.914062 Z M 56.242188 100.492188 L 36.210938 120.519531 L 8.855469 113.1875 L 1.523438 85.832031 L 21.554688 65.800781 L 48.914062 73.132812 Z M 116.597656 90.980469 L 118.5625 98.304688 L 113.199219 103.667969 L 105.875 101.703125 L 103.914062 94.378906 L 109.273438 89.019531 Z M 96.300781 60.441406 L 68.945312 53.109375 L 61.613281 25.742188 L 81.640625 5.714844 L 109 13.042969 L 116.328125 40.402344 Z M 159.164062 65.582031 L 145.644531 61.957031 L 142.015625 48.425781 L 151.921875 38.519531 L 165.441406 42.148438 L 169.066406 55.667969 Z M 196.929688 68.953125 L 189.601562 66.988281 L 187.640625 59.664062 L 193.003906 54.304688 L 200.328125 56.265625 L 202.289062 63.59375 Z M 36.109375 20.65625 L 46.964844 9.800781 L 44.367188 0.0976562 L 43.160156 0.0976562 L 45.667969 9.453125 L 35.761719 19.355469 L 22.242188 15.730469 L 18.605469 2.199219 L 20.703125 0.0976562 L 19.054688 0.0976562 L 17.300781 1.851562 L 21.265625 16.683594 Z M 36.109375 20.65625 " fill-opacity="1" fill-rule="nonzero"/></g></g></g></g></g><path fill="#e99643" d="M 281.5 377.511719 L 266.667969 373.539062 L 255.8125 384.394531 L 259.773438 399.226562 L 274.605469 403.1875 L 285.480469 392.335938 Z M 274.273438 401.898438 L 260.75 398.273438 L 257.125 384.753906 L 267.03125 374.847656 L 280.550781 378.472656 L 284.175781 391.996094 Z M 274.273438 401.898438 " fill-opacity="1" fill-rule="nonzero"/><path fill="#e99643" d="M 397.074219 492.585938 L 386.21875 503.445312 L 390.179688 518.273438 L 405.011719 522.238281 L 415.867188 511.382812 L 411.90625 496.550781 Z M 404.675781 520.949219 L 391.15625 517.320312 L 387.53125 503.800781 L 397.433594 493.894531 L 410.957031 497.519531 L 414.582031 511.039062 Z M 404.675781 520.949219 " fill-opacity="1" fill-rule="nonzero"/><path fill="#e99643" d="M 407.503906 461.683594 L 405.191406 453.058594 L 396.566406 450.75 L 390.253906 457.0625 L 392.566406 465.6875 L 401.191406 468 Z M 393.519531 464.734375 L 391.546875 457.410156 L 396.90625 452.050781 L 404.234375 454.011719 L 406.195312 461.335938 L 400.832031 466.699219 Z M 393.519531 464.734375 " fill-opacity="1" fill-rule="nonzero"/><path fill="#e99643" d="M 276.550781 349.675781 L 282.867188 343.359375 L 280.554688 334.734375 L 271.929688 332.425781 L 265.617188 338.738281 L 267.925781 347.363281 Z M 272.277344 333.726562 L 279.601562 335.6875 L 281.566406 343.011719 L 276.203125 348.375 L 268.878906 346.410156 L 266.917969 339.085938 Z M 272.277344 333.726562 " fill-opacity="1" fill-rule="nonzero"/><path fill="#e99643" d="M 443.53125 350.28125 L 449.847656 343.96875 L 447.535156 335.34375 L 438.910156 333.03125 L 432.597656 339.34375 L 434.910156 347.96875 Z M 439.257812 334.332031 L 446.582031 336.292969 L 448.546875 343.621094 L 443.183594 348.980469 L 435.855469 347.019531 L 433.894531 339.695312 Z M 439.257812 334.332031 " fill-opacity="1" fill-rule="nonzero"/><path fill="#e99643" d="M 436.824219 508.988281 L 430.511719 515.300781 L 432.820312 523.925781 L 441.445312 526.238281 L 447.761719 519.925781 L 445.449219 511.300781 Z M 441.097656 524.9375 L 433.773438 522.976562 L 431.808594 515.652344 L 437.171875 510.289062 L 444.496094 512.253906 L 446.457031 519.578125 Z M 441.097656 524.9375 " fill-opacity="1" fill-rule="nonzero"/><path fill="#e99643" d="M 438.914062 450.75 L 432.597656 457.0625 L 434.910156 465.6875 L 443.535156 468 L 449.851562 461.683594 L 447.539062 453.058594 Z M 443.1875 466.699219 L 435.863281 464.734375 L 433.898438 457.410156 L 439.261719 452.050781 L 446.585938 454.011719 L 448.546875 461.335938 Z M 443.1875 466.699219 " fill-opacity="1" fill-rule="nonzero"/><path fill="#e99643" d="M 406.308594 378.742188 L 415.230469 369.820312 L 411.964844 357.636719 L 399.78125 354.371094 L 390.847656 363.292969 L 394.109375 375.476562 Z M 400.125 355.664062 L 411.011719 358.582031 L 413.925781 369.472656 L 405.957031 377.441406 L 395.070312 374.523438 L 392.15625 363.640625 Z M 400.125 355.664062 " fill-opacity="1" fill-rule="nonzero"/><path fill="#e99643" d="M 433.339844 416.804688 L 440.480469 418.714844 L 445.703125 413.492188 L 443.792969 406.355469 L 436.652344 404.441406 L 431.890625 409.214844 L 418.503906 406.394531 L 415.417969 394.882812 L 403.234375 391.617188 L 394.808594 400.039062 L 375.621094 394.007812 L 369.515625 371.203125 L 346.6875 365.089844 L 339.714844 348.070312 L 348.121094 339.664062 L 344.855469 327.476562 L 332.671875 324.214844 L 323.75 333.132812 L 326.839844 344.667969 L 314.386719 357.105469 L 302.851562 354.011719 L 293.929688 362.933594 L 297.195312 375.117188 L 309.378906 378.382812 L 318.296875 369.464844 L 315.210938 357.929688 L 327.65625 345.488281 L 338.585938 348.417969 L 345.558594 365.433594 L 328.917969 382.078125 L 335.023438 404.859375 L 319.980469 419.910156 L 297.195312 413.804688 L 280.042969 430.960938 L 286.320312 454.394531 L 309.753906 460.675781 L 326.910156 443.519531 L 320.804688 420.738281 L 335.851562 405.691406 L 358.046875 411.636719 L 368.023438 433.226562 L 363.324219 437.925781 L 365.238281 445.066406 L 372.375 446.976562 L 377.597656 441.753906 L 375.695312 434.601562 L 369.144531 432.847656 L 359.164062 411.269531 L 375.304688 395.128906 L 394.492188 401.160156 L 397.578125 412.714844 L 409.765625 415.976562 L 418.222656 407.515625 L 431.609375 410.335938 Z M 437 405.742188 L 442.828125 407.304688 L 444.394531 413.132812 L 440.117188 417.40625 L 434.289062 415.84375 L 432.726562 410.003906 Z M 317.003906 369.121094 L 309.023438 377.082031 L 298.140625 374.164062 L 295.234375 363.292969 L 303.195312 355.3125 L 314.082031 358.230469 Z M 327.960938 344.363281 L 325.042969 333.480469 L 333.011719 325.511719 L 343.898438 328.429688 L 346.8125 339.304688 L 338.84375 347.273438 Z M 325.605469 443.179688 L 309.402344 459.378906 L 287.269531 453.449219 L 281.339844 431.304688 L 297.542969 415.101562 L 319.675781 421.03125 Z M 374.738281 435.558594 L 376.296875 441.386719 L 372.027344 445.660156 L 366.199219 444.097656 L 364.632812 438.269531 L 368.90625 433.996094 Z M 358.28125 410.5 L 336.148438 404.554688 L 330.21875 382.410156 L 346.421875 366.207031 L 368.554688 372.152344 L 374.484375 394.296875 Z M 409.414062 414.679688 L 398.539062 411.761719 L 395.625 400.875 L 403.582031 392.898438 L 414.46875 395.816406 L 417.386719 406.703125 Z M 409.414062 414.679688 " fill-opacity="1" fill-rule="nonzero"/><g clip-path="url(#34193e1051)"><path fill="#e99643" d="M 409.53125 559.984375 L 409.53125 564.941406 L 350.019531 564.941406 L 350.019531 559.984375 L 221.078125 559.984375 L 221.078125 561.96875 C 221.078125 564.941406 222.066406 568.910156 225.042969 571.886719 C 228.019531 574.863281 230.996094 575.851562 234.960938 575.851562 L 525.578125 575.851562 C 528.554688 575.851562 532.523438 574.863281 535.496094 571.886719 C 538.472656 568.910156 539.464844 565.933594 539.464844 561.96875 L 539.464844 559.984375 Z M 264.71875 568.910156 L 250.832031 568.910156 L 250.832031 566.925781 L 264.71875 566.925781 Z M 258.765625 555.023438 L 500.78125 555.023438 C 502.765625 555.023438 504.75 554.03125 506.734375 552.046875 C 508.71875 550.066406 509.707031 548.082031 509.707031 546.097656 L 509.707031 392.359375 C 509.707031 390.375 508.71875 388.390625 506.734375 386.40625 C 504.75 384.421875 502.765625 383.433594 500.78125 383.433594 L 258.765625 383.433594 C 256.785156 383.433594 254.800781 384.421875 252.816406 386.40625 C 250.832031 387.398438 250.832031 389.382812 250.832031 392.359375 L 250.832031 547.089844 C 250.832031 549.074219 251.824219 551.058594 253.808594 553.039062 C 254.800781 554.03125 256.785156 555.023438 258.765625 555.023438 Z M 379.773438 387.398438 C 381.757812 387.398438 382.75 388.390625 382.75 390.375 C 382.75 392.359375 381.757812 393.351562 379.773438 393.351562 C 377.789062 393.351562 376.800781 392.359375 376.800781 390.375 C 376.800781 388.390625 377.789062 387.398438 379.773438 387.398438 Z M 263.726562 397.316406 L 495.824219 397.316406 L 495.824219 542.128906 L 263.726562 542.128906 Z M 263.726562 397.316406 " fill-opacity="1" fill-rule="nonzero"/></g><g clip-path="url(#8b1985a07f)"><path fill="#e99643" d="M 910.570312 561.347656 C 910.570312 566.683594 906.242188 571.015625 900.902344 571.015625 L 839.855469 571.015625 C 834.511719 571.015625 830.183594 566.683594 830.183594 561.347656 L 830.183594 422.503906 C 830.183594 417.164062 834.511719 412.835938 839.855469 412.835938 L 852.273438 412.835938 C 852.925781 412.835938 853.460938 413.367188 853.460938 414.023438 L 853.460938 414.636719 C 853.460938 417.070312 855.433594 419.046875 857.867188 419.046875 L 882.890625 419.046875 C 885.324219 419.046875 887.296875 417.070312 887.296875 414.636719 L 887.296875 414.023438 C 887.296875 413.367188 887.828125 412.835938 888.484375 412.835938 L 900.902344 412.835938 C 906.242188 412.835938 910.570312 417.164062 910.570312 422.503906 Z M 900.902344 408 L 839.855469 408 C 831.855469 408 825.351562 414.507812 825.351562 422.503906 L 825.351562 561.347656 C 825.351562 569.34375 831.855469 575.847656 839.855469 575.847656 L 900.902344 575.847656 C 908.898438 575.847656 915.40625 569.34375 915.40625 561.347656 L 915.40625 422.503906 C 915.40625 414.507812 908.898438 408 900.902344 408 " fill-opacity="1" fill-rule="nonzero"/></g><g clip-path="url(#bdaa9aa27c)"><path fill="#e99643" d="M 571.148438 446.089844 C 568.910156 446.089844 567.414062 445.34375 565.921875 443.847656 L 536.042969 413.972656 C 533.058594 410.984375 533.058594 406.503906 536.042969 403.515625 L 565.921875 373.636719 C 568.910156 370.652344 573.390625 370.652344 576.378906 373.636719 C 579.363281 376.625 579.363281 381.105469 576.378906 384.09375 L 551.730469 408.742188 L 576.378906 433.390625 C 579.363281 436.378906 579.363281 440.859375 576.378906 443.847656 C 574.882812 445.34375 573.390625 446.089844 571.148438 446.089844 Z M 571.148438 446.089844 " fill-opacity="1" fill-rule="nonzero"/></g><g clip-path="url(#80c94969fd)"><path fill="#e99643" d="M 645.839844 446.089844 C 643.601562 446.089844 642.105469 445.34375 640.613281 443.847656 C 637.625 440.859375 637.625 436.378906 640.613281 433.390625 L 665.261719 408.742188 L 640.613281 384.09375 C 637.625 381.105469 637.625 376.625 640.613281 373.636719 C 643.601562 370.652344 648.082031 370.652344 651.070312 373.636719 L 680.945312 403.515625 C 683.933594 406.503906 683.933594 410.984375 680.945312 413.972656 L 651.070312 443.847656 C 649.574219 445.34375 648.082031 446.089844 645.839844 446.089844 Z M 645.839844 446.089844 " fill-opacity="1" fill-rule="nonzero"/></g><g clip-path="url(#76abb0cbca)"><path fill="#e99643" d="M 593.554688 461.027344 C 592.808594 461.027344 592.0625 461.027344 591.316406 460.28125 C 587.582031 458.785156 585.339844 455.050781 586.835938 450.570312 L 616.710938 360.941406 C 618.203125 357.207031 621.9375 354.964844 626.421875 356.460938 C 630.15625 357.953125 632.394531 361.6875 630.902344 366.167969 L 601.027344 455.796875 C 599.53125 458.785156 596.542969 461.027344 593.554688 461.027344 Z M 593.554688 461.027344 " fill-opacity="1" fill-rule="nonzero"/></g><g clip-path="url(#bc2fb253ee)"><path stroke-linecap="butt" transform="matrix(0.749634, 0, 0, 0.749634, 532.729055, 354.965469)" fill="none" stroke-linejoin="miter" d="M 0.00188574 -0.000833785 L 0.00188574 141.484865 L 202.142166 141.484865 L 202.142166 -0.000833785 L 0.00188574 -0.000833785 " stroke="#e99643" stroke-width="14" stroke-opacity="1" stroke-miterlimit="4"/></g><g clip-path="url(#cbda527959)"><path fill="#e99643" d="M 878.964844 461.871094 L 876.820312 461.871094 L 876.820312 453.285156 L 878.964844 453.285156 C 886.082031 453.285156 891.847656 459.050781 891.847656 466.164062 L 891.847656 481.191406 C 891.847656 482.542969 892.484375 483.816406 893.566406 484.625 L 898.714844 488.488281 C 899.746094 489.261719 900.375 490.457031 900.429688 491.746094 C 900.484375 493.035156 899.957031 494.277344 898.992188 495.132812 L 893.289062 500.203125 C 892.371094 501.019531 891.847656 502.1875 891.847656 503.414062 L 891.847656 517.6875 C 891.847656 524.800781 886.082031 530.566406 878.964844 530.566406 L 876.820312 530.566406 L 876.820312 521.980469 L 878.964844 521.980469 C 881.339844 521.980469 883.261719 520.058594 883.261719 517.6875 L 883.261719 503.414062 C 883.261719 499.734375 884.832031 496.230469 887.585938 493.785156 L 889.359375 492.207031 L 888.414062 491.496094 C 885.167969 489.0625 883.261719 485.246094 883.261719 481.191406 L 883.261719 466.164062 C 883.261719 463.792969 881.339844 461.871094 878.964844 461.871094 Z M 878.964844 461.871094 " fill-opacity="1" fill-rule="evenodd"/></g><g clip-path="url(#ff1685bffa)"><path fill="#e99643" d="M 861.792969 461.871094 L 863.941406 461.871094 L 863.941406 453.285156 L 861.792969 453.285156 C 854.679688 453.285156 848.914062 459.050781 848.914062 466.164062 L 848.914062 481.191406 C 848.914062 482.542969 848.277344 483.816406 847.195312 484.625 L 842.042969 488.488281 C 841.011719 489.261719 840.382812 490.457031 840.328125 491.746094 C 840.277344 493.035156 840.804688 494.277344 841.765625 495.132812 L 847.472656 500.203125 C 848.386719 501.019531 848.914062 502.1875 848.914062 503.414062 L 848.914062 517.6875 C 848.914062 524.800781 854.679688 530.566406 861.792969 530.566406 L 863.941406 530.566406 L 863.941406 521.980469 L 861.792969 521.980469 C 859.421875 521.980469 857.5 520.058594 857.5 517.6875 L 857.5 503.414062 C 857.5 499.734375 855.925781 496.230469 853.175781 493.785156 L 851.398438 492.207031 L 852.347656 491.496094 C 855.589844 489.0625 857.5 485.246094 857.5 481.191406 L 857.5 466.164062 C 857.5 463.792969 859.421875 461.871094 861.792969 461.871094 Z M 861.792969 461.871094 " fill-opacity="1" fill-rule="evenodd"/></g><g clip-path="url(#c0dbdf5609)"><path fill="#e99643" d="M 983.085938 440.769531 C 983.078125 440.628906 983.066406 440.484375 983.050781 440.34375 C 983.046875 440.328125 983.046875 440.316406 983.042969 440.300781 C 983.027344 440.152344 983.003906 440.007812 982.976562 439.863281 C 982.960938 439.785156 982.929688 439.71875 982.886719 439.664062 C 982.773438 439.515625 982.574219 439.453125 982.394531 439.507812 C 982.363281 439.515625 982.332031 439.527344 982.300781 439.542969 C 982.292969 439.550781 982.285156 439.554688 982.273438 439.5625 C 982.257812 439.574219 982.238281 439.585938 982.222656 439.601562 L 977.828125 443.449219 C 977.320312 443.894531 976.550781 443.84375 976.105469 443.335938 L 973.730469 440.625 C 973.285156 440.117188 973.339844 439.34375 973.847656 438.898438 L 978.238281 435.050781 C 978.253906 435.039062 978.269531 435.023438 978.285156 435.007812 C 978.320312 434.964844 978.347656 434.921875 978.363281 434.875 C 978.371094 434.855469 978.378906 434.835938 978.382812 434.820312 C 978.386719 434.800781 978.390625 434.78125 978.394531 434.761719 C 978.394531 434.75 978.394531 434.742188 978.394531 434.730469 C 978.394531 434.703125 978.394531 434.671875 978.390625 434.644531 C 978.378906 434.558594 978.34375 434.472656 978.285156 434.40625 C 978.269531 434.390625 978.257812 434.378906 978.242188 434.363281 C 978.234375 434.355469 978.226562 434.351562 978.21875 434.34375 C 978.179688 434.3125 978.132812 434.289062 978.078125 434.269531 C 977.9375 434.226562 977.796875 434.183594 977.652344 434.144531 C 977.640625 434.140625 977.625 434.140625 977.609375 434.136719 C 977.472656 434.101562 977.332031 434.070312 977.191406 434.042969 C 977.183594 434.039062 977.175781 434.039062 977.164062 434.035156 C 976.980469 434 976.796875 433.972656 976.609375 433.953125 C 976.605469 433.953125 976.601562 433.953125 976.601562 433.953125 C 976.523438 433.945312 976.449219 433.9375 976.375 433.929688 C 976.335938 433.929688 976.296875 433.925781 976.257812 433.921875 C 976.027344 433.910156 975.792969 433.90625 975.5625 433.914062 C 975.484375 433.914062 975.40625 433.917969 975.328125 433.925781 C 975.175781 433.933594 975.019531 433.949219 974.867188 433.96875 C 974.796875 433.976562 974.730469 433.988281 974.660156 434 C 974.566406 434.011719 974.476562 434.03125 974.382812 434.046875 C 974.199219 434.085938 974.015625 434.128906 973.835938 434.175781 C 973.800781 434.1875 973.761719 434.199219 973.722656 434.210938 C 973.671875 434.226562 973.617188 434.242188 973.566406 434.257812 C 973.507812 434.277344 973.449219 434.296875 973.386719 434.320312 C 973.238281 434.371094 973.09375 434.429688 972.945312 434.488281 C 972.691406 434.597656 972.441406 434.722656 972.199219 434.863281 C 972.09375 434.921875 971.988281 434.984375 971.886719 435.050781 C 971.820312 435.09375 971.75 435.136719 971.683594 435.183594 C 971.449219 435.34375 971.222656 435.523438 971 435.714844 C 970.96875 435.746094 970.933594 435.773438 970.902344 435.804688 C 970.890625 435.8125 970.882812 435.824219 970.871094 435.832031 C 970.847656 435.851562 970.828125 435.871094 970.804688 435.894531 C 970.792969 435.90625 970.78125 435.917969 970.769531 435.929688 C 970.75 435.945312 970.730469 435.964844 970.710938 435.984375 C 970.699219 435.996094 970.683594 436.007812 970.671875 436.023438 C 970.652344 436.039062 970.636719 436.058594 970.617188 436.078125 C 970.605469 436.089844 970.59375 436.101562 970.578125 436.117188 C 970.5625 436.132812 970.542969 436.152344 970.527344 436.171875 C 970.511719 436.183594 970.5 436.199219 970.488281 436.210938 C 970.46875 436.230469 970.453125 436.25 970.433594 436.269531 C 970.421875 436.28125 970.410156 436.292969 970.398438 436.304688 C 970.382812 436.328125 970.363281 436.347656 970.34375 436.367188 C 970.335938 436.378906 970.324219 436.390625 970.3125 436.402344 C 970.292969 436.425781 970.269531 436.453125 970.25 436.476562 C 970.242188 436.484375 970.238281 436.492188 970.230469 436.5 C 970.203125 436.53125 970.175781 436.566406 970.148438 436.597656 C 970.140625 436.609375 970.132812 436.617188 970.128906 436.625 C 970.105469 436.648438 970.085938 436.675781 970.066406 436.699219 C 970.058594 436.710938 970.046875 436.722656 970.039062 436.738281 C 970.023438 436.757812 970.003906 436.777344 969.988281 436.800781 C 969.980469 436.8125 969.96875 436.828125 969.957031 436.84375 C 969.941406 436.863281 969.925781 436.882812 969.914062 436.902344 C 969.902344 436.917969 969.890625 436.933594 969.882812 436.945312 C 969.867188 436.964844 969.851562 436.988281 969.839844 437.007812 C 969.828125 437.023438 969.816406 437.035156 969.808594 437.050781 C 969.792969 437.070312 969.777344 437.09375 969.765625 437.113281 C 969.753906 437.128906 969.746094 437.140625 969.734375 437.15625 C 969.722656 437.179688 969.707031 437.199219 969.691406 437.222656 C 969.683594 437.234375 969.675781 437.25 969.667969 437.261719 C 969.652344 437.285156 969.636719 437.308594 969.621094 437.335938 C 969.613281 437.347656 969.605469 437.359375 969.597656 437.371094 C 969.578125 437.40625 969.554688 437.441406 969.535156 437.476562 C 969.53125 437.476562 969.53125 437.476562 969.53125 437.480469 C 969.511719 437.515625 969.492188 437.550781 969.46875 437.585938 C 969.464844 437.597656 969.457031 437.609375 969.449219 437.621094 C 969.4375 437.644531 969.421875 437.671875 969.410156 437.695312 C 969.402344 437.710938 969.394531 437.722656 969.386719 437.738281 C 969.375 437.761719 969.363281 437.78125 969.351562 437.804688 C 969.34375 437.820312 969.335938 437.835938 969.328125 437.851562 C 969.316406 437.875 969.304688 437.894531 969.292969 437.917969 C 969.285156 437.933594 969.277344 437.949219 969.269531 437.964844 C 969.257812 437.988281 969.246094 438.007812 969.238281 438.03125 C 969.230469 438.046875 969.222656 438.0625 969.214844 438.078125 C 969.203125 438.101562 969.191406 438.121094 969.183594 438.144531 C 969.175781 438.160156 969.167969 438.175781 969.160156 438.191406 C 969.152344 438.214844 969.140625 438.238281 969.128906 438.261719 C 969.125 438.277344 969.117188 438.289062 969.113281 438.304688 C 969.097656 438.332031 969.085938 438.363281 969.074219 438.390625 C 969.070312 438.402344 969.066406 438.410156 969.0625 438.417969 C 969.046875 438.457031 969.03125 438.496094 969.015625 438.535156 C 969.011719 438.542969 969.007812 438.554688 969.007812 438.5625 C 968.996094 438.59375 968.984375 438.621094 968.972656 438.648438 C 968.96875 438.664062 968.960938 438.679688 968.957031 438.691406 C 968.949219 438.71875 968.9375 438.742188 968.929688 438.765625 C 968.925781 438.78125 968.917969 438.796875 968.914062 438.8125 C 968.90625 438.835938 968.898438 438.859375 968.890625 438.882812 C 968.886719 438.902344 968.878906 438.917969 968.875 438.933594 C 968.867188 438.957031 968.859375 438.980469 968.851562 439.003906 C 968.847656 439.019531 968.839844 439.035156 968.835938 439.050781 C 968.828125 439.074219 968.824219 439.097656 968.816406 439.121094 C 968.8125 439.136719 968.804688 439.15625 968.800781 439.171875 C 968.792969 439.195312 968.789062 439.21875 968.78125 439.242188 C 968.777344 439.257812 968.773438 439.273438 968.769531 439.289062 C 968.761719 439.316406 968.753906 439.34375 968.746094 439.371094 C 968.742188 439.382812 968.738281 439.398438 968.738281 439.410156 C 968.726562 439.449219 968.71875 439.488281 968.707031 439.53125 C 968.707031 439.53125 968.707031 439.53125 968.707031 439.535156 C 968.699219 439.574219 968.6875 439.609375 968.679688 439.648438 C 968.675781 439.664062 968.675781 439.675781 968.671875 439.691406 C 968.667969 439.714844 968.660156 439.742188 968.65625 439.769531 C 968.652344 439.785156 968.648438 439.800781 968.644531 439.816406 C 968.640625 439.84375 968.636719 439.867188 968.632812 439.890625 C 968.628906 439.910156 968.625 439.925781 968.625 439.941406 C 968.617188 439.964844 968.613281 439.988281 968.609375 440.011719 C 968.609375 440.03125 968.605469 440.046875 968.601562 440.0625 C 968.597656 440.089844 968.59375 440.113281 968.589844 440.136719 C 968.589844 440.152344 968.585938 440.167969 968.585938 440.1875 C 968.582031 440.210938 968.578125 440.234375 968.574219 440.261719 C 968.574219 440.277344 968.570312 440.292969 968.570312 440.308594 C 968.566406 440.335938 968.5625 440.359375 968.558594 440.386719 C 968.558594 440.402344 968.554688 440.417969 968.554688 440.429688 C 968.550781 440.460938 968.546875 440.492188 968.546875 440.527344 C 968.542969 440.535156 968.542969 440.542969 968.542969 440.554688 C 968.539062 440.59375 968.535156 440.636719 968.53125 440.675781 C 968.53125 440.6875 968.53125 440.699219 968.53125 440.707031 C 968.527344 440.738281 968.527344 440.769531 968.523438 440.800781 C 968.523438 440.8125 968.523438 440.828125 968.523438 440.84375 C 968.523438 440.871094 968.519531 440.894531 968.519531 440.921875 C 968.519531 440.9375 968.519531 440.957031 968.515625 440.972656 C 968.515625 440.996094 968.515625 441.019531 968.515625 441.046875 C 968.515625 441.0625 968.515625 441.078125 968.515625 441.097656 C 968.515625 441.121094 968.515625 441.144531 968.515625 441.167969 C 968.515625 441.1875 968.511719 441.203125 968.515625 441.21875 C 968.515625 441.246094 968.515625 441.269531 968.515625 441.292969 C 968.515625 441.308594 968.515625 441.328125 968.515625 441.34375 C 968.515625 441.371094 968.515625 441.394531 968.515625 441.417969 C 968.515625 441.4375 968.519531 441.453125 968.519531 441.46875 C 968.519531 441.496094 968.519531 441.523438 968.523438 441.550781 C 968.523438 441.5625 968.523438 441.578125 968.523438 441.589844 C 968.527344 441.632812 968.527344 441.671875 968.53125 441.714844 C 968.53125 441.714844 968.53125 441.71875 968.53125 441.71875 C 968.535156 441.757812 968.539062 441.796875 968.539062 441.835938 C 968.542969 441.847656 968.542969 441.863281 968.542969 441.875 C 968.546875 441.902344 968.550781 441.929688 968.550781 441.957031 C 968.554688 441.972656 968.554688 441.992188 968.558594 442.007812 C 968.5625 442.03125 968.5625 442.054688 968.566406 442.082031 C 968.570312 442.097656 968.570312 442.113281 968.574219 442.132812 C 968.574219 442.15625 968.578125 442.179688 968.582031 442.203125 C 968.585938 442.222656 968.585938 442.238281 968.589844 442.253906 C 968.59375 442.28125 968.597656 442.304688 968.601562 442.328125 C 968.601562 442.34375 968.605469 442.359375 968.609375 442.378906 C 968.613281 442.402344 968.617188 442.425781 968.621094 442.453125 C 968.625 442.46875 968.625 442.484375 968.628906 442.5 C 968.628906 442.507812 968.632812 442.511719 968.632812 442.519531 C 968.734375 443.074219 968.535156 443.640625 968.109375 444.011719 L 966.25 445.640625 L 959.457031 437.886719 L 957.414062 435.550781 C 955.664062 433.554688 952.617188 433.351562 950.617188 435.101562 L 950.460938 435.238281 C 948.460938 436.988281 948.261719 440.039062 950.011719 442.035156 L 952.054688 444.371094 L 958.847656 452.125 L 956.988281 453.753906 C 956.566406 454.125 955.976562 454.246094 955.4375 454.074219 C 955.433594 454.070312 955.425781 454.070312 955.421875 454.070312 C 955.40625 454.0625 955.390625 454.058594 955.375 454.054688 C 955.351562 454.046875 955.328125 454.039062 955.304688 454.03125 C 955.285156 454.027344 955.269531 454.023438 955.253906 454.015625 C 955.230469 454.011719 955.207031 454.003906 955.183594 453.996094 C 955.167969 453.992188 955.152344 453.988281 955.132812 453.984375 C 955.109375 453.976562 955.085938 453.96875 955.0625 453.964844 C 955.046875 453.960938 955.03125 453.953125 955.015625 453.949219 C 954.988281 453.945312 954.964844 453.9375 954.941406 453.933594 C 954.925781 453.929688 954.910156 453.925781 954.894531 453.921875 C 954.867188 453.914062 954.839844 453.910156 954.816406 453.902344 C 954.800781 453.898438 954.789062 453.894531 954.773438 453.894531 C 954.734375 453.882812 954.699219 453.875 954.660156 453.867188 C 954.65625 453.867188 954.65625 453.867188 954.652344 453.867188 C 954.613281 453.859375 954.574219 453.851562 954.53125 453.84375 C 954.519531 453.839844 954.507812 453.839844 954.492188 453.835938 C 954.464844 453.832031 954.4375 453.828125 954.410156 453.820312 C 954.394531 453.820312 954.378906 453.816406 954.363281 453.8125 C 954.339844 453.808594 954.316406 453.804688 954.289062 453.800781 C 954.273438 453.800781 954.257812 453.796875 954.238281 453.796875 C 954.214844 453.792969 954.191406 453.789062 954.167969 453.785156 C 954.152344 453.78125 954.132812 453.78125 954.117188 453.777344 C 954.09375 453.773438 954.070312 453.773438 954.042969 453.769531 C 954.027344 453.765625 954.011719 453.765625 953.992188 453.761719 C 953.96875 453.761719 953.945312 453.757812 953.921875 453.753906 C 953.902344 453.753906 953.886719 453.753906 953.871094 453.75 C 953.84375 453.75 953.820312 453.746094 953.792969 453.742188 C 953.777344 453.742188 953.761719 453.742188 953.75 453.738281 C 953.71875 453.738281 953.6875 453.734375 953.65625 453.734375 C 953.648438 453.734375 953.636719 453.734375 953.625 453.730469 C 953.585938 453.730469 953.542969 453.726562 953.503906 453.726562 C 953.492188 453.726562 953.484375 453.722656 953.472656 453.722656 C 953.441406 453.722656 953.410156 453.722656 953.378906 453.722656 C 953.367188 453.71875 953.351562 453.71875 953.335938 453.71875 C 953.308594 453.71875 953.285156 453.71875 953.257812 453.71875 C 953.242188 453.71875 953.222656 453.71875 953.207031 453.71875 C 953.183594 453.71875 953.160156 453.71875 953.132812 453.71875 C 953.117188 453.71875 953.101562 453.71875 953.082031 453.71875 C 953.058594 453.71875 953.035156 453.71875 953.011719 453.71875 C 952.992188 453.722656 952.976562 453.722656 952.957031 453.722656 C 952.933594 453.722656 952.910156 453.722656 952.886719 453.722656 C 952.867188 453.726562 952.851562 453.726562 952.835938 453.726562 C 952.808594 453.726562 952.785156 453.730469 952.761719 453.730469 C 952.746094 453.730469 952.726562 453.734375 952.710938 453.734375 C 952.683594 453.734375 952.65625 453.738281 952.628906 453.738281 C 952.617188 453.742188 952.601562 453.742188 952.589844 453.742188 C 952.550781 453.746094 952.511719 453.75 952.472656 453.753906 C 952.46875 453.753906 952.46875 453.753906 952.464844 453.753906 C 952.425781 453.757812 952.386719 453.761719 952.34375 453.765625 C 952.332031 453.769531 952.316406 453.769531 952.304688 453.773438 C 952.277344 453.773438 952.25 453.777344 952.222656 453.78125 C 952.207031 453.785156 952.191406 453.785156 952.175781 453.789062 C 952.148438 453.792969 952.125 453.796875 952.097656 453.800781 C 952.082031 453.800781 952.066406 453.804688 952.050781 453.808594 C 952.023438 453.8125 952 453.816406 951.976562 453.820312 C 951.960938 453.820312 951.941406 453.824219 951.925781 453.828125 C 951.902344 453.832031 951.878906 453.835938 951.855469 453.839844 C 951.835938 453.84375 951.820312 453.847656 951.804688 453.851562 C 951.777344 453.855469 951.753906 453.859375 951.730469 453.863281 C 951.714844 453.867188 951.699219 453.871094 951.679688 453.875 C 951.65625 453.878906 951.628906 453.886719 951.605469 453.890625 C 951.589844 453.894531 951.574219 453.898438 951.558594 453.902344 C 951.53125 453.90625 951.5 453.914062 951.46875 453.921875 C 951.460938 453.925781 951.449219 453.925781 951.441406 453.929688 C 951.398438 453.941406 951.359375 453.949219 951.320312 453.960938 C 951.308594 453.960938 951.300781 453.964844 951.289062 453.96875 C 951.261719 453.976562 951.230469 453.984375 951.199219 453.992188 C 951.183594 453.996094 951.171875 454 951.15625 454.003906 C 951.128906 454.011719 951.105469 454.019531 951.078125 454.027344 C 951.0625 454.03125 951.046875 454.039062 951.03125 454.042969 C 951.007812 454.050781 950.984375 454.058594 950.960938 454.066406 C 950.945312 454.070312 950.925781 454.074219 950.910156 454.082031 C 950.886719 454.089844 950.863281 454.097656 950.839844 454.105469 C 950.824219 454.109375 950.808594 454.117188 950.792969 454.121094 C 950.769531 454.128906 950.746094 454.136719 950.722656 454.144531 C 950.707031 454.152344 950.6875 454.15625 950.671875 454.164062 C 950.648438 454.171875 950.625 454.179688 950.601562 454.191406 C 950.585938 454.195312 950.570312 454.203125 950.554688 454.207031 C 950.53125 454.21875 950.503906 454.230469 950.476562 454.238281 C 950.464844 454.242188 950.453125 454.25 950.4375 454.253906 C 950.402344 454.269531 950.363281 454.285156 950.324219 454.300781 C 950.285156 454.320312 950.246094 454.335938 950.207031 454.351562 C 950.195312 454.359375 950.183594 454.363281 950.171875 454.371094 C 950.144531 454.382812 950.117188 454.394531 950.09375 454.40625 C 950.078125 454.414062 950.0625 454.417969 950.046875 454.425781 C 950.023438 454.4375 950 454.449219 949.980469 454.460938 C 949.964844 454.46875 949.949219 454.476562 949.933594 454.484375 C 949.910156 454.496094 949.886719 454.507812 949.863281 454.515625 C 949.847656 454.527344 949.832031 454.535156 949.816406 454.542969 C 949.796875 454.554688 949.773438 454.566406 949.75 454.578125 C 949.734375 454.585938 949.71875 454.59375 949.703125 454.601562 C 949.683594 454.613281 949.660156 454.625 949.636719 454.640625 C 949.621094 454.648438 949.609375 454.65625 949.59375 454.664062 C 949.570312 454.675781 949.546875 454.691406 949.523438 454.703125 C 949.507812 454.714844 949.496094 454.71875 949.480469 454.730469 C 949.453125 454.746094 949.425781 454.761719 949.398438 454.777344 C 949.390625 454.785156 949.382812 454.789062 949.371094 454.792969 C 949.335938 454.816406 949.300781 454.839844 949.261719 454.863281 C 949.253906 454.867188 949.246094 454.875 949.234375 454.878906 C 949.210938 454.898438 949.183594 454.914062 949.15625 454.933594 C 949.140625 454.941406 949.128906 454.953125 949.117188 454.960938 C 949.09375 454.976562 949.070312 454.992188 949.046875 455.007812 C 949.035156 455.015625 949.019531 455.027344 949.003906 455.035156 C 948.984375 455.050781 948.960938 455.066406 948.941406 455.082031 C 948.925781 455.09375 948.910156 455.101562 948.898438 455.113281 C 948.875 455.128906 948.855469 455.144531 948.835938 455.160156 C 948.820312 455.167969 948.808594 455.179688 948.792969 455.191406 C 948.773438 455.207031 948.75 455.222656 948.730469 455.238281 C 948.714844 455.25 948.703125 455.261719 948.6875 455.273438 C 948.667969 455.289062 948.644531 455.304688 948.625 455.320312 C 948.613281 455.332031 948.597656 455.34375 948.585938 455.355469 C 948.5625 455.371094 948.539062 455.390625 948.515625 455.410156 C 948.507812 455.417969 948.496094 455.429688 948.484375 455.4375 C 948.449219 455.464844 948.417969 455.496094 948.382812 455.523438 C 948.226562 455.660156 948.078125 455.804688 947.933594 455.953125 C 947.878906 456.011719 947.820312 456.070312 947.765625 456.132812 C 947.734375 456.167969 947.699219 456.207031 947.667969 456.246094 C 947.582031 456.34375 947.503906 456.441406 947.425781 456.539062 C 947.351562 456.636719 947.277344 456.734375 947.210938 456.832031 C 947.183594 456.871094 947.15625 456.90625 947.128906 456.949219 C 947.109375 456.976562 947.09375 457.003906 947.074219 457.03125 C 947.050781 457.070312 947.027344 457.105469 947.003906 457.144531 C 946.960938 457.210938 946.921875 457.277344 946.882812 457.34375 C 946.816406 457.453125 946.753906 457.566406 946.695312 457.683594 C 946.632812 457.804688 946.574219 457.929688 946.519531 458.054688 C 946.496094 458.105469 946.476562 458.15625 946.453125 458.207031 C 946.320312 458.527344 946.210938 458.859375 946.125 459.195312 C 946.117188 459.226562 946.109375 459.253906 946.101562 459.285156 C 946.082031 459.371094 946.0625 459.457031 946.042969 459.539062 C 946.039062 459.5625 946.035156 459.585938 946.03125 459.605469 C 945.996094 459.78125 945.96875 459.953125 945.949219 460.128906 C 945.933594 460.253906 945.921875 460.375 945.914062 460.496094 C 945.902344 460.660156 945.898438 460.820312 945.894531 460.984375 C 945.894531 461.117188 945.898438 461.246094 945.90625 461.378906 C 945.90625 461.414062 945.910156 461.449219 945.910156 461.484375 C 945.921875 461.628906 945.933594 461.769531 945.953125 461.914062 C 945.960938 461.976562 945.96875 462.039062 945.976562 462.101562 C 945.988281 462.183594 946.003906 462.265625 946.019531 462.347656 C 946.03125 462.421875 946.0625 462.488281 946.105469 462.542969 C 946.109375 462.550781 946.117188 462.5625 946.125 462.570312 C 946.132812 462.578125 946.144531 462.585938 946.152344 462.597656 C 946.160156 462.605469 946.167969 462.613281 946.179688 462.621094 C 946.1875 462.625 946.195312 462.632812 946.207031 462.640625 C 946.28125 462.691406 946.371094 462.722656 946.460938 462.722656 C 946.464844 462.722656 946.464844 462.722656 946.464844 462.722656 C 946.492188 462.726562 946.523438 462.722656 946.550781 462.71875 C 946.5625 462.714844 946.570312 462.714844 946.582031 462.710938 C 946.628906 462.699219 946.675781 462.679688 946.722656 462.648438 C 946.738281 462.636719 946.757812 462.625 946.773438 462.609375 L 951.164062 458.761719 C 951.671875 458.316406 952.445312 458.367188 952.890625 458.875 L 955.261719 461.585938 C 955.707031 462.09375 955.65625 462.867188 955.148438 463.3125 L 950.757812 467.160156 C 950.488281 467.394531 950.578125 467.828125 950.914062 467.941406 C 953.28125 468.714844 955.984375 468.253906 957.992188 466.496094 C 958.027344 466.464844 958.058594 466.4375 958.089844 466.40625 C 958.101562 466.398438 958.113281 466.386719 958.125 466.378906 C 958.144531 466.359375 958.167969 466.339844 958.1875 466.316406 C 958.203125 466.304688 958.214844 466.292969 958.226562 466.28125 C 958.246094 466.265625 958.265625 466.246094 958.285156 466.226562 C 958.296875 466.214844 958.308594 466.203125 958.320312 466.1875 C 958.339844 466.171875 958.359375 466.152344 958.375 466.132812 C 958.390625 466.121094 958.402344 466.109375 958.414062 466.09375 C 958.433594 466.078125 958.449219 466.058594 958.46875 466.039062 C 958.480469 466.027344 958.492188 466.011719 958.507812 466 C 958.523438 465.980469 958.542969 465.960938 958.558594 465.941406 C 958.570312 465.929688 958.582031 465.917969 958.59375 465.90625 C 958.613281 465.882812 958.628906 465.863281 958.648438 465.84375 C 958.660156 465.832031 958.671875 465.820312 958.679688 465.808594 C 958.703125 465.785156 958.722656 465.757812 958.742188 465.734375 C 958.75 465.726562 958.757812 465.71875 958.765625 465.710938 C 958.792969 465.675781 958.820312 465.644531 958.847656 465.609375 C 958.851562 465.601562 958.859375 465.59375 958.867188 465.585938 C 958.886719 465.5625 958.90625 465.535156 958.925781 465.511719 C 958.9375 465.5 958.945312 465.488281 958.957031 465.472656 C 958.972656 465.453125 958.988281 465.429688 959.003906 465.410156 C 959.015625 465.394531 959.027344 465.382812 959.035156 465.367188 C 959.050781 465.347656 959.066406 465.328125 959.082031 465.308594 C 959.09375 465.292969 959.101562 465.277344 959.113281 465.265625 C 959.128906 465.242188 959.140625 465.222656 959.15625 465.203125 C 959.167969 465.1875 959.175781 465.175781 959.1875 465.160156 C 959.199219 465.140625 959.214844 465.117188 959.230469 465.097656 C 959.238281 465.082031 959.25 465.070312 959.257812 465.054688 C 959.273438 465.03125 959.285156 465.011719 959.300781 464.988281 C 959.308594 464.976562 959.320312 464.960938 959.328125 464.949219 C 959.34375 464.925781 959.359375 464.898438 959.375 464.875 C 959.378906 464.863281 959.386719 464.851562 959.394531 464.839844 C 959.417969 464.804688 959.4375 464.769531 959.460938 464.734375 C 959.460938 464.734375 959.460938 464.730469 959.460938 464.730469 C 959.484375 464.695312 959.503906 464.660156 959.523438 464.625 C 959.53125 464.613281 959.535156 464.601562 959.542969 464.589844 C 959.558594 464.5625 959.570312 464.539062 959.585938 464.515625 C 959.59375 464.5 959.601562 464.488281 959.609375 464.472656 C 959.621094 464.449219 959.632812 464.425781 959.644531 464.40625 C 959.652344 464.390625 959.660156 464.375 959.667969 464.359375 C 959.679688 464.335938 959.691406 464.316406 959.703125 464.292969 C 959.710938 464.277344 959.71875 464.261719 959.726562 464.246094 C 959.734375 464.222656 959.746094 464.203125 959.757812 464.179688 C 959.765625 464.164062 959.773438 464.148438 959.78125 464.132812 C 959.789062 464.109375 959.800781 464.085938 959.8125 464.066406 C 959.820312 464.050781 959.824219 464.035156 959.832031 464.019531 C 959.84375 463.996094 959.855469 463.972656 959.863281 463.945312 C 959.871094 463.933594 959.875 463.917969 959.882812 463.90625 C 959.894531 463.875 959.90625 463.847656 959.917969 463.816406 C 959.921875 463.808594 959.925781 463.800781 959.929688 463.789062 C 959.945312 463.753906 959.960938 463.714844 959.976562 463.675781 C 959.980469 463.664062 959.984375 463.65625 959.988281 463.644531 C 960 463.617188 960.011719 463.589844 960.019531 463.558594 C 960.027344 463.546875 960.03125 463.53125 960.035156 463.515625 C 960.046875 463.492188 960.054688 463.46875 960.0625 463.441406 C 960.070312 463.425781 960.074219 463.410156 960.078125 463.394531 C 960.089844 463.371094 960.097656 463.347656 960.105469 463.324219 C 960.109375 463.308594 960.113281 463.292969 960.121094 463.277344 C 960.128906 463.253906 960.136719 463.230469 960.140625 463.207031 C 960.148438 463.191406 960.152344 463.175781 960.15625 463.15625 C 960.164062 463.132812 960.171875 463.109375 960.179688 463.085938 C 960.183594 463.070312 960.1875 463.054688 960.191406 463.039062 C 960.199219 463.015625 960.207031 462.988281 960.214844 462.964844 C 960.21875 462.949219 960.222656 462.933594 960.226562 462.917969 C 960.234375 462.890625 960.242188 462.867188 960.246094 462.839844 C 960.25 462.824219 960.253906 462.8125 960.257812 462.800781 C 960.265625 462.761719 960.277344 462.71875 960.285156 462.679688 C 960.285156 462.679688 960.289062 462.675781 960.289062 462.675781 C 960.296875 462.636719 960.304688 462.597656 960.3125 462.558594 C 960.316406 462.546875 960.320312 462.53125 960.320312 462.519531 C 960.328125 462.492188 960.332031 462.464844 960.339844 462.4375 C 960.34375 462.421875 960.34375 462.40625 960.347656 462.390625 C 960.351562 462.367188 960.359375 462.34375 960.363281 462.316406 C 960.363281 462.300781 960.367188 462.285156 960.371094 462.269531 C 960.375 462.242188 960.378906 462.21875 960.382812 462.195312 C 960.386719 462.179688 960.386719 462.160156 960.390625 462.144531 C 960.394531 462.121094 960.398438 462.097656 960.402344 462.074219 C 960.40625 462.054688 960.40625 462.039062 960.410156 462.023438 C 960.414062 462 960.417969 461.972656 960.417969 461.949219 C 960.421875 461.933594 960.421875 461.917969 960.425781 461.898438 C 960.429688 461.875 960.429688 461.847656 960.433594 461.824219 C 960.4375 461.808594 960.4375 461.792969 960.4375 461.777344 C 960.441406 461.746094 960.445312 461.714844 960.449219 461.683594 C 960.449219 461.675781 960.449219 461.664062 960.453125 461.65625 C 960.457031 461.617188 960.457031 461.574219 960.460938 461.535156 C 960.460938 461.523438 960.460938 461.511719 960.464844 461.503906 C 960.464844 461.472656 960.46875 461.441406 960.46875 461.410156 C 960.46875 461.394531 960.46875 461.378906 960.472656 461.367188 C 960.472656 461.339844 960.472656 461.3125 960.472656 461.289062 C 960.476562 461.273438 960.476562 461.253906 960.476562 461.238281 C 960.476562 461.214844 960.476562 461.1875 960.476562 461.164062 C 960.480469 461.148438 960.480469 461.128906 960.480469 461.113281 C 960.480469 461.089844 960.480469 461.066406 960.480469 461.042969 C 960.480469 461.023438 960.480469 461.007812 960.480469 460.988281 C 960.480469 460.964844 960.480469 460.941406 960.480469 460.917969 C 960.480469 460.898438 960.480469 460.882812 960.480469 460.867188 C 960.476562 460.839844 960.476562 460.816406 960.476562 460.789062 C 960.476562 460.773438 960.476562 460.757812 960.476562 460.742188 C 960.472656 460.714844 960.472656 460.6875 960.472656 460.660156 C 960.472656 460.644531 960.472656 460.632812 960.46875 460.621094 C 960.46875 460.578125 960.464844 460.539062 960.460938 460.496094 C 960.460938 460.496094 960.460938 460.492188 960.460938 460.488281 C 960.460938 460.453125 960.457031 460.414062 960.453125 460.375 C 960.453125 460.359375 960.449219 460.347656 960.449219 460.332031 C 960.445312 460.304688 960.445312 460.277344 960.441406 460.25 C 960.4375 460.234375 960.4375 460.21875 960.4375 460.203125 C 960.433594 460.179688 960.429688 460.152344 960.425781 460.128906 C 960.425781 460.109375 960.421875 460.09375 960.421875 460.078125 C 960.417969 460.054688 960.414062 460.027344 960.410156 460.003906 C 960.410156 459.988281 960.40625 459.972656 960.402344 459.953125 C 960.402344 459.929688 960.398438 459.90625 960.394531 459.882812 C 960.390625 459.863281 960.386719 459.847656 960.386719 459.832031 C 960.382812 459.804688 960.378906 459.78125 960.375 459.757812 C 960.371094 459.742188 960.367188 459.726562 960.363281 459.707031 C 960.363281 459.703125 960.363281 459.695312 960.363281 459.691406 C 960.261719 459.136719 960.457031 458.566406 960.882812 458.195312 L 962.742188 456.566406 L 970.269531 465.160156 C 970.273438 465.164062 970.277344 465.167969 970.28125 465.175781 C 970.285156 465.179688 970.292969 465.1875 970.296875 465.191406 C 970.308594 465.203125 970.316406 465.214844 970.328125 465.222656 C 970.332031 465.226562 970.339844 465.234375 970.34375 465.238281 C 970.355469 465.25 970.371094 465.261719 970.386719 465.277344 C 970.386719 465.277344 970.390625 465.277344 970.390625 465.28125 C 970.425781 465.308594 970.460938 465.335938 970.5 465.359375 C 970.519531 465.371094 970.539062 465.382812 970.558594 465.394531 C 970.558594 465.394531 970.5625 465.394531 970.5625 465.398438 C 970.582031 465.40625 970.601562 465.417969 970.621094 465.425781 C 970.621094 465.425781 970.621094 465.425781 970.625 465.425781 C 970.648438 465.4375 970.675781 465.449219 970.699219 465.457031 L 978.441406 468.476562 C 978.570312 468.523438 978.703125 468.550781 978.832031 468.550781 C 979.089844 468.550781 979.34375 468.457031 979.542969 468.28125 C 979.847656 468.015625 979.976562 467.605469 979.882812 467.214844 L 977.90625 459.128906 C 977.90625 459.125 977.90625 459.121094 977.902344 459.117188 C 977.898438 459.105469 977.894531 459.089844 977.890625 459.074219 C 977.890625 459.066406 977.886719 459.058594 977.886719 459.054688 C 977.878906 459.039062 977.875 459.023438 977.871094 459.007812 C 977.867188 459.003906 977.867188 459 977.863281 458.996094 C 977.855469 458.976562 977.847656 458.957031 977.839844 458.9375 C 977.835938 458.933594 977.835938 458.925781 977.832031 458.921875 C 977.824219 458.90625 977.820312 458.894531 977.8125 458.882812 C 977.808594 458.875 977.804688 458.867188 977.800781 458.863281 C 977.792969 458.847656 977.789062 458.835938 977.777344 458.824219 C 977.777344 458.820312 977.773438 458.8125 977.769531 458.808594 C 977.757812 458.792969 977.746094 458.773438 977.734375 458.757812 C 977.734375 458.753906 977.730469 458.75 977.726562 458.746094 C 977.71875 458.734375 977.707031 458.722656 977.699219 458.707031 C 977.695312 458.703125 977.6875 458.699219 977.683594 458.691406 C 977.679688 458.6875 977.675781 458.683594 977.671875 458.675781 L 970.144531 450.085938 L 972.003906 448.457031 C 972.429688 448.085938 973.019531 447.960938 973.554688 448.136719 C 973.5625 448.136719 973.566406 448.140625 973.574219 448.140625 C 973.589844 448.148438 973.605469 448.152344 973.621094 448.15625 C 973.644531 448.164062 973.667969 448.171875 973.691406 448.179688 C 973.707031 448.183594 973.722656 448.1875 973.738281 448.191406 C 973.761719 448.199219 973.785156 448.207031 973.808594 448.214844 C 973.828125 448.21875 973.84375 448.222656 973.859375 448.226562 C 973.882812 448.234375 973.90625 448.242188 973.929688 448.246094 C 973.945312 448.25 973.964844 448.253906 973.980469 448.257812 C 974.003906 448.265625 974.027344 448.273438 974.050781 448.277344 C 974.066406 448.28125 974.082031 448.285156 974.097656 448.289062 C 974.125 448.296875 974.152344 448.300781 974.179688 448.308594 C 974.191406 448.3125 974.207031 448.3125 974.21875 448.316406 C 974.257812 448.324219 974.296875 448.332031 974.332031 448.339844 C 974.335938 448.34375 974.339844 448.34375 974.339844 448.34375 C 974.378906 448.351562 974.421875 448.359375 974.460938 448.367188 C 974.472656 448.367188 974.488281 448.371094 974.5 448.375 C 974.527344 448.378906 974.554688 448.382812 974.582031 448.386719 C 974.597656 448.390625 974.613281 448.394531 974.628906 448.394531 C 974.652344 448.398438 974.679688 448.402344 974.703125 448.40625 C 974.71875 448.410156 974.738281 448.414062 974.753906 448.414062 C 974.777344 448.417969 974.800781 448.421875 974.824219 448.425781 C 974.84375 448.425781 974.859375 448.429688 974.878906 448.433594 C 974.902344 448.433594 974.925781 448.4375 974.949219 448.441406 C 974.964844 448.441406 974.984375 448.445312 975 448.445312 C 975.023438 448.449219 975.046875 448.453125 975.074219 448.453125 C 975.089844 448.457031 975.105469 448.457031 975.121094 448.460938 C 975.148438 448.460938 975.175781 448.464844 975.199219 448.464844 C 975.214844 448.46875 975.230469 448.46875 975.246094 448.46875 C 975.277344 448.472656 975.304688 448.472656 975.335938 448.476562 C 975.347656 448.476562 975.355469 448.476562 975.367188 448.480469 C 975.410156 448.480469 975.449219 448.484375 975.492188 448.484375 C 975.5 448.484375 975.507812 448.484375 975.519531 448.484375 C 975.550781 448.488281 975.582031 448.488281 975.613281 448.488281 C 975.628906 448.488281 975.644531 448.488281 975.65625 448.492188 C 975.683594 448.492188 975.710938 448.492188 975.738281 448.492188 C 975.753906 448.492188 975.769531 448.492188 975.785156 448.492188 C 975.8125 448.492188 975.835938 448.492188 975.859375 448.492188 C 975.875 448.492188 975.894531 448.492188 975.910156 448.492188 C 975.933594 448.492188 975.960938 448.492188 975.984375 448.488281 C 976 448.488281 976.019531 448.488281 976.035156 448.488281 C 976.058594 448.488281 976.082031 448.488281 976.109375 448.484375 C 976.125 448.484375 976.140625 448.484375 976.160156 448.484375 C 976.183594 448.480469 976.207031 448.480469 976.234375 448.480469 C 976.25 448.480469 976.265625 448.476562 976.28125 448.476562 C 976.308594 448.476562 976.335938 448.472656 976.363281 448.472656 C 976.378906 448.46875 976.390625 448.46875 976.40625 448.46875 C 976.445312 448.464844 976.484375 448.460938 976.523438 448.457031 C 976.523438 448.457031 976.527344 448.457031 976.527344 448.457031 C 976.566406 448.453125 976.609375 448.449219 976.648438 448.445312 C 976.664062 448.441406 976.675781 448.441406 976.691406 448.4375 C 976.71875 448.4375 976.746094 448.433594 976.773438 448.429688 C 976.789062 448.425781 976.804688 448.425781 976.820312 448.421875 C 976.84375 448.417969 976.871094 448.414062 976.894531 448.410156 C 976.910156 448.410156 976.929688 448.40625 976.945312 448.402344 C 976.96875 448.398438 976.992188 448.394531 977.015625 448.390625 C 977.035156 448.390625 977.050781 448.386719 977.070312 448.382812 C 977.09375 448.378906 977.117188 448.375 977.140625 448.371094 C 977.15625 448.367188 977.175781 448.363281 977.191406 448.359375 C 977.214844 448.355469 977.238281 448.351562 977.261719 448.347656 C 977.28125 448.34375 977.296875 448.339844 977.3125 448.335938 C 977.339844 448.332031 977.363281 448.324219 977.390625 448.320312 C 977.402344 448.316406 977.417969 448.3125 977.433594 448.308594 C 977.464844 448.300781 977.492188 448.296875 977.523438 448.289062 C 977.535156 448.285156 977.542969 448.285156 977.554688 448.28125 C 977.59375 448.269531 977.632812 448.261719 977.675781 448.25 C 977.683594 448.246094 977.695312 448.246094 977.703125 448.242188 C 977.734375 448.234375 977.765625 448.226562 977.792969 448.21875 C 977.808594 448.214844 977.824219 448.210938 977.839844 448.203125 C 977.863281 448.199219 977.890625 448.191406 977.914062 448.183594 C 977.929688 448.179688 977.945312 448.171875 977.960938 448.167969 C 977.984375 448.160156 978.011719 448.152344 978.035156 448.144531 C 978.050781 448.140625 978.066406 448.132812 978.082031 448.128906 C 978.105469 448.121094 978.128906 448.113281 978.152344 448.105469 C 978.167969 448.101562 978.1875 448.09375 978.203125 448.089844 C 978.226562 448.082031 978.25 448.074219 978.273438 448.0625 C 978.289062 448.058594 978.304688 448.050781 978.320312 448.046875 C 978.34375 448.039062 978.367188 448.027344 978.394531 448.019531 C 978.40625 448.015625 978.421875 448.007812 978.4375 448.003906 C 978.464844 447.992188 978.492188 447.980469 978.515625 447.972656 C 978.53125 447.964844 978.542969 447.960938 978.554688 447.957031 C 978.59375 447.941406 978.632812 447.925781 978.667969 447.910156 C 978.671875 447.910156 978.671875 447.910156 978.671875 447.90625 C 978.710938 447.890625 978.75 447.875 978.785156 447.855469 C 978.800781 447.851562 978.8125 447.847656 978.824219 447.839844 C 978.851562 447.828125 978.875 447.816406 978.902344 447.804688 C 978.917969 447.796875 978.929688 447.789062 978.945312 447.785156 C 978.96875 447.773438 978.992188 447.761719 979.015625 447.75 C 979.03125 447.742188 979.046875 447.734375 979.0625 447.726562 C 979.085938 447.714844 979.105469 447.703125 979.128906 447.691406 C 979.144531 447.683594 979.160156 447.675781 979.175781 447.667969 C 979.199219 447.65625 979.222656 447.644531 979.242188 447.632812 C 979.257812 447.625 979.273438 447.617188 979.289062 447.609375 C 979.3125 447.597656 979.335938 447.582031 979.355469 447.570312 C 979.371094 447.5625 979.386719 447.554688 979.402344 447.546875 C 979.425781 447.53125 979.449219 447.519531 979.472656 447.503906 C 979.484375 447.496094 979.5 447.488281 979.511719 447.480469 C 979.539062 447.464844 979.566406 447.449219 979.59375 447.433594 C 979.605469 447.425781 979.613281 447.421875 979.621094 447.414062 C 979.660156 447.394531 979.695312 447.371094 979.730469 447.347656 C 979.738281 447.339844 979.75 447.335938 979.757812 447.328125 C 979.785156 447.3125 979.8125 447.292969 979.839844 447.277344 C 979.851562 447.269531 979.863281 447.257812 979.878906 447.25 C 979.902344 447.234375 979.921875 447.21875 979.945312 447.203125 C 979.960938 447.195312 979.976562 447.183594 979.988281 447.175781 C 980.011719 447.160156 980.03125 447.144531 980.050781 447.128906 C 980.066406 447.117188 980.082031 447.109375 980.097656 447.097656 C 980.117188 447.082031 980.136719 447.066406 980.15625 447.050781 C 980.171875 447.039062 980.1875 447.03125 980.203125 447.019531 C 980.222656 447.003906 980.242188 446.988281 980.261719 446.972656 C 980.277344 446.960938 980.292969 446.949219 980.304688 446.9375 C 980.328125 446.921875 980.347656 446.90625 980.367188 446.886719 C 980.382812 446.878906 980.394531 446.867188 980.410156 446.855469 C 980.433594 446.835938 980.453125 446.820312 980.476562 446.800781 C 980.488281 446.789062 980.5 446.78125 980.511719 446.773438 C 980.542969 446.742188 980.578125 446.714844 980.609375 446.6875 C 980.832031 446.492188 981.035156 446.289062 981.226562 446.078125 C 981.28125 446.019531 981.335938 445.957031 981.386719 445.894531 C 981.4375 445.832031 981.492188 445.769531 981.539062 445.707031 C 981.574219 445.664062 981.609375 445.617188 981.640625 445.574219 C 981.800781 445.363281 981.949219 445.144531 982.082031 444.917969 C 982.121094 444.851562 982.160156 444.78125 982.199219 444.710938 C 982.238281 444.644531 982.273438 444.574219 982.308594 444.503906 C 982.34375 444.433594 982.378906 444.363281 982.414062 444.292969 C 982.445312 444.222656 982.476562 444.148438 982.507812 444.078125 C 982.585938 443.898438 982.65625 443.714844 982.71875 443.53125 C 982.742188 443.457031 982.765625 443.382812 982.789062 443.308594 C 982.808594 443.242188 982.828125 443.175781 982.84375 443.109375 C 982.96875 442.648438 983.046875 442.183594 983.082031 441.710938 C 983.082031 441.671875 983.085938 441.632812 983.085938 441.59375 C 983.089844 441.519531 983.09375 441.445312 983.097656 441.367188 C 983.097656 441.363281 983.097656 441.363281 983.097656 441.359375 C 983.101562 441.171875 983.097656 440.984375 983.085938 440.796875 C 983.089844 440.789062 983.085938 440.78125 983.085938 440.769531 Z M 951.882812 436.863281 L 952.039062 436.726562 C 952.542969 436.285156 953.167969 436.066406 953.792969 436.066406 C 954.53125 436.066406 955.269531 436.375 955.792969 436.972656 L 957.128906 438.496094 L 952.96875 442.140625 L 951.636719 440.617188 C 950.667969 439.511719 950.78125 437.828125 951.882812 436.863281 Z M 955.554688 442.742188 L 972.488281 461.785156 L 971.179688 462.929688 L 954.390625 443.761719 Z M 973.125 464.09375 L 976.234375 461.371094 L 977.296875 465.71875 Z M 974.109375 460.367188 L 957.175781 441.320312 L 958.550781 440.117188 L 975.339844 459.289062 Z M 974.109375 460.367188 " fill-opacity="1" fill-rule="nonzero"/></g><g clip-path="url(#fe2cbd7ae3)"><path fill="#e99643" d="M 1000.285156 412.71875 L 992.082031 410.867188 L 989.875 405.535156 L 994.363281 398.425781 C 994.710938 397.878906 994.628906 397.164062 994.171875 396.707031 L 988.089844 390.625 C 987.632812 390.164062 986.917969 390.085938 986.371094 390.433594 L 979.261719 394.921875 L 973.929688 392.714844 L 972.074219 384.511719 C 971.933594 383.878906 971.371094 383.429688 970.726562 383.429688 L 962.121094 383.429688 C 961.476562 383.429688 960.914062 383.878906 960.773438 384.511719 L 958.917969 392.714844 L 953.585938 394.921875 L 946.476562 390.429688 C 945.929688 390.085938 945.214844 390.164062 944.757812 390.621094 L 938.675781 396.707031 C 938.21875 397.164062 938.136719 397.878906 938.484375 398.425781 L 942.972656 405.535156 L 940.765625 410.867188 L 932.5625 412.71875 C 931.929688 412.863281 931.480469 413.421875 931.480469 414.070312 L 931.480469 422.675781 C 931.480469 423.320312 931.929688 423.882812 932.5625 424.023438 L 940.765625 425.875 L 942.972656 431.210938 L 938.484375 438.320312 C 938.136719 438.867188 938.21875 439.582031 938.675781 440.039062 L 944.757812 446.121094 C 945.214844 446.578125 945.929688 446.65625 946.476562 446.3125 L 949.039062 444.695312 C 949.6875 444.285156 949.878906 443.429688 949.46875 442.785156 C 949.0625 442.140625 948.207031 441.945312 947.5625 442.355469 L 945.933594 443.382812 L 941.414062 438.863281 L 945.695312 432.082031 C 945.9375 431.699219 945.976562 431.226562 945.804688 430.8125 L 943.046875 424.15625 C 942.875 423.738281 942.511719 423.433594 942.074219 423.335938 L 934.25 421.566406 L 934.25 415.175781 L 942.074219 413.410156 C 942.511719 413.308594 942.875 413.003906 943.046875 412.589844 L 945.804688 405.933594 C 945.976562 405.515625 945.9375 405.042969 945.695312 404.664062 L 941.414062 397.882812 L 945.933594 393.363281 L 952.714844 397.644531 C 953.09375 397.886719 953.566406 397.925781 953.984375 397.753906 L 960.640625 394.996094 C 961.054688 394.824219 961.359375 394.460938 961.460938 394.023438 L 963.226562 386.199219 L 969.617188 386.199219 L 971.386719 394.023438 C 971.484375 394.460938 971.792969 394.824219 972.207031 394.996094 L 978.863281 397.753906 C 979.277344 397.925781 979.75 397.886719 980.132812 397.644531 L 986.914062 393.363281 L 991.433594 397.882812 L 987.152344 404.664062 C 986.910156 405.042969 986.871094 405.515625 987.042969 405.933594 L 989.800781 412.589844 C 989.972656 413.003906 990.335938 413.308594 990.773438 413.410156 L 998.597656 415.175781 L 998.597656 421.566406 L 990.773438 423.335938 C 990.335938 423.433594 989.972656 423.742188 989.800781 424.15625 L 987.042969 430.8125 C 986.871094 431.226562 986.910156 431.699219 987.152344 432.082031 L 991.433594 438.863281 L 986.914062 443.382812 L 985.988281 442.800781 C 985.34375 442.390625 984.488281 442.585938 984.082031 443.230469 C 983.671875 443.875 983.867188 444.730469 984.511719 445.140625 L 986.371094 446.3125 C 986.597656 446.457031 986.855469 446.527344 987.109375 446.527344 C 987.46875 446.527344 987.820312 446.386719 988.089844 446.121094 L 994.171875 440.039062 C 994.628906 439.582031 994.710938 438.867188 994.363281 438.320312 L 989.875 431.210938 L 992.082031 425.875 L 1000.285156 424.023438 C 1000.917969 423.882812 1001.363281 423.320312 1001.363281 422.675781 L 1001.363281 414.070312 C 1001.363281 413.421875 1000.917969 412.863281 1000.285156 412.71875 Z M 1000.285156 412.71875 " fill-opacity="1" fill-rule="nonzero"/></g><path fill="#e99643" d="M 960.316406 432.828125 C 962.25 433.644531 964.304688 434.0625 966.421875 434.0625 C 968.539062 434.0625 970.59375 433.644531 972.53125 432.828125 C 974.398438 432.039062 976.078125 430.90625 977.515625 429.464844 C 978.957031 428.027344 980.089844 426.347656 980.878906 424.480469 C 981.699219 422.542969 982.113281 420.488281 982.113281 418.371094 C 982.113281 416.253906 981.699219 414.199219 980.878906 412.265625 C 980.089844 410.398438 978.957031 408.71875 977.515625 407.277344 C 976.078125 405.839844 974.398438 404.707031 972.53125 403.917969 C 970.59375 403.097656 968.539062 402.683594 966.421875 402.683594 C 964.304688 402.683594 962.25 403.097656 960.316406 403.917969 C 958.449219 404.707031 956.769531 405.839844 955.328125 407.277344 C 953.890625 408.71875 952.757812 410.398438 951.96875 412.265625 C 951.148438 414.199219 950.734375 416.253906 950.734375 418.371094 C 950.734375 420.488281 951.148438 422.542969 951.96875 424.480469 C 952.757812 426.347656 953.890625 428.027344 955.328125 429.464844 C 956.769531 430.90625 958.449219 432.039062 960.316406 432.828125 Z M 957.285156 409.234375 C 959.726562 406.792969 962.972656 405.449219 966.421875 405.449219 C 969.875 405.449219 973.121094 406.792969 975.558594 409.234375 C 978 411.675781 979.34375 414.921875 979.34375 418.371094 C 979.34375 421.824219 978 425.070312 975.558594 427.507812 C 973.121094 429.949219 969.875 431.292969 966.421875 431.292969 C 962.972656 431.292969 959.726562 429.949219 957.285156 427.507812 C 954.847656 425.070312 953.5 421.824219 953.5 418.371094 C 953.5 414.921875 954.847656 411.675781 957.285156 409.234375 Z M 957.285156 409.234375 " fill-opacity="1" fill-rule="nonzero"/><g clip-path="url(#a434f8b2ea)"><path fill="#e99643" d="M 183.753906 575.773438 C 176.484375 575.789062 170.082031 575.121094 163.796875 573.34375 C 161.703125 572.753906 160.988281 571.996094 160.714844 569.871094 C 159.503906 560.460938 158.226562 551.050781 157.089844 541.609375 C 156.085938 533.128906 155.238281 524.628906 154.296875 516.128906 C 153.734375 511.03125 153.160156 505.914062 152.613281 500.816406 C 152.507812 499.875 152.019531 499.433594 151.140625 499.296875 C 150.851562 499.253906 150.5625 499.175781 150.289062 499.101562 C 148.589844 498.585938 147.816406 497.691406 147.785156 495.929688 C 147.753906 494.699219 147.832031 493.457031 148 492.226562 C 148.226562 490.859375 148.941406 489.84375 150.335938 489.707031 C 152.460938 489.496094 153.144531 488.21875 153.371094 486.351562 C 153.523438 485.0625 153.828125 483.789062 154.097656 482.527344 C 154.417969 481.039062 155.296875 480.128906 156.847656 479.871094 C 164.964844 478.476562 173.132812 477.730469 181.371094 477.429688 C 189.917969 477.125 198.386719 478.035156 206.898438 478.414062 C 207.808594 478.476562 208.707031 478.65625 209.570312 478.960938 C 210.996094 479.402344 211.878906 480.359375 212.257812 481.785156 C 212.621094 483.242188 212.894531 484.714844 213.0625 486.199219 C 213.378906 488.660156 213.773438 489.085938 216.171875 489.585938 C 217.175781 489.796875 217.691406 490.449219 217.871094 491.375 C 218.128906 492.679688 218.222656 494.03125 218.144531 495.351562 C 218.085938 496.550781 217.460938 497.644531 216.460938 498.296875 C 215.277344 499.101562 214.804688 500.179688 214.640625 501.558594 C 213.757812 509.148438 212.832031 516.738281 211.894531 524.308594 C 210.921875 532.140625 209.859375 539.972656 208.855469 547.804688 C 207.917969 555.117188 206.960938 562.449219 206.078125 569.777344 C 205.867188 571.617188 204.972656 572.617188 203.242188 573.164062 C 196.640625 575.242188 189.824219 575.5 183.753906 575.773438 Z M 181.433594 519.074219 C 181.628906 519.074219 181.828125 519.074219 182.023438 519.074219 C 190.492188 518.90625 198.902344 518.070312 207.324219 517.253906 C 210.707031 516.917969 210.175781 517.402344 210.664062 514.035156 C 211.285156 509.695312 212 505.367188 212.410156 500.984375 C 212.53125 499.648438 212.558594 499.648438 211.210938 499.890625 C 207.171875 500.605469 203.105469 501.132812 199.039062 501.558594 C 190.707031 502.425781 182.359375 502.757812 173.996094 502.320312 C 167.957031 502.015625 161.929688 501.332031 155.980469 500.269531 C 155.222656 500.132812 154.917969 500.207031 155.023438 501.105469 C 155.542969 505.460938 156.011719 509.832031 156.480469 514.1875 C 156.605469 515.265625 157.136719 516.007812 158.199219 516.296875 C 159.546875 516.660156 160.882812 517.054688 162.25 517.359375 C 168.5625 518.800781 174.984375 519.148438 181.433594 519.074219 Z M 182.480469 573.558594 C 188.550781 573.511719 194.605469 572.90625 200.570312 571.722656 C 203.226562 571.207031 203.925781 570.523438 204.320312 567.867188 C 205.140625 562.296875 205.808594 556.710938 206.429688 551.125 C 206.519531 550.351562 206.214844 550.351562 205.625 550.472656 C 199.386719 551.792969 193.105469 552.8125 186.714844 553.207031 C 178.046875 553.738281 169.488281 553.054688 161.140625 550.550781 C 160.09375 550.230469 160.019531 550.292969 160.183594 551.398438 C 161.019531 557.167969 161.871094 562.917969 162.71875 568.671875 C 162.949219 570.171875 163.949219 571.113281 165.269531 571.449219 C 171.097656 572.890625 177.03125 573.605469 182.480469 573.558594 Z M 213.667969 491.605469 C 213.5625 491.390625 213.363281 491.238281 213.121094 491.210938 C 211.742188 490.859375 211.226562 489.859375 211.074219 488.554688 C 210.980469 487.75 210.832031 486.945312 210.785156 486.125 C 210.738281 485.410156 210.496094 485.183594 209.753906 485.320312 C 208.449219 485.5625 207.113281 485.683594 205.792969 485.882812 C 196.671875 487.308594 187.519531 488.023438 178.292969 487.628906 C 171.25 487.308594 164.222656 486.535156 157.273438 485.335938 C 155.921875 485.109375 155.84375 485.199219 155.601562 486.503906 C 155.253906 488.417969 155.34375 490.527344 153.171875 491.742188 C 154.753906 492.5 156.285156 492.816406 157.800781 493.121094 C 163.507812 494.230469 169.277344 494.625 175.058594 494.789062 C 185.863281 495.125 196.65625 495.035156 207.371094 493.332031 C 209.539062 493.03125 211.664062 492.589844 213.667969 491.605469 Z M 183.875 546.4375 C 184.074219 546.195312 184.226562 546.027344 184.347656 545.84375 C 185.757812 543.707031 187.367188 541.6875 189.15625 539.851562 C 190.84375 538.089844 192.816406 536.648438 194.484375 534.859375 C 196.214844 532.992188 196.65625 530.882812 195.667969 528.558594 C 194.636719 526.144531 192.710938 524.855469 190.082031 524.628906 C 187.730469 524.414062 185.925781 525.464844 184.390625 527.085938 C 183.859375 527.648438 183.496094 527.601562 182.921875 527.207031 C 181.796875 526.433594 180.6875 525.628906 179.429688 525.082031 C 177.289062 524.171875 175.242188 524.292969 173.359375 525.722656 C 171.476562 527.148438 171.082031 529.074219 171.417969 531.289062 C 171.8125 533.855469 173.3125 535.660156 175.300781 537.132812 C 178.714844 539.667969 181.949219 542.386719 183.875 546.4375 Z M 210.054688 482.390625 C 209.117188 481.722656 208.296875 481.253906 207.277344 481.164062 C 205.851562 481.039062 204.441406 480.8125 203.015625 480.691406 C 194.226562 479.933594 185.425781 479.582031 176.605469 479.828125 C 171.402344 479.964844 166.210938 480.28125 161.082031 481.117188 C 159.59375 481.359375 158.136719 481.769531 156.800781 482.558594 C 157.011719 482.9375 157.332031 482.921875 157.605469 482.984375 C 159.609375 483.542969 161.65625 483.941406 163.722656 484.183594 C 177.136719 485.820312 190.570312 485.914062 203.96875 483.984375 C 206.066406 483.710938 208.113281 483.164062 210.054688 482.390625 Z M 181.296875 500.269531 C 183.859375 500.285156 186.425781 500.222656 188.992188 500.101562 C 197.398438 499.722656 205.777344 498.722656 214.046875 497.128906 C 214.503906 497.066406 214.929688 496.886719 215.308594 496.628906 C 216.082031 496.019531 215.992188 495.15625 215.761719 494.382812 C 215.535156 493.578125 214.851562 494.125 214.441406 494.199219 C 206.351562 495.6875 198.203125 496.734375 189.976562 497.160156 C 180.917969 497.644531 171.824219 497.324219 162.828125 496.1875 C 158.894531 495.6875 154.996094 494.972656 151.109375 494.183594 C 150.472656 494.046875 150.261719 494.167969 150.152344 494.820312 C 149.910156 496.339844 150.136719 496.671875 151.898438 497.082031 C 161.566406 499.28125 171.355469 500.4375 181.296875 500.269531 Z M 181.296875 500.269531 " fill-opacity="1" fill-rule="nonzero"/></g><g clip-path="url(#6f9f7fda6f)"><path fill="#e99643" d="M 166.332031 466.167969 C 166.269531 464.5 167.195312 463.496094 168.441406 462.738281 C 169.277344 462.238281 170.1875 461.855469 171.023438 461.371094 C 172.585938 460.429688 173.144531 459.066406 172.707031 457.289062 C 172.175781 455.210938 171.082031 453.402344 169.960938 451.597656 C 168.578125 449.472656 169.140625 446.636719 171.234375 445.207031 C 171.445312 445.058594 171.675781 444.921875 171.902344 444.8125 C 172.34375 444.632812 172.84375 444.511719 173.175781 444.890625 C 173.570312 445.328125 173.144531 445.738281 172.886719 446.089844 C 172.644531 446.390625 172.386719 446.679688 172.113281 446.953125 C 170.808594 448.363281 170.703125 449.125 171.75 450.761719 C 172.601562 452.082031 173.375 453.417969 173.921875 454.890625 C 174.070312 455.285156 174.238281 455.679688 174.359375 456.074219 C 175.4375 459.535156 174.34375 462.039062 171.082031 463.617188 C 170.519531 463.890625 169.945312 464.132812 169.429688 464.4375 C 168.214844 465.164062 167.972656 466.0625 168.652344 467.320312 C 169.078125 468.09375 169.65625 468.746094 170.21875 469.429688 C 171.050781 470.433594 171.855469 471.449219 172.738281 472.40625 C 173.238281 472.953125 173.039062 473.179688 172.480469 473.4375 C 171.917969 473.695312 171.308594 473.832031 170.886719 473.253906 C 169.703125 471.632812 168.046875 470.386719 167.089844 468.582031 C 166.679688 467.804688 166.285156 467.015625 166.332031 466.167969 Z M 166.332031 466.167969 " fill-opacity="1" fill-rule="nonzero"/></g><path fill="#e99643" d="M 183.953125 456.773438 C 183.832031 457.972656 183.058594 459.035156 182.085938 459.976562 C 181.601562 460.445312 181.023438 460.839844 180.550781 461.324219 C 179.339844 462.539062 179.277344 463.496094 180.355469 464.832031 C 180.839844 465.4375 181.265625 466.089844 181.628906 466.789062 C 183.070312 469.535156 181.78125 472.070312 179.792969 473.800781 C 179.1875 474.316406 178.882812 473.574219 178.488281 473.359375 C 178.019531 473.101562 178.277344 472.785156 178.488281 472.480469 C 178.882812 471.933594 179.308594 471.386719 179.65625 470.796875 C 180.660156 469.128906 180.566406 468.15625 179.324219 466.636719 C 179.050781 466.320312 178.777344 466 178.519531 465.652344 C 177.199219 463.832031 177.320312 461.855469 178.882812 460.265625 C 179.703125 459.429688 180.597656 458.683594 181.402344 457.835938 C 182.28125 456.910156 182.191406 456.289062 181.160156 455.511719 C 180.871094 455.300781 180.550781 455.117188 180.324219 454.859375 C 180.097656 454.601562 179.761719 454.253906 179.976562 453.828125 C 180.171875 453.449219 180.566406 453.359375 180.976562 453.34375 C 182.511719 453.28125 183.996094 454.875 183.953125 456.773438 Z M 183.953125 456.773438 " fill-opacity="1" fill-rule="nonzero"/><path fill="#e99643" d="M 250.894531 381.589844 C 254.90625 378.804688 259.757812 376.734375 265.261719 375.566406 C 257.972656 374.855469 250.253906 376.8125 244.433594 379.800781 C 232.605469 385.875 225.042969 397.972656 222.082031 414.566406 C 220.394531 424.019531 223.074219 433.777344 225.441406 442.382812 C 226.75 447.132812 227.820312 451.71875 228.035156 455.144531 C 228.238281 458.355469 227.300781 461.238281 226.390625 464.027344 C 225.496094 466.785156 224.644531 469.390625 224.8125 472.292969 C 225.203125 479.0625 229.375 486.40625 235.246094 488.949219 C 237.675781 489.289062 240.125 488.847656 242.640625 487.109375 C 246.609375 484.363281 247.203125 479.449219 246.71875 474.980469 C 245.652344 465.1875 237.902344 457.726562 234.191406 448.953125 C 231.511719 442.605469 230.445312 435.675781 230.042969 428.832031 C 229.59375 421.269531 229.28125 413.609375 231.644531 406.304688 C 235.035156 395.835938 241.988281 387.765625 250.894531 381.589844 " fill-opacity="1" fill-rule="nonzero"/><path fill="#e99643" d="M 305.125 454.515625 C 305.316406 447.570312 307.722656 440.976562 309.261719 434.269531 C 310.886719 427.1875 310.855469 420.277344 309.191406 413.195312 C 306.277344 400.769531 298.734375 388.699219 285.683594 385.238281 C 279.773438 383.667969 273.398438 383.59375 267.371094 384.429688 C 265.808594 384.644531 264.230469 384.914062 262.660156 385.234375 C 264.804688 385.828125 267.523438 385.882812 268.777344 385.882812 C 276.140625 385.882812 298.125 387.894531 300.242188 413.480469 C 301.335938 426.675781 299.847656 436.375 298.011719 445.464844 C 297.792969 446.542969 297.347656 448.675781 297.347656 448.675781 L 299.625 488.914062 C 299.625 488.914062 301.980469 488.769531 303.125 487.957031 C 304.683594 486.683594 306.378906 485.28125 307.363281 482.265625 C 307.90625 480.757812 308.324219 479.199219 308.625 477.601562 C 309.304688 473.964844 309.828125 469.492188 308.933594 465.847656 C 308.011719 462.105469 305.015625 458.457031 305.125 454.515625 " fill-opacity="1" fill-rule="nonzero"/><g clip-path="url(#019a76312d)"><path fill="#e99643" d="M 243.859375 446.726562 C 242.34375 447.011719 240.917969 447.550781 239.601562 448.308594 C 239.894531 449.015625 240.148438 451.601562 242.164062 454.769531 C 244.410156 458.304688 248.488281 462.660156 249.867188 468.003906 C 250.863281 471.867188 250.84375 476.558594 250.132812 480.523438 C 248.445312 489.933594 238.449219 491.179688 238.222656 491.152344 C 242.492188 495.734375 247.921875 498.113281 253.289062 497.109375 C 263.238281 495.25 269.191406 482.460938 266.589844 468.546875 C 263.984375 454.636719 253.808594 444.867188 243.859375 446.726562 " fill-opacity="1" fill-rule="nonzero"/></g><path fill="#e99643" d="M 297.347656 448.675781 C 296.960938 448.414062 296.5625 448.171875 296.152344 447.953125 C 294.859375 447.257812 293.46875 446.773438 291.992188 446.535156 C 282.148438 444.929688 272.351562 454.792969 270.109375 468.558594 C 267.871094 482.324219 274.035156 494.785156 283.882812 496.386719 C 288.996094 497.21875 294.101562 494.953125 298.136719 490.65625 C 298.652344 490.105469 299.148438 489.527344 299.625 488.914062 C 302.613281 485.089844 304.835938 480.0625 305.761719 474.359375 C 307.5625 463.308594 303.941406 453.101562 297.347656 448.675781 " fill-opacity="1" fill-rule="nonzero"/><g clip-path="url(#6b29e51a91)"><path fill="#d9d9d9" d="M 310.964844 462.933594 C 310.738281 462.257812 310.496094 461.597656 310.257812 460.945312 C 309.398438 458.59375 308.585938 456.367188 308.6875 453.785156 C 308.816406 450.535156 309.757812 446.539062 310.847656 441.914062 C 312.820312 433.519531 315.28125 423.074219 313.296875 413.296875 C 310.433594 399.210938 304.4375 388.769531 295.472656 382.273438 C 288.042969 376.886719 278.511719 374.15625 267.148438 374.15625 C 258.558594 374.15625 250.90625 375.847656 244.410156 379.183594 C 232.179688 385.460938 224.4375 397.285156 221.394531 414.324219 C 219.652344 424.082031 222.5 434.433594 224.785156 442.75 C 226.070312 447.425781 227.179688 451.464844 227.390625 454.746094 C 227.578125 457.695312 226.71875 460.328125 225.8125 463.113281 C 224.914062 465.871094 223.984375 468.726562 224.164062 471.890625 C 224.589844 479.238281 228.390625 488.234375 235.742188 490.617188 C 236.523438 490.867188 237.378906 491.050781 238.21875 491.152344 C 238.703125 491.210938 239.183594 491.242188 239.636719 491.242188 C 240.148438 491.242188 240.625 491.203125 241.058594 491.128906 C 248.4375 489.878906 253.027344 480.554688 251.296875 470.34375 C 250.511719 465.699219 248.511719 461.46875 245.683594 458.445312 C 243.253906 455.601562 241.222656 452.203125 239.601562 448.308594 C 235.816406 439.214844 234.265625 427.386719 235.09375 413.386719 C 236.609375 387.679688 262.160156 386.378906 267.265625 386.378906 C 274.332031 386.378906 297.554688 388.277344 299.574219 412.6875 C 300.769531 427.117188 299.617188 438.914062 296.152344 447.953125 C 296.558594 448.171875 296.960938 448.414062 297.347656 448.675781 C 300.957031 439.414062 302.171875 427.328125 300.949219 412.570312 C 298.832031 386.980469 274.632812 384.992188 267.265625 384.992188 C 266.011719 384.992188 264.441406 385.050781 262.660156 385.234375 C 257.933594 385.726562 251.734375 387.121094 246.117188 390.777344 C 238.476562 395.753906 234.304688 403.332031 233.714844 413.304688 C 232.511719 433.660156 236.289062 449.578125 244.625 459.328125 L 244.664062 459.375 C 247.320312 462.214844 249.195312 466.191406 249.9375 470.574219 C 251.539062 480.035156 247.457031 488.644531 240.828125 489.769531 C 239.546875 489.984375 237.6875 489.792969 236.167969 489.304688 C 235.855469 489.203125 235.546875 489.082031 235.246094 488.949219 C 229.375 486.40625 225.933594 478.578125 225.542969 471.8125 C 225.378906 468.90625 226.226562 466.300781 227.125 463.542969 C 228.03125 460.753906 228.96875 457.871094 228.765625 454.660156 C 228.550781 451.234375 227.421875 447.132812 226.117188 442.382812 C 223.75 433.777344 221.066406 424.019531 222.753906 414.566406 C 225.714844 397.976562 233.214844 386.484375 245.039062 380.410156 C 250.863281 377.421875 257.660156 375.796875 265.261719 375.566406 C 265.886719 375.546875 266.511719 375.535156 267.148438 375.535156 C 291.746094 375.535156 306.820312 388.332031 311.945312 413.574219 C 313.867188 423.050781 311.550781 432.90625 309.503906 441.597656 C 308.398438 446.292969 307.445312 450.347656 307.308594 453.730469 C 307.195312 456.585938 308.054688 458.933594 308.964844 461.421875 C 309.195312 462.058594 309.433594 462.707031 309.65625 463.371094 C 309.820312 463.871094 309.972656 464.382812 310.109375 464.890625 C 310.886719 467.832031 311.082031 470.863281 310.675781 473.648438 C 309.8125 479.589844 306.953125 484.550781 303.265625 487.179688 C 302.121094 487.996094 300.898438 488.589844 299.625 488.914062 C 299.148438 489.523438 298.652344 490.105469 298.136719 490.65625 C 304.808594 490.136719 310.707031 483.082031 312.042969 473.894531 C 312.480469 470.886719 312.277344 467.703125 311.441406 464.539062 C 311.300781 464 311.140625 463.460938 310.964844 462.933594 " fill-opacity="1" fill-rule="nonzero"/></g><path fill="#d9d9d9" d="M 289.867188 471.554688 C 290.960938 465.976562 288.96875 460.742188 285.414062 459.859375 C 281.863281 458.980469 278.09375 462.789062 277 468.371094 C 275.902344 473.949219 277.894531 479.183594 281.449219 480.0625 C 285 480.945312 288.769531 477.132812 289.867188 471.554688 " fill-opacity="1" fill-rule="nonzero"/><path fill="#d9d9d9" d="M 290.382812 447.960938 C 290.171875 447.816406 289.886719 447.867188 289.742188 448.078125 C 289.597656 448.289062 289.652344 448.574219 289.859375 448.71875 C 296.078125 452.988281 299.160156 462.574219 297.527344 472.578125 C 295.746094 483.546875 288.660156 492.207031 280.679688 493.171875 C 280.425781 493.203125 280.246094 493.433594 280.277344 493.683594 C 280.304688 493.917969 280.503906 494.089844 280.734375 494.089844 C 280.753906 494.089844 280.769531 494.089844 280.789062 494.085938 C 289.167969 493.074219 296.589844 484.089844 298.4375 472.726562 C 300.121094 462.378906 296.886719 452.429688 290.382812 447.960938 " fill-opacity="1" fill-rule="nonzero"/><path fill="#d9d9d9" d="M 244.289062 448.890625 C 244.042969 448.820312 243.789062 448.964844 243.71875 449.210938 C 243.652344 449.453125 243.792969 449.710938 244.039062 449.777344 C 251.296875 451.828125 257.289062 459.921875 258.953125 469.914062 C 260.785156 480.878906 256.851562 491.355469 249.601562 494.828125 C 249.371094 494.9375 249.277344 495.210938 249.386719 495.441406 C 249.464844 495.605469 249.628906 495.703125 249.800781 495.703125 C 249.867188 495.703125 249.933594 495.6875 250 495.65625 C 257.609375 492.011719 261.757812 481.121094 259.863281 469.765625 C 258.140625 459.425781 251.882812 451.039062 244.289062 448.890625 " fill-opacity="1" fill-rule="nonzero"/><path fill="#fbfefe" d="M 286.4375 462.316406 C 283.441406 462.164062 280.515625 465.445312 279.628906 469.957031 C 278.933594 473.507812 279.65625 477.058594 281.464844 478.992188 C 281.511719 479.042969 281.574219 479.066406 281.632812 479.066406 C 281.691406 479.066406 281.746094 479.046875 281.792969 479.003906 C 281.882812 478.917969 281.890625 478.773438 281.800781 478.679688 C 280.085938 476.847656 279.410156 473.457031 280.082031 470.042969 C 280.921875 465.757812 283.640625 462.636719 286.414062 462.777344 C 286.539062 462.789062 286.648438 462.6875 286.65625 462.558594 C 286.664062 462.433594 286.566406 462.324219 286.4375 462.316406 " fill-opacity="1" fill-rule="nonzero"/></svg>