<svg xmlns="http://www.w3.org/2000/svg" xmlns:xlink="http://www.w3.org/1999/xlink" width="500" zoomAndPan="magnify" viewBox="0 0 375 112.499997" height="150" preserveAspectRatio="xMidYMid meet" version="1.0"><defs><filter x="0%" y="0%" width="100%" height="100%" id="6735714558"><feColorMatrix values="0 0 0 0 1 0 0 0 0 1 0 0 0 0 1 0 0 0 1 0" color-interpolation-filters="sRGB"/></filter><clipPath id="44be0a61c3"><path d="M 0.828125 0 L 374.167969 0 L 374.167969 112.003906 L 0.828125 112.003906 Z M 0.828125 0 " clip-rule="nonzero"/></clipPath><clipPath id="108c51adee"><path d="M 149 27.570312 L 252.042969 27.570312 L 252.042969 111.945312 L 149 111.945312 Z M 149 27.570312 " clip-rule="nonzero"/></clipPath><clipPath id="caa691ef0f"><path d="M 67.855469 30.925781 L 149.242188 30.925781 L 149.242188 105.59375 L 67.855469 105.59375 Z M 67.855469 30.925781 " clip-rule="nonzero"/></clipPath><mask id="9e810d3035"><g filter="url(#6735714558)"><rect x="-37.5" width="450" fill="#000000" y="-11.25" height="134.999996" fill-opacity="0.31"/></g></mask><clipPath id="339741d82b"><path d="M 45 0.925781 L 55 0.925781 L 55 8 L 45 8 Z M 45 0.925781 " clip-rule="nonzero"/></clipPath><clipPath id="4f9142b147"><path d="M 45 18 L 82.210938 18 L 82.210938 75.59375 L 45 75.59375 Z M 45 18 " clip-rule="nonzero"/></clipPath><clipPath id="9d059376f4"><path d="M 0.855469 0.925781 L 67 0.925781 L 67 41 L 0.855469 41 Z M 0.855469 0.925781 " clip-rule="nonzero"/></clipPath><clipPath id="ab1969d114"><rect x="0" width="83" y="0" height="76"/></clipPath><clipPath id="d752f54027"><path d="M 88 60.871094 L 173 60.871094 L 173 111.644531 L 88 111.644531 Z M 88 60.871094 " clip-rule="nonzero"/></clipPath><clipPath id="218469e001"><path d="M 260.1875 67.660156 L 283.335938 67.660156 L 283.335938 111.714844 L 260.1875 111.714844 Z M 260.1875 67.660156 " clip-rule="nonzero"/></clipPath><clipPath id="4c9ecda4a4"><path d="M 179.75 53 L 193 53 L 193 76 L 179.75 76 Z M 179.75 53 " clip-rule="nonzero"/></clipPath><clipPath id="d3e1c95711"><path d="M 209 53 L 221.527344 53 L 221.527344 76 L 209 76 Z M 209 53 " clip-rule="nonzero"/></clipPath><clipPath id="6994cade7e"><path d="M 194 49.742188 L 208 49.742188 L 208 78.449219 L 194 78.449219 Z M 194 49.742188 " clip-rule="nonzero"/></clipPath><clipPath id="2a40f12172"><path d="M 178.851562 48.847656 L 222.160156 48.847656 L 222.160156 79.34375 L 178.851562 79.34375 Z M 178.851562 48.847656 " clip-rule="nonzero"/></clipPath><clipPath id="749d21d0b1"><path d="M 273 79.347656 L 279.703125 79.347656 L 279.703125 99.507812 L 273 99.507812 Z M 273 79.347656 " clip-rule="nonzero"/></clipPath><clipPath id="590970f0a3"><path d="M 264.023438 79.347656 L 271 79.347656 L 271 99.507812 L 264.023438 99.507812 Z M 264.023438 79.347656 " clip-rule="nonzero"/></clipPath><clipPath id="2625a6c387"><path d="M 276 47 L 288 47 L 288 57.484375 L 276 57.484375 Z M 276 47 " clip-rule="nonzero"/></clipPath><clipPath id="e422a80a08"><path d="M 271.933594 32.84375 L 292.09375 32.84375 L 292.09375 52 L 271.933594 52 Z M 271.933594 32.84375 " clip-rule="nonzero"/></clipPath><clipPath id="4501886425"><path d="M 59.578125 83 L 79.738281 83 L 79.738281 111.894531 L 59.578125 111.894531 Z M 59.578125 83 " clip-rule="nonzero"/></clipPath><clipPath id="14f9d795a9"><path d="M 64 73.816406 L 68 73.816406 L 68 83 L 64 83 Z M 64 73.816406 " clip-rule="nonzero"/></clipPath><clipPath id="6c6d2f62a8"><path d="M 85.285156 60 L 99 60 L 99 94 L 85.285156 94 Z M 85.285156 60 " clip-rule="nonzero"/></clipPath><clipPath id="b46728d18c"><path d="M 90 80 L 99 80 L 99 95.628906 L 90 95.628906 Z M 90 80 " clip-rule="nonzero"/></clipPath><clipPath id="bfd3579b4c"><path d="M 99 80 L 111 80 L 111 95.628906 L 99 95.628906 Z M 99 80 " clip-rule="nonzero"/></clipPath><clipPath id="9f1ca0d4ad"><path d="M 85.4375 59.789062 L 112.164062 59.789062 L 112.164062 93.722656 L 85.4375 93.722656 Z M 85.4375 59.789062 " clip-rule="nonzero"/></clipPath></defs><g clip-path="url(#44be0a61c3)"><path fill="#ffffff" d="M 0.828125 0 L 374.171875 0 L 374.171875 112.003906 L 0.828125 112.003906 Z M 0.828125 0 " fill-opacity="1" fill-rule="nonzero"/><path fill="#ffffff" d="M 0.828125 0 L 374.171875 0 L 374.171875 112.003906 L 0.828125 112.003906 Z M 0.828125 0 " fill-opacity="1" fill-rule="nonzero"/></g><g clip-path="url(#108c51adee)"><path fill="#e99643" d="M 152.359375 29.847656 L 248.878906 29.847656 C 249.382812 29.835938 249.792969 30.238281 249.800781 30.742188 C 249.800781 30.742188 249.800781 30.75 249.800781 30.761719 L 249.800781 91.34375 C 249.800781 91.84375 249.398438 92.257812 248.898438 92.257812 C 248.886719 92.257812 248.886719 92.257812 248.878906 92.257812 L 152.359375 92.257812 C 151.867188 92.265625 151.445312 91.863281 151.4375 91.359375 C 151.4375 91.359375 151.4375 91.351562 151.4375 91.34375 L 151.4375 30.761719 C 151.4375 30.257812 151.847656 29.847656 152.339844 29.847656 C 152.351562 29.847656 152.359375 29.847656 152.359375 29.847656 Z M 151.417969 27.582031 C 150.175781 27.597656 149.1875 28.613281 149.1875 29.847656 L 149.1875 96.96875 C 149.1875 98.210938 150.175781 99.21875 151.417969 99.246094 L 193.054688 99.246094 L 193.054688 106.414062 C 193.054688 106.917969 192.652344 107.328125 192.152344 107.328125 C 192.140625 107.328125 192.132812 107.328125 192.125 107.328125 L 187.117188 107.328125 C 184.933594 107.347656 183.050781 108.84375 182.53125 110.964844 C 182.414062 111.449219 182.714844 111.941406 183.199219 112.0625 C 183.273438 112.078125 183.34375 112.089844 183.417969 112.089844 L 217.882812 112.089844 C 218.386719 112.089844 218.789062 111.675781 218.789062 111.175781 C 218.789062 111.101562 218.777344 111.027344 218.769531 110.964844 C 218.25 108.828125 216.320312 107.320312 214.121094 107.328125 L 209.113281 107.328125 C 208.621094 107.3125 208.226562 106.910156 208.226562 106.414062 L 208.226562 99.246094 L 249.8125 99.246094 C 251.0625 99.253906 252.085938 98.238281 252.105469 96.988281 C 252.105469 96.988281 252.105469 96.980469 252.105469 96.96875 L 252.105469 29.847656 C 252.09375 28.59375 251.082031 27.582031 249.828125 27.582031 C 249.820312 27.582031 249.820312 27.582031 249.8125 27.582031 L 151.417969 27.582031 " fill-opacity="1" fill-rule="nonzero"/></g><g clip-path="url(#caa691ef0f)"><g mask="url(#9e810d3035)"><g transform="matrix(1, 0, 0, 1, 67, 30)"><g clip-path="url(#ab1969d114)"><path fill="#e99643" d="M 44.796875 56.136719 L 35.496094 53.644531 L 28.683594 60.453125 L 31.179688 69.757812 L 40.480469 72.25 L 47.292969 65.4375 Z M 40.367188 71.828125 L 31.488281 69.449219 L 29.109375 60.566406 L 35.609375 54.066406 L 44.488281 56.445312 L 46.867188 65.328125 Z M 40.367188 71.828125 " fill-opacity="1" fill-rule="nonzero"/><g clip-path="url(#339741d82b)"><path fill="#e99643" d="M 53.824219 0.957031 L 53.433594 0.957031 L 54.285156 4.132812 L 51.070312 7.351562 L 46.675781 6.175781 L 45.5 1.789062 L 46.324219 0.957031 L 45.792969 0.957031 L 45.078125 1.667969 L 46.363281 6.484375 L 51.179688 7.769531 L 54.703125 4.246094 Z M 53.824219 0.957031 " fill-opacity="1" fill-rule="nonzero"/></g><g clip-path="url(#4f9142b147)"><path fill="#e99643" d="M 75.5625 47.230469 L 71.382812 35.65625 L 74.75 32.292969 L 73.515625 27.691406 L 77.363281 23.84375 L 79.953125 24.535156 L 82.003906 22.488281 L 81.253906 19.6875 L 78.453125 18.9375 L 76.402344 20.984375 L 77.09375 23.574219 L 73.246094 27.421875 L 68.644531 26.191406 L 65.117188 29.710938 L 66.351562 34.316406 L 61.265625 39.398438 L 52.175781 36.964844 L 45.363281 43.773438 L 47.855469 53.078125 L 57.160156 55.570312 L 63.96875 48.757812 L 61.535156 39.667969 L 66.621094 34.582031 L 71.019531 35.765625 L 75.199219 47.339844 L 71.835938 50.703125 L 73.070312 55.304688 L 62.8125 65.5625 L 58.207031 64.328125 L 54.683594 67.851562 L 55.96875 72.664062 L 60.785156 73.953125 L 64.160156 70.582031 L 71.757812 72.308594 L 72.449219 74.890625 L 75.25 75.640625 L 77.300781 73.59375 L 76.546875 70.792969 L 73.75 70.042969 L 71.851562 71.941406 L 64.25 70.214844 L 63.074219 65.824219 L 73.332031 55.566406 L 77.9375 56.800781 L 81.460938 53.277344 L 80.175781 48.464844 Z M 76.820312 21.097656 L 78.5625 19.359375 L 80.941406 19.996094 L 81.578125 22.371094 L 79.835938 24.113281 L 77.460938 23.476562 Z M 63.550781 48.648438 L 57.050781 55.148438 L 48.167969 52.769531 L 45.789062 43.890625 L 52.289062 37.386719 L 61.171875 39.769531 Z M 66.71875 34.21875 L 65.542969 29.828125 L 68.753906 26.609375 L 73.144531 27.785156 L 74.320312 32.179688 L 71.105469 35.394531 Z M 73.867188 70.464844 L 76.246094 71.101562 L 76.882812 73.480469 L 75.140625 75.222656 L 72.761719 74.585938 L 72.125 72.207031 Z M 63.894531 70.320312 L 60.675781 73.535156 L 56.285156 72.355469 L 55.109375 67.96875 L 58.320312 64.746094 L 62.710938 65.925781 Z M 77.828125 56.382812 L 73.441406 55.207031 L 72.261719 50.816406 L 75.476562 47.601562 L 79.867188 48.777344 L 81.042969 53.167969 Z M 77.828125 56.382812 " fill-opacity="1" fill-rule="nonzero"/></g><g clip-path="url(#9d059376f4)"><path fill="#e99643" d="M 66.117188 18.875 L 63.316406 18.125 L 61.417969 20.027344 L 56.027344 18.890625 L 54.796875 14.292969 L 49.980469 13.007812 L 46.617188 16.375 L 38.910156 13.953125 L 36.472656 4.847656 L 27.367188 2.410156 L 26.773438 0.957031 L 26.363281 0.957031 L 27.003906 2.523438 L 20.363281 9.167969 L 22.796875 18.257812 L 16.757812 24.296875 L 7.664062 21.863281 L 0.855469 28.671875 L 3.351562 37.976562 L 12.65625 40.46875 L 19.464844 33.660156 L 17.023438 24.566406 L 23.066406 18.527344 L 31.964844 20.910156 L 35.972656 29.570312 L 34.089844 31.449219 L 34.84375 34.246094 L 37.640625 34.996094 L 39.691406 32.949219 L 38.941406 30.148438 L 36.332031 29.449219 L 32.328125 20.792969 L 38.804688 14.3125 L 46.507812 16.730469 L 47.746094 21.339844 L 52.558594 22.628906 L 55.933594 19.253906 L 61.324219 20.386719 L 62.015625 22.96875 L 64.816406 23.71875 L 66.863281 21.671875 Z M 19.039062 33.546875 L 12.535156 40.046875 L 3.65625 37.667969 L 1.277344 28.785156 L 7.78125 22.285156 L 16.660156 24.664062 Z M 38.632812 30.457031 L 39.269531 32.835938 L 37.527344 34.574219 L 35.152344 33.9375 L 34.515625 31.5625 L 36.253906 29.820312 Z M 32.042969 20.542969 L 23.164062 18.164062 L 20.78125 9.28125 L 27.285156 2.777344 L 36.164062 5.15625 L 38.542969 14.039062 Z M 52.449219 22.214844 L 48.058594 21.035156 L 46.882812 16.644531 L 50.097656 13.429688 L 54.488281 14.605469 L 55.664062 18.996094 Z M 64.707031 23.304688 L 62.328125 22.667969 L 61.691406 20.292969 L 63.433594 18.550781 L 65.8125 19.1875 L 66.449219 21.566406 Z M 12.503906 7.628906 L 16.027344 4.105469 L 15.183594 0.957031 L 14.792969 0.957031 L 15.605469 3.992188 L 12.390625 7.207031 L 8.003906 6.03125 L 6.820312 1.636719 L 7.503906 0.957031 L 6.96875 0.957031 L 6.398438 1.523438 L 7.683594 6.339844 Z M 12.503906 7.628906 " fill-opacity="1" fill-rule="nonzero"/></g></g></g></g></g><path fill="#e99643" d="M 88.394531 49.269531 L 83.582031 47.980469 L 80.054688 51.503906 L 81.34375 56.316406 L 86.15625 57.601562 L 89.6875 54.078125 Z M 86.046875 57.183594 L 81.660156 56.007812 L 80.484375 51.621094 L 83.699219 48.402344 L 88.085938 49.582031 L 89.265625 53.96875 Z M 86.046875 57.183594 " fill-opacity="1" fill-rule="nonzero"/><path fill="#e99643" d="M 125.914062 86.621094 L 122.386719 90.148438 L 123.675781 94.960938 L 128.488281 96.25 L 132.011719 92.722656 L 130.726562 87.910156 Z M 128.378906 95.828125 L 123.992188 94.652344 L 122.8125 90.261719 L 126.027344 87.046875 L 130.417969 88.226562 L 131.59375 92.613281 Z M 128.378906 95.828125 " fill-opacity="1" fill-rule="nonzero"/><path fill="#e99643" d="M 129.296875 76.589844 L 128.546875 73.792969 L 125.746094 73.042969 L 123.699219 75.09375 L 124.449219 77.890625 L 127.25 78.640625 Z M 124.757812 77.582031 L 124.117188 75.203125 L 125.859375 73.464844 L 128.234375 74.101562 L 128.871094 76.480469 L 127.132812 78.21875 Z M 124.757812 77.582031 " fill-opacity="1" fill-rule="nonzero"/><path fill="#e99643" d="M 86.789062 40.230469 L 88.839844 38.183594 L 88.089844 35.382812 L 85.289062 34.632812 L 83.238281 36.683594 L 83.988281 39.480469 Z M 85.402344 35.054688 L 87.777344 35.691406 L 88.417969 38.070312 L 86.675781 39.808594 L 84.296875 39.171875 L 83.660156 36.796875 Z M 85.402344 35.054688 " fill-opacity="1" fill-rule="nonzero"/><path fill="#e99643" d="M 140.992188 40.429688 L 143.042969 38.378906 L 142.292969 35.578125 L 139.492188 34.828125 L 137.445312 36.878906 L 138.195312 39.679688 Z M 139.605469 35.25 L 141.984375 35.886719 L 142.621094 38.265625 L 140.878906 40.007812 L 138.5 39.371094 L 137.863281 36.992188 Z M 139.605469 35.25 " fill-opacity="1" fill-rule="nonzero"/><path fill="#e99643" d="M 138.816406 91.949219 L 136.765625 93.996094 L 137.515625 96.796875 L 140.316406 97.546875 L 142.367188 95.496094 L 141.617188 92.699219 Z M 140.203125 97.125 L 137.824219 96.488281 L 137.1875 94.109375 L 138.929688 92.371094 L 141.304688 93.007812 L 141.941406 95.386719 Z M 140.203125 97.125 " fill-opacity="1" fill-rule="nonzero"/><path fill="#e99643" d="M 139.492188 73.042969 L 137.445312 75.09375 L 138.195312 77.890625 L 140.996094 78.640625 L 143.042969 76.589844 L 142.292969 73.792969 Z M 140.882812 78.21875 L 138.503906 77.582031 L 137.867188 75.203125 L 139.605469 73.464844 L 141.984375 74.101562 L 142.621094 76.480469 Z M 140.882812 78.21875 " fill-opacity="1" fill-rule="nonzero"/><path fill="#e99643" d="M 128.910156 49.667969 L 131.804688 46.773438 L 130.746094 42.816406 L 126.789062 41.757812 L 123.890625 44.652344 L 124.949219 48.609375 Z M 126.902344 42.175781 L 130.4375 43.125 L 131.382812 46.660156 L 128.796875 49.246094 L 125.261719 48.296875 L 124.316406 44.765625 Z M 126.902344 42.175781 " fill-opacity="1" fill-rule="nonzero"/><path fill="#e99643" d="M 137.683594 62.023438 L 140.003906 62.644531 L 141.699219 60.949219 L 141.078125 58.632812 L 138.761719 58.007812 L 137.214844 59.558594 L 132.867188 58.644531 L 131.867188 54.90625 L 127.910156 53.847656 L 125.175781 56.582031 L 118.949219 54.621094 L 116.964844 47.222656 L 109.554688 45.234375 L 107.292969 39.710938 L 110.019531 36.980469 L 108.960938 33.027344 L 105.007812 31.96875 L 102.109375 34.863281 L 103.113281 38.605469 L 99.070312 42.644531 L 95.324219 41.640625 L 92.429688 44.535156 L 93.488281 48.492188 L 97.445312 49.550781 L 100.339844 46.65625 L 99.339844 42.914062 L 103.378906 38.871094 L 106.925781 39.824219 L 109.191406 45.347656 L 103.789062 50.75 L 105.769531 58.144531 L 100.886719 63.03125 L 93.488281 61.050781 L 87.921875 66.617188 L 89.960938 74.226562 L 97.566406 76.265625 L 103.136719 70.695312 L 101.152344 63.300781 L 106.039062 58.414062 L 113.242188 60.34375 L 116.480469 67.355469 L 114.957031 68.878906 L 115.578125 71.195312 L 117.894531 71.816406 L 119.589844 70.121094 L 118.972656 67.800781 L 116.84375 67.230469 L 113.605469 60.226562 L 118.84375 54.988281 L 125.074219 56.945312 L 126.074219 60.695312 L 130.03125 61.753906 L 132.777344 59.007812 L 137.121094 59.925781 Z M 138.875 58.433594 L 140.765625 58.941406 L 141.273438 60.832031 L 139.886719 62.21875 L 137.992188 61.710938 L 137.484375 59.816406 Z M 99.921875 46.542969 L 97.328125 49.128906 L 93.796875 48.183594 L 92.851562 44.652344 L 95.4375 42.0625 L 98.972656 43.007812 Z M 103.476562 38.507812 L 102.53125 34.976562 L 105.117188 32.386719 L 108.648438 33.335938 L 109.597656 36.867188 L 107.007812 39.453125 Z M 102.710938 70.585938 L 97.453125 75.84375 L 90.269531 73.917969 L 88.34375 66.730469 L 93.601562 61.472656 L 100.789062 63.394531 Z M 118.660156 68.109375 L 119.167969 70.003906 L 117.78125 71.390625 L 115.890625 70.882812 L 115.382812 68.992188 L 116.769531 67.605469 Z M 113.320312 59.976562 L 106.136719 58.046875 L 104.210938 50.859375 L 109.46875 45.597656 L 116.652344 47.527344 L 118.578125 54.71875 Z M 129.917969 61.332031 L 126.386719 60.386719 L 125.441406 56.851562 L 128.023438 54.261719 L 131.558594 55.210938 L 132.503906 58.742188 Z M 129.917969 61.332031 " fill-opacity="1" fill-rule="nonzero"/><g clip-path="url(#d752f54027)"><path fill="#e99643" d="M 138.121094 107.777344 L 138.121094 109.09375 L 122.308594 109.09375 L 122.308594 107.777344 L 88.050781 107.777344 L 88.050781 108.304688 C 88.050781 109.09375 88.3125 110.148438 89.105469 110.941406 C 89.894531 111.730469 90.683594 111.992188 91.738281 111.992188 L 168.953125 111.992188 C 169.742188 111.992188 170.796875 111.730469 171.589844 110.941406 C 172.378906 110.148438 172.640625 109.359375 172.640625 108.304688 L 172.640625 107.777344 Z M 99.644531 110.148438 L 95.957031 110.148438 L 95.957031 109.621094 L 99.644531 109.621094 Z M 98.0625 106.460938 L 162.363281 106.460938 C 162.890625 106.460938 163.417969 106.195312 163.945312 105.667969 C 164.472656 105.140625 164.734375 104.613281 164.734375 104.089844 L 164.734375 63.242188 C 164.734375 62.714844 164.472656 62.1875 163.945312 61.660156 C 163.417969 61.132812 162.890625 60.871094 162.363281 60.871094 L 98.0625 60.871094 C 97.535156 60.871094 97.007812 61.132812 96.484375 61.660156 C 95.957031 61.921875 95.957031 62.449219 95.957031 63.242188 L 95.957031 104.351562 C 95.957031 104.878906 96.21875 105.40625 96.746094 105.933594 C 97.007812 106.195312 97.535156 106.460938 98.0625 106.460938 Z M 130.214844 61.921875 C 130.742188 61.921875 131.003906 62.1875 131.003906 62.714844 C 131.003906 63.242188 130.742188 63.503906 130.214844 63.503906 C 129.6875 63.503906 129.421875 63.242188 129.421875 62.714844 C 129.421875 62.1875 129.6875 61.921875 130.214844 61.921875 Z M 99.382812 64.558594 L 161.046875 64.558594 L 161.046875 103.035156 L 99.382812 103.035156 Z M 99.382812 64.558594 " fill-opacity="1" fill-rule="nonzero"/></g><g clip-path="url(#218469e001)"><path fill="#e99643" d="M 282.394531 107.578125 C 282.394531 108.96875 281.269531 110.097656 279.878906 110.097656 L 263.984375 110.097656 C 262.597656 110.097656 261.46875 108.96875 261.46875 107.578125 L 261.46875 71.4375 C 261.46875 70.046875 262.597656 68.921875 263.984375 68.921875 L 267.21875 68.921875 C 267.390625 68.921875 267.527344 69.058594 267.527344 69.230469 L 267.527344 69.390625 C 267.527344 70.023438 268.042969 70.535156 268.675781 70.535156 L 275.1875 70.535156 C 275.824219 70.535156 276.335938 70.023438 276.335938 69.390625 L 276.335938 69.230469 C 276.335938 69.058594 276.476562 68.921875 276.644531 68.921875 L 279.878906 68.921875 C 281.269531 68.921875 282.394531 70.046875 282.394531 71.4375 Z M 279.878906 67.660156 L 263.984375 67.660156 C 261.90625 67.660156 260.210938 69.355469 260.210938 71.4375 L 260.210938 107.578125 C 260.210938 109.660156 261.90625 111.355469 263.984375 111.355469 L 279.878906 111.355469 C 281.960938 111.355469 283.652344 109.660156 283.652344 107.578125 L 283.652344 71.4375 C 283.652344 69.355469 281.960938 67.660156 279.878906 67.660156 " fill-opacity="1" fill-rule="nonzero"/></g><g clip-path="url(#4c9ecda4a4)"><path fill="#e99643" d="M 189.898438 75.046875 C 189.253906 75.046875 188.824219 74.832031 188.394531 74.402344 L 179.800781 65.8125 C 178.945312 64.953125 178.945312 63.664062 179.800781 62.804688 L 188.394531 54.214844 C 189.253906 53.355469 190.539062 53.355469 191.398438 54.214844 C 192.257812 55.074219 192.257812 56.363281 191.398438 57.222656 L 184.3125 64.308594 L 191.398438 71.398438 C 192.257812 72.257812 192.257812 73.542969 191.398438 74.402344 C 190.96875 74.832031 190.539062 75.046875 189.898438 75.046875 Z M 189.898438 75.046875 " fill-opacity="1" fill-rule="nonzero"/></g><g clip-path="url(#d3e1c95711)"><path fill="#e99643" d="M 211.375 75.046875 C 210.730469 75.046875 210.300781 74.832031 209.871094 74.402344 C 209.011719 73.542969 209.011719 72.257812 209.871094 71.398438 L 216.957031 64.308594 L 209.871094 57.222656 C 209.011719 56.363281 209.011719 55.074219 209.871094 54.214844 C 210.730469 53.355469 212.019531 53.355469 212.878906 54.214844 L 221.46875 62.804688 C 222.328125 63.664062 222.328125 64.953125 221.46875 65.8125 L 212.878906 74.402344 C 212.449219 74.832031 212.019531 75.046875 211.375 75.046875 Z M 211.375 75.046875 " fill-opacity="1" fill-rule="nonzero"/></g><g clip-path="url(#6994cade7e)"><path fill="#e99643" d="M 196.339844 79.34375 C 196.125 79.34375 195.910156 79.34375 195.695312 79.128906 C 194.621094 78.699219 193.976562 77.625 194.40625 76.335938 L 202.996094 50.5625 C 203.425781 49.492188 204.5 48.847656 205.789062 49.277344 C 206.863281 49.707031 207.507812 50.777344 207.078125 52.066406 L 198.488281 77.839844 C 198.058594 78.699219 197.199219 79.34375 196.339844 79.34375 Z M 196.339844 79.34375 " fill-opacity="1" fill-rule="nonzero"/></g><g clip-path="url(#2a40f12172)"><path stroke-linecap="butt" transform="matrix(0.746681, 0, 0, 0.746681, 178.853073, 48.846246)" fill="none" stroke-linejoin="miter" d="M -0.00202321 0.00188857 L -0.00202321 40.844065 L 58.344694 40.844065 L 58.344694 0.00188857 L -0.00202321 0.00188857 " stroke="#e99643" stroke-width="2" stroke-opacity="1" stroke-miterlimit="4"/></g><g clip-path="url(#749d21d0b1)"><path fill="#e99643" d="M 274.191406 81.605469 L 273.625 81.605469 L 273.625 79.347656 L 274.191406 79.347656 C 276.0625 79.347656 277.578125 80.863281 277.578125 82.734375 L 277.578125 86.6875 C 277.578125 87.042969 277.746094 87.375 278.03125 87.589844 L 279.386719 88.605469 C 279.65625 88.808594 279.820312 89.121094 279.835938 89.460938 C 279.851562 89.800781 279.710938 90.128906 279.457031 90.351562 L 277.957031 91.683594 C 277.714844 91.898438 277.578125 92.207031 277.578125 92.53125 L 277.578125 96.28125 C 277.578125 98.152344 276.0625 99.671875 274.191406 99.671875 L 273.625 99.671875 L 273.625 97.414062 L 274.191406 97.414062 C 274.816406 97.414062 275.320312 96.90625 275.320312 96.28125 L 275.320312 92.53125 C 275.320312 91.5625 275.734375 90.640625 276.457031 89.996094 L 276.925781 89.582031 L 276.675781 89.394531 C 275.824219 88.753906 275.320312 87.75 275.320312 86.6875 L 275.320312 82.734375 C 275.320312 82.109375 274.816406 81.605469 274.191406 81.605469 Z M 274.191406 81.605469 " fill-opacity="1" fill-rule="evenodd"/></g><g clip-path="url(#590970f0a3)"><path fill="#e99643" d="M 269.675781 81.605469 L 270.238281 81.605469 L 270.238281 79.347656 L 269.675781 79.347656 C 267.804688 79.347656 266.289062 80.863281 266.289062 82.734375 L 266.289062 86.6875 C 266.289062 87.042969 266.121094 87.375 265.835938 87.589844 L 264.480469 88.605469 C 264.210938 88.808594 264.042969 89.121094 264.03125 89.460938 C 264.015625 89.800781 264.15625 90.128906 264.410156 90.351562 L 265.910156 91.683594 C 266.148438 91.898438 266.289062 92.207031 266.289062 92.53125 L 266.289062 96.28125 C 266.289062 98.152344 267.804688 99.671875 269.675781 99.671875 L 270.238281 99.671875 L 270.238281 97.414062 L 269.675781 97.414062 C 269.050781 97.414062 268.546875 96.90625 268.546875 96.28125 L 268.546875 92.53125 C 268.546875 91.5625 268.132812 90.640625 267.410156 89.996094 L 266.941406 89.582031 L 267.191406 89.394531 C 268.042969 88.753906 268.546875 87.75 268.546875 86.6875 L 268.546875 82.734375 C 268.546875 82.109375 269.050781 81.605469 269.675781 81.605469 Z M 269.675781 81.605469 " fill-opacity="1" fill-rule="evenodd"/></g><g clip-path="url(#2625a6c387)"><path fill="#e99643" d="M 287.007812 49.589844 C 287.007812 49.550781 287.003906 49.507812 286.996094 49.464844 C 286.996094 49.460938 286.996094 49.457031 286.996094 49.453125 C 286.992188 49.410156 286.984375 49.367188 286.976562 49.324219 C 286.972656 49.304688 286.960938 49.285156 286.949219 49.265625 C 286.917969 49.222656 286.859375 49.207031 286.804688 49.222656 C 286.796875 49.222656 286.789062 49.226562 286.777344 49.234375 C 286.777344 49.234375 286.773438 49.234375 286.769531 49.238281 C 286.765625 49.242188 286.761719 49.246094 286.757812 49.25 L 285.472656 50.371094 C 285.324219 50.503906 285.097656 50.488281 284.96875 50.339844 L 284.277344 49.546875 C 284.144531 49.398438 284.160156 49.175781 284.308594 49.042969 L 285.59375 47.921875 C 285.597656 47.917969 285.601562 47.910156 285.605469 47.90625 C 285.617188 47.894531 285.625 47.882812 285.628906 47.867188 C 285.632812 47.863281 285.632812 47.859375 285.632812 47.851562 C 285.636719 47.847656 285.636719 47.839844 285.636719 47.835938 C 285.636719 47.832031 285.636719 47.828125 285.636719 47.828125 C 285.636719 47.816406 285.636719 47.808594 285.636719 47.800781 C 285.632812 47.777344 285.621094 47.75 285.605469 47.730469 C 285.601562 47.726562 285.597656 47.722656 285.59375 47.71875 C 285.589844 47.71875 285.589844 47.714844 285.585938 47.714844 C 285.574219 47.703125 285.5625 47.699219 285.546875 47.691406 C 285.503906 47.679688 285.464844 47.667969 285.421875 47.65625 C 285.417969 47.65625 285.414062 47.652344 285.410156 47.652344 C 285.367188 47.640625 285.328125 47.632812 285.285156 47.625 C 285.285156 47.625 285.28125 47.625 285.277344 47.625 C 285.226562 47.613281 285.171875 47.605469 285.117188 47.597656 C 285.117188 47.597656 285.113281 47.597656 285.113281 47.597656 C 285.09375 47.597656 285.070312 47.59375 285.046875 47.59375 C 285.035156 47.59375 285.023438 47.589844 285.015625 47.589844 C 284.945312 47.585938 284.878906 47.585938 284.808594 47.585938 C 284.789062 47.589844 284.765625 47.589844 284.742188 47.589844 C 284.699219 47.59375 284.652344 47.597656 284.609375 47.605469 C 284.585938 47.605469 284.566406 47.609375 284.546875 47.613281 C 284.519531 47.617188 284.492188 47.621094 284.464844 47.628906 C 284.414062 47.636719 284.359375 47.652344 284.308594 47.664062 C 284.296875 47.667969 284.285156 47.671875 284.273438 47.675781 C 284.257812 47.679688 284.242188 47.683594 284.226562 47.6875 C 284.210938 47.695312 284.191406 47.699219 284.175781 47.707031 C 284.132812 47.722656 284.089844 47.738281 284.046875 47.757812 C 283.972656 47.789062 283.898438 47.824219 283.828125 47.863281 C 283.796875 47.882812 283.765625 47.902344 283.738281 47.917969 C 283.71875 47.933594 283.699219 47.945312 283.679688 47.960938 C 283.609375 48.007812 283.542969 48.058594 283.480469 48.113281 C 283.46875 48.121094 283.460938 48.132812 283.449219 48.140625 C 283.445312 48.144531 283.445312 48.144531 283.441406 48.148438 C 283.433594 48.15625 283.429688 48.160156 283.421875 48.167969 C 283.417969 48.167969 283.414062 48.171875 283.410156 48.175781 C 283.40625 48.183594 283.398438 48.1875 283.394531 48.191406 C 283.390625 48.195312 283.386719 48.199219 283.382812 48.203125 C 283.378906 48.210938 283.371094 48.214844 283.367188 48.21875 C 283.363281 48.222656 283.359375 48.226562 283.355469 48.230469 C 283.351562 48.238281 283.34375 48.242188 283.339844 48.246094 C 283.335938 48.25 283.332031 48.253906 283.328125 48.257812 C 283.324219 48.265625 283.320312 48.269531 283.3125 48.277344 C 283.308594 48.28125 283.304688 48.28125 283.304688 48.285156 C 283.296875 48.292969 283.292969 48.296875 283.285156 48.304688 C 283.285156 48.308594 283.28125 48.3125 283.277344 48.316406 C 283.273438 48.320312 283.265625 48.328125 283.257812 48.335938 C 283.257812 48.339844 283.253906 48.339844 283.253906 48.34375 C 283.246094 48.351562 283.238281 48.363281 283.230469 48.371094 C 283.226562 48.375 283.226562 48.378906 283.222656 48.378906 C 283.21875 48.386719 283.210938 48.394531 283.207031 48.402344 C 283.203125 48.40625 283.199219 48.410156 283.199219 48.414062 C 283.191406 48.417969 283.1875 48.425781 283.183594 48.429688 C 283.179688 48.433594 283.175781 48.4375 283.175781 48.441406 C 283.167969 48.449219 283.164062 48.457031 283.160156 48.460938 C 283.15625 48.464844 283.15625 48.46875 283.152344 48.472656 C 283.148438 48.480469 283.144531 48.484375 283.140625 48.492188 C 283.136719 48.496094 283.132812 48.5 283.128906 48.503906 C 283.125 48.511719 283.121094 48.515625 283.117188 48.523438 C 283.113281 48.527344 283.113281 48.53125 283.109375 48.535156 C 283.105469 48.542969 283.101562 48.546875 283.097656 48.554688 C 283.09375 48.558594 283.089844 48.5625 283.089844 48.566406 C 283.085938 48.574219 283.078125 48.582031 283.074219 48.585938 C 283.074219 48.589844 283.070312 48.59375 283.070312 48.597656 C 283.0625 48.609375 283.054688 48.617188 283.050781 48.628906 C 283.042969 48.640625 283.039062 48.648438 283.03125 48.660156 C 283.03125 48.664062 283.027344 48.667969 283.027344 48.671875 C 283.023438 48.679688 283.015625 48.683594 283.011719 48.691406 C 283.011719 48.695312 283.007812 48.699219 283.007812 48.703125 C 283.003906 48.710938 283 48.71875 282.996094 48.726562 C 282.992188 48.730469 282.992188 48.734375 282.988281 48.738281 C 282.984375 48.746094 282.984375 48.75 282.980469 48.757812 C 282.976562 48.761719 282.976562 48.765625 282.972656 48.769531 C 282.96875 48.777344 282.964844 48.785156 282.964844 48.789062 C 282.960938 48.796875 282.957031 48.800781 282.957031 48.804688 C 282.953125 48.8125 282.949219 48.816406 282.949219 48.824219 C 282.945312 48.828125 282.945312 48.832031 282.941406 48.835938 C 282.9375 48.84375 282.933594 48.851562 282.933594 48.859375 C 282.929688 48.863281 282.929688 48.867188 282.925781 48.871094 C 282.921875 48.878906 282.917969 48.886719 282.914062 48.894531 C 282.914062 48.898438 282.914062 48.902344 282.914062 48.902344 C 282.90625 48.914062 282.902344 48.925781 282.898438 48.9375 C 282.898438 48.941406 282.898438 48.941406 282.894531 48.945312 C 282.890625 48.953125 282.890625 48.960938 282.886719 48.972656 C 282.882812 48.976562 282.882812 48.980469 282.882812 48.984375 C 282.878906 48.992188 282.875 49 282.875 49.003906 C 282.871094 49.011719 282.871094 49.015625 282.867188 49.019531 C 282.867188 49.027344 282.863281 49.03125 282.863281 49.039062 C 282.859375 49.042969 282.859375 49.050781 282.855469 49.054688 C 282.855469 49.0625 282.851562 49.066406 282.851562 49.074219 C 282.847656 49.078125 282.847656 49.085938 282.847656 49.089844 C 282.84375 49.09375 282.84375 49.101562 282.839844 49.109375 C 282.839844 49.113281 282.835938 49.117188 282.835938 49.125 C 282.832031 49.128906 282.832031 49.136719 282.828125 49.144531 C 282.828125 49.148438 282.828125 49.152344 282.828125 49.160156 C 282.824219 49.167969 282.820312 49.175781 282.820312 49.183594 C 282.820312 49.1875 282.816406 49.191406 282.816406 49.191406 C 282.8125 49.203125 282.8125 49.214844 282.808594 49.226562 C 282.808594 49.230469 282.808594 49.230469 282.808594 49.230469 C 282.804688 49.242188 282.804688 49.253906 282.800781 49.261719 C 282.800781 49.265625 282.800781 49.269531 282.796875 49.273438 C 282.796875 49.28125 282.796875 49.289062 282.792969 49.296875 C 282.792969 49.304688 282.792969 49.308594 282.789062 49.3125 C 282.789062 49.320312 282.789062 49.328125 282.785156 49.335938 C 282.785156 49.339844 282.785156 49.34375 282.785156 49.347656 C 282.78125 49.355469 282.78125 49.363281 282.78125 49.371094 C 282.78125 49.375 282.777344 49.378906 282.777344 49.382812 C 282.777344 49.390625 282.777344 49.398438 282.773438 49.40625 C 282.773438 49.410156 282.773438 49.414062 282.773438 49.421875 C 282.773438 49.425781 282.769531 49.433594 282.769531 49.441406 C 282.769531 49.445312 282.769531 49.453125 282.769531 49.457031 C 282.765625 49.464844 282.765625 49.472656 282.765625 49.480469 C 282.765625 49.484375 282.765625 49.488281 282.765625 49.492188 C 282.761719 49.5 282.761719 49.511719 282.761719 49.519531 C 282.761719 49.523438 282.761719 49.523438 282.761719 49.527344 C 282.757812 49.539062 282.757812 49.550781 282.757812 49.5625 C 282.757812 49.566406 282.757812 49.570312 282.757812 49.574219 C 282.757812 49.582031 282.753906 49.589844 282.753906 49.597656 C 282.753906 49.605469 282.753906 49.609375 282.753906 49.613281 C 282.753906 49.621094 282.753906 49.628906 282.753906 49.636719 C 282.753906 49.640625 282.753906 49.644531 282.753906 49.648438 C 282.753906 49.65625 282.753906 49.664062 282.753906 49.671875 C 282.753906 49.675781 282.753906 49.679688 282.753906 49.6875 C 282.753906 49.691406 282.753906 49.699219 282.753906 49.707031 C 282.753906 49.710938 282.753906 49.71875 282.753906 49.722656 C 282.753906 49.730469 282.753906 49.738281 282.753906 49.742188 C 282.753906 49.75 282.753906 49.753906 282.753906 49.757812 C 282.753906 49.765625 282.753906 49.773438 282.753906 49.78125 C 282.753906 49.785156 282.753906 49.789062 282.753906 49.792969 C 282.753906 49.800781 282.753906 49.808594 282.753906 49.820312 C 282.753906 49.824219 282.753906 49.828125 282.753906 49.832031 C 282.753906 49.84375 282.757812 49.855469 282.757812 49.867188 C 282.757812 49.878906 282.757812 49.890625 282.761719 49.902344 C 282.761719 49.90625 282.761719 49.910156 282.761719 49.914062 C 282.761719 49.921875 282.761719 49.929688 282.761719 49.9375 C 282.765625 49.941406 282.765625 49.945312 282.765625 49.953125 C 282.765625 49.960938 282.765625 49.964844 282.765625 49.972656 C 282.769531 49.976562 282.769531 49.984375 282.769531 49.988281 C 282.769531 49.996094 282.769531 50.003906 282.773438 50.007812 C 282.773438 50.015625 282.773438 50.019531 282.773438 50.023438 C 282.773438 50.03125 282.777344 50.039062 282.777344 50.046875 C 282.777344 50.050781 282.777344 50.054688 282.78125 50.058594 C 282.78125 50.066406 282.78125 50.074219 282.785156 50.082031 C 282.785156 50.085938 282.785156 50.089844 282.785156 50.097656 C 282.785156 50.097656 282.785156 50.097656 282.785156 50.101562 C 282.816406 50.261719 282.757812 50.429688 282.632812 50.539062 L 282.089844 51.011719 L 280.105469 48.75 L 279.511719 48.066406 C 279 47.484375 278.109375 47.425781 277.523438 47.933594 L 277.480469 47.976562 C 276.894531 48.488281 276.835938 49.375 277.347656 49.960938 L 277.945312 50.640625 L 279.929688 52.90625 L 279.386719 53.382812 C 279.261719 53.492188 279.089844 53.527344 278.933594 53.476562 C 278.929688 53.476562 278.929688 53.476562 278.929688 53.476562 C 278.921875 53.472656 278.917969 53.472656 278.914062 53.46875 C 278.90625 53.46875 278.902344 53.464844 278.894531 53.464844 C 278.890625 53.460938 278.882812 53.460938 278.878906 53.460938 C 278.871094 53.457031 278.867188 53.457031 278.859375 53.453125 C 278.855469 53.453125 278.847656 53.449219 278.84375 53.449219 C 278.835938 53.449219 278.832031 53.445312 278.824219 53.445312 C 278.820312 53.441406 278.8125 53.441406 278.808594 53.441406 C 278.800781 53.4375 278.796875 53.4375 278.789062 53.433594 C 278.785156 53.433594 278.777344 53.433594 278.773438 53.429688 C 278.765625 53.429688 278.757812 53.429688 278.75 53.425781 C 278.746094 53.425781 278.742188 53.425781 278.738281 53.421875 C 278.726562 53.421875 278.71875 53.417969 278.707031 53.417969 C 278.707031 53.417969 278.703125 53.417969 278.703125 53.414062 C 278.691406 53.414062 278.679688 53.410156 278.667969 53.410156 C 278.664062 53.410156 278.660156 53.40625 278.65625 53.40625 C 278.648438 53.40625 278.640625 53.402344 278.632812 53.402344 C 278.628906 53.402344 278.625 53.402344 278.621094 53.402344 C 278.613281 53.398438 278.605469 53.398438 278.597656 53.398438 C 278.59375 53.394531 278.589844 53.394531 278.582031 53.394531 C 278.574219 53.394531 278.570312 53.394531 278.5625 53.390625 C 278.558594 53.390625 278.550781 53.390625 278.546875 53.390625 C 278.539062 53.390625 278.53125 53.386719 278.527344 53.386719 C 278.519531 53.386719 278.515625 53.386719 278.511719 53.386719 C 278.503906 53.386719 278.496094 53.382812 278.488281 53.382812 C 278.484375 53.382812 278.480469 53.382812 278.476562 53.382812 C 278.46875 53.382812 278.460938 53.378906 278.453125 53.378906 C 278.449219 53.378906 278.445312 53.378906 278.441406 53.378906 C 278.429688 53.378906 278.421875 53.378906 278.414062 53.378906 C 278.410156 53.375 278.40625 53.375 278.402344 53.375 C 278.390625 53.375 278.378906 53.375 278.367188 53.375 C 278.363281 53.375 278.363281 53.375 278.359375 53.375 C 278.351562 53.375 278.339844 53.375 278.332031 53.375 C 278.328125 53.375 278.324219 53.375 278.320312 53.371094 C 278.3125 53.371094 278.304688 53.371094 278.296875 53.371094 C 278.292969 53.371094 278.285156 53.371094 278.28125 53.371094 C 278.273438 53.371094 278.265625 53.371094 278.261719 53.371094 C 278.253906 53.371094 278.25 53.371094 278.246094 53.371094 C 278.238281 53.371094 278.230469 53.371094 278.222656 53.371094 C 278.21875 53.375 278.214844 53.375 278.207031 53.375 C 278.203125 53.375 278.195312 53.375 278.1875 53.375 C 278.183594 53.375 278.175781 53.375 278.171875 53.375 C 278.164062 53.375 278.15625 53.375 278.152344 53.375 C 278.144531 53.375 278.140625 53.375 278.136719 53.375 C 278.128906 53.378906 278.121094 53.378906 278.113281 53.378906 C 278.109375 53.378906 278.105469 53.378906 278.101562 53.378906 C 278.089844 53.378906 278.078125 53.382812 278.066406 53.382812 C 278.054688 53.382812 278.042969 53.386719 278.03125 53.386719 C 278.027344 53.386719 278.023438 53.386719 278.019531 53.386719 C 278.007812 53.390625 278 53.390625 277.992188 53.390625 C 277.988281 53.390625 277.984375 53.390625 277.980469 53.394531 C 277.972656 53.394531 277.964844 53.394531 277.957031 53.394531 C 277.953125 53.398438 277.949219 53.398438 277.941406 53.398438 C 277.9375 53.398438 277.929688 53.402344 277.921875 53.402344 C 277.917969 53.402344 277.910156 53.402344 277.90625 53.40625 C 277.898438 53.40625 277.894531 53.40625 277.886719 53.40625 C 277.882812 53.410156 277.875 53.410156 277.871094 53.410156 C 277.863281 53.414062 277.855469 53.414062 277.851562 53.414062 C 277.84375 53.417969 277.839844 53.417969 277.835938 53.417969 C 277.828125 53.417969 277.820312 53.421875 277.8125 53.421875 C 277.808594 53.425781 277.804688 53.425781 277.800781 53.425781 C 277.792969 53.429688 277.78125 53.429688 277.773438 53.433594 C 277.769531 53.433594 277.769531 53.433594 277.765625 53.433594 C 277.753906 53.4375 277.742188 53.441406 277.730469 53.441406 C 277.726562 53.445312 277.722656 53.445312 277.722656 53.445312 C 277.710938 53.449219 277.703125 53.449219 277.695312 53.453125 C 277.691406 53.453125 277.6875 53.457031 277.683594 53.457031 C 277.675781 53.457031 277.667969 53.460938 277.660156 53.464844 C 277.65625 53.464844 277.652344 53.464844 277.644531 53.46875 C 277.640625 53.46875 277.632812 53.472656 277.625 53.472656 C 277.621094 53.476562 277.617188 53.476562 277.609375 53.476562 C 277.605469 53.480469 277.597656 53.484375 277.589844 53.484375 C 277.585938 53.488281 277.582031 53.488281 277.574219 53.488281 C 277.570312 53.492188 277.5625 53.496094 277.554688 53.496094 C 277.550781 53.5 277.546875 53.5 277.542969 53.503906 C 277.535156 53.503906 277.527344 53.507812 277.519531 53.511719 C 277.515625 53.511719 277.511719 53.515625 277.507812 53.515625 C 277.5 53.519531 277.492188 53.519531 277.484375 53.523438 C 277.480469 53.527344 277.476562 53.527344 277.472656 53.527344 C 277.460938 53.535156 277.449219 53.539062 277.441406 53.542969 C 277.441406 53.542969 277.4375 53.542969 277.4375 53.542969 C 277.425781 53.546875 277.417969 53.554688 277.40625 53.558594 C 277.402344 53.558594 277.398438 53.5625 277.394531 53.5625 C 277.386719 53.566406 277.378906 53.570312 277.371094 53.574219 C 277.367188 53.574219 277.363281 53.578125 277.359375 53.578125 C 277.351562 53.582031 277.34375 53.585938 277.339844 53.589844 C 277.332031 53.589844 277.328125 53.59375 277.324219 53.597656 C 277.316406 53.597656 277.3125 53.601562 277.304688 53.605469 C 277.300781 53.609375 277.296875 53.609375 277.292969 53.613281 C 277.285156 53.617188 277.277344 53.621094 277.273438 53.625 C 277.265625 53.625 277.261719 53.628906 277.257812 53.628906 C 277.25 53.632812 277.246094 53.636719 277.238281 53.640625 C 277.234375 53.644531 277.230469 53.644531 277.226562 53.648438 C 277.21875 53.652344 277.210938 53.65625 277.207031 53.660156 C 277.203125 53.664062 277.195312 53.664062 277.191406 53.667969 C 277.183594 53.671875 277.175781 53.675781 277.167969 53.683594 C 277.167969 53.683594 277.164062 53.683594 277.160156 53.6875 C 277.152344 53.695312 277.140625 53.699219 277.128906 53.707031 C 277.125 53.707031 277.125 53.710938 277.121094 53.710938 C 277.113281 53.71875 277.105469 53.722656 277.097656 53.726562 C 277.09375 53.730469 277.089844 53.734375 277.085938 53.734375 C 277.078125 53.738281 277.074219 53.742188 277.066406 53.75 C 277.0625 53.75 277.058594 53.753906 277.054688 53.757812 C 277.046875 53.761719 277.042969 53.765625 277.035156 53.769531 C 277.03125 53.773438 277.027344 53.777344 277.023438 53.78125 C 277.015625 53.785156 277.011719 53.789062 277.003906 53.792969 C 277 53.796875 276.996094 53.800781 276.992188 53.804688 C 276.984375 53.808594 276.980469 53.8125 276.972656 53.816406 C 276.96875 53.820312 276.964844 53.824219 276.960938 53.828125 C 276.957031 53.832031 276.949219 53.835938 276.941406 53.839844 C 276.9375 53.84375 276.933594 53.847656 276.929688 53.851562 C 276.925781 53.855469 276.917969 53.859375 276.910156 53.867188 C 276.910156 53.871094 276.90625 53.871094 276.902344 53.875 C 276.890625 53.882812 276.882812 53.890625 276.871094 53.898438 C 276.828125 53.941406 276.78125 53.980469 276.742188 54.023438 C 276.726562 54.042969 276.707031 54.058594 276.691406 54.078125 C 276.683594 54.089844 276.671875 54.097656 276.664062 54.109375 C 276.636719 54.140625 276.613281 54.167969 276.59375 54.195312 C 276.570312 54.226562 276.550781 54.253906 276.53125 54.28125 C 276.523438 54.292969 276.515625 54.304688 276.507812 54.316406 C 276.5 54.324219 276.496094 54.332031 276.488281 54.339844 C 276.484375 54.351562 276.476562 54.363281 276.46875 54.371094 C 276.457031 54.390625 276.445312 54.410156 276.433594 54.429688 C 276.414062 54.464844 276.398438 54.496094 276.378906 54.53125 C 276.363281 54.566406 276.34375 54.601562 276.328125 54.640625 C 276.320312 54.652344 276.316406 54.667969 276.308594 54.683594 C 276.269531 54.777344 276.238281 54.875 276.210938 54.972656 C 276.210938 54.980469 276.207031 54.988281 276.207031 55 C 276.199219 55.023438 276.195312 55.046875 276.191406 55.074219 C 276.1875 55.078125 276.1875 55.085938 276.1875 55.09375 C 276.175781 55.144531 276.167969 55.195312 276.160156 55.246094 C 276.15625 55.28125 276.152344 55.316406 276.152344 55.351562 C 276.148438 55.398438 276.144531 55.445312 276.144531 55.496094 C 276.144531 55.53125 276.148438 55.570312 276.148438 55.609375 C 276.148438 55.621094 276.148438 55.628906 276.148438 55.640625 C 276.152344 55.683594 276.15625 55.722656 276.160156 55.765625 C 276.164062 55.785156 276.167969 55.804688 276.167969 55.820312 C 276.171875 55.84375 276.175781 55.871094 276.183594 55.894531 C 276.1875 55.914062 276.195312 55.933594 276.207031 55.949219 C 276.207031 55.953125 276.210938 55.957031 276.214844 55.957031 C 276.214844 55.960938 276.21875 55.964844 276.21875 55.964844 C 276.222656 55.96875 276.226562 55.96875 276.226562 55.972656 C 276.230469 55.972656 276.234375 55.976562 276.238281 55.976562 C 276.257812 55.992188 276.285156 56.003906 276.3125 56.003906 C 276.320312 56.003906 276.328125 56.003906 276.335938 56 C 276.339844 56 276.34375 56 276.347656 56 C 276.359375 55.996094 276.375 55.988281 276.386719 55.980469 C 276.390625 55.976562 276.398438 55.972656 276.402344 55.96875 L 277.683594 54.847656 C 277.832031 54.714844 278.058594 54.730469 278.1875 54.878906 L 278.882812 55.671875 C 279.011719 55.820312 278.996094 56.042969 278.847656 56.175781 L 277.566406 57.296875 C 277.488281 57.367188 277.511719 57.492188 277.613281 57.527344 C 278.304688 57.753906 279.09375 57.617188 279.679688 57.105469 C 279.6875 57.097656 279.699219 57.085938 279.707031 57.078125 C 279.710938 57.074219 279.714844 57.074219 279.71875 57.070312 C 279.722656 57.0625 279.730469 57.058594 279.738281 57.050781 C 279.738281 57.050781 279.742188 57.046875 279.746094 57.042969 C 279.753906 57.035156 279.757812 57.03125 279.765625 57.027344 C 279.769531 57.023438 279.773438 57.019531 279.773438 57.015625 C 279.78125 57.007812 279.785156 57.003906 279.792969 57 C 279.796875 56.996094 279.796875 56.992188 279.800781 56.988281 C 279.808594 56.980469 279.8125 56.976562 279.816406 56.972656 C 279.820312 56.96875 279.824219 56.964844 279.828125 56.960938 C 279.835938 56.953125 279.839844 56.949219 279.84375 56.941406 C 279.847656 56.9375 279.851562 56.933594 279.855469 56.933594 C 279.859375 56.925781 279.867188 56.917969 279.871094 56.914062 C 279.875 56.910156 279.875 56.90625 279.878906 56.902344 C 279.886719 56.894531 279.890625 56.890625 279.898438 56.882812 C 279.902344 56.878906 279.902344 56.878906 279.90625 56.875 C 279.914062 56.867188 279.921875 56.855469 279.929688 56.847656 C 279.929688 56.84375 279.933594 56.839844 279.933594 56.839844 C 279.941406 56.832031 279.945312 56.824219 279.953125 56.816406 C 279.953125 56.8125 279.957031 56.808594 279.960938 56.804688 C 279.964844 56.800781 279.96875 56.792969 279.976562 56.789062 C 279.976562 56.78125 279.980469 56.777344 279.984375 56.773438 C 279.988281 56.769531 279.992188 56.761719 279.996094 56.757812 C 280 56.753906 280.003906 56.75 280.007812 56.746094 C 280.011719 56.738281 280.015625 56.734375 280.019531 56.726562 C 280.023438 56.722656 280.023438 56.71875 280.027344 56.714844 C 280.03125 56.707031 280.035156 56.703125 280.039062 56.695312 C 280.042969 56.691406 280.046875 56.6875 280.046875 56.683594 C 280.054688 56.675781 280.058594 56.671875 280.0625 56.664062 C 280.0625 56.660156 280.066406 56.65625 280.070312 56.652344 C 280.074219 56.644531 280.078125 56.636719 280.082031 56.632812 C 280.085938 56.628906 280.085938 56.625 280.089844 56.621094 C 280.09375 56.609375 280.101562 56.601562 280.109375 56.589844 C 280.113281 56.578125 280.121094 56.570312 280.125 56.558594 C 280.128906 56.554688 280.128906 56.550781 280.132812 56.546875 C 280.136719 56.539062 280.140625 56.53125 280.144531 56.527344 C 280.144531 56.523438 280.148438 56.519531 280.152344 56.511719 C 280.15625 56.507812 280.15625 56.5 280.160156 56.492188 C 280.164062 56.488281 280.167969 56.484375 280.167969 56.480469 C 280.171875 56.472656 280.175781 56.46875 280.179688 56.460938 C 280.179688 56.457031 280.183594 56.453125 280.183594 56.449219 C 280.1875 56.441406 280.191406 56.433594 280.195312 56.429688 C 280.195312 56.421875 280.199219 56.417969 280.199219 56.414062 C 280.203125 56.40625 280.207031 56.402344 280.210938 56.394531 C 280.210938 56.390625 280.214844 56.386719 280.214844 56.382812 C 280.21875 56.375 280.222656 56.367188 280.226562 56.359375 C 280.226562 56.355469 280.230469 56.351562 280.230469 56.347656 C 280.234375 56.339844 280.238281 56.332031 280.242188 56.324219 C 280.242188 56.320312 280.242188 56.316406 280.246094 56.3125 C 280.25 56.304688 280.253906 56.292969 280.257812 56.28125 C 280.257812 56.277344 280.261719 56.273438 280.261719 56.273438 C 280.265625 56.265625 280.269531 56.253906 280.273438 56.246094 C 280.273438 56.242188 280.273438 56.238281 280.277344 56.234375 C 280.277344 56.226562 280.28125 56.21875 280.285156 56.210938 C 280.285156 56.207031 280.289062 56.203125 280.289062 56.199219 C 280.292969 56.191406 280.292969 56.183594 280.296875 56.179688 C 280.296875 56.171875 280.296875 56.167969 280.300781 56.164062 C 280.300781 56.15625 280.304688 56.152344 280.308594 56.144531 C 280.308594 56.140625 280.308594 56.132812 280.3125 56.128906 C 280.3125 56.121094 280.316406 56.117188 280.316406 56.109375 C 280.320312 56.105469 280.320312 56.097656 280.320312 56.09375 C 280.324219 56.085938 280.324219 56.082031 280.328125 56.074219 C 280.328125 56.070312 280.332031 56.0625 280.332031 56.058594 C 280.332031 56.050781 280.335938 56.042969 280.335938 56.035156 C 280.339844 56.03125 280.339844 56.027344 280.339844 56.023438 C 280.34375 56.011719 280.347656 56 280.347656 55.988281 C 280.351562 55.976562 280.355469 55.964844 280.355469 55.953125 C 280.359375 55.949219 280.359375 55.945312 280.359375 55.941406 C 280.359375 55.933594 280.363281 55.925781 280.363281 55.917969 C 280.367188 55.914062 280.367188 55.910156 280.367188 55.90625 C 280.367188 55.898438 280.371094 55.890625 280.371094 55.882812 C 280.371094 55.878906 280.371094 55.875 280.375 55.871094 C 280.375 55.863281 280.375 55.855469 280.378906 55.847656 C 280.378906 55.84375 280.378906 55.839844 280.378906 55.832031 C 280.378906 55.828125 280.382812 55.820312 280.382812 55.8125 C 280.382812 55.808594 280.382812 55.804688 280.386719 55.796875 C 280.386719 55.789062 280.386719 55.785156 280.386719 55.777344 C 280.386719 55.773438 280.390625 55.765625 280.390625 55.761719 C 280.390625 55.753906 280.390625 55.746094 280.390625 55.738281 C 280.394531 55.734375 280.394531 55.730469 280.394531 55.726562 C 280.394531 55.71875 280.394531 55.707031 280.394531 55.699219 C 280.398438 55.695312 280.398438 55.695312 280.398438 55.691406 C 280.398438 55.679688 280.398438 55.667969 280.398438 55.65625 C 280.398438 55.652344 280.402344 55.648438 280.402344 55.644531 C 280.402344 55.636719 280.402344 55.628906 280.402344 55.621094 C 280.402344 55.613281 280.402344 55.609375 280.402344 55.605469 C 280.402344 55.597656 280.402344 55.589844 280.402344 55.582031 C 280.402344 55.578125 280.402344 55.574219 280.40625 55.570312 C 280.40625 55.5625 280.40625 55.554688 280.40625 55.546875 C 280.40625 55.542969 280.40625 55.539062 280.40625 55.53125 C 280.40625 55.523438 280.40625 55.519531 280.40625 55.511719 C 280.40625 55.507812 280.40625 55.5 280.40625 55.496094 C 280.40625 55.488281 280.40625 55.480469 280.40625 55.476562 C 280.40625 55.46875 280.40625 55.464844 280.40625 55.460938 C 280.40625 55.453125 280.40625 55.445312 280.40625 55.4375 C 280.40625 55.433594 280.40625 55.429688 280.402344 55.425781 C 280.402344 55.414062 280.402344 55.40625 280.402344 55.398438 C 280.402344 55.394531 280.402344 55.390625 280.402344 55.386719 C 280.402344 55.375 280.402344 55.363281 280.402344 55.351562 C 280.402344 55.351562 280.402344 55.351562 280.398438 55.351562 C 280.398438 55.339844 280.398438 55.328125 280.398438 55.316406 C 280.398438 55.3125 280.398438 55.308594 280.398438 55.304688 C 280.394531 55.296875 280.394531 55.289062 280.394531 55.28125 C 280.394531 55.277344 280.394531 55.269531 280.394531 55.265625 C 280.390625 55.257812 280.390625 55.25 280.390625 55.246094 C 280.390625 55.238281 280.390625 55.234375 280.386719 55.230469 C 280.386719 55.222656 280.386719 55.214844 280.386719 55.207031 C 280.386719 55.203125 280.382812 55.199219 280.382812 55.195312 C 280.382812 55.1875 280.382812 55.179688 280.378906 55.171875 C 280.378906 55.167969 280.378906 55.164062 280.378906 55.15625 C 280.375 55.152344 280.375 55.144531 280.375 55.136719 C 280.375 55.132812 280.371094 55.128906 280.371094 55.121094 C 280.371094 55.121094 280.371094 55.117188 280.371094 55.117188 C 280.339844 54.953125 280.398438 54.789062 280.523438 54.679688 L 281.066406 54.203125 L 283.265625 56.714844 C 283.265625 56.714844 283.265625 56.71875 283.269531 56.71875 C 283.269531 56.71875 283.273438 56.722656 283.273438 56.722656 C 283.277344 56.726562 283.277344 56.730469 283.28125 56.734375 C 283.285156 56.734375 283.285156 56.734375 283.285156 56.738281 C 283.289062 56.742188 283.292969 56.746094 283.296875 56.746094 C 283.300781 56.75 283.300781 56.75 283.300781 56.75 C 283.308594 56.757812 283.320312 56.765625 283.332031 56.773438 C 283.335938 56.777344 283.34375 56.78125 283.347656 56.78125 C 283.351562 56.78125 283.351562 56.78125 283.351562 56.785156 C 283.355469 56.785156 283.363281 56.789062 283.367188 56.792969 C 283.375 56.796875 283.382812 56.796875 283.390625 56.800781 L 285.652344 57.683594 C 285.6875 57.695312 285.726562 57.703125 285.765625 57.703125 C 285.839844 57.703125 285.914062 57.675781 285.972656 57.625 C 286.0625 57.546875 286.101562 57.429688 286.070312 57.316406 L 285.496094 54.953125 C 285.496094 54.953125 285.496094 54.949219 285.496094 54.949219 C 285.492188 54.945312 285.492188 54.941406 285.492188 54.9375 C 285.492188 54.933594 285.488281 54.933594 285.488281 54.929688 C 285.488281 54.925781 285.484375 54.921875 285.484375 54.917969 C 285.484375 54.914062 285.484375 54.914062 285.484375 54.914062 C 285.480469 54.90625 285.480469 54.902344 285.476562 54.898438 C 285.476562 54.894531 285.472656 54.894531 285.472656 54.890625 C 285.472656 54.886719 285.46875 54.882812 285.46875 54.878906 C 285.46875 54.878906 285.464844 54.875 285.464844 54.875 C 285.460938 54.871094 285.460938 54.867188 285.457031 54.863281 C 285.457031 54.863281 285.457031 54.859375 285.457031 54.859375 C 285.453125 54.855469 285.449219 54.847656 285.445312 54.84375 C 285.445312 54.84375 285.445312 54.84375 285.441406 54.839844 C 285.441406 54.835938 285.4375 54.832031 285.433594 54.828125 C 285.433594 54.828125 285.433594 54.828125 285.429688 54.824219 C 285.429688 54.824219 285.429688 54.820312 285.425781 54.820312 L 283.230469 52.3125 L 283.769531 51.835938 C 283.894531 51.726562 284.066406 51.691406 284.222656 51.742188 C 284.226562 51.742188 284.226562 51.742188 284.230469 51.742188 C 284.234375 51.746094 284.238281 51.746094 284.242188 51.746094 C 284.25 51.75 284.257812 51.753906 284.265625 51.753906 C 284.269531 51.757812 284.273438 51.757812 284.277344 51.757812 C 284.285156 51.761719 284.292969 51.761719 284.300781 51.765625 C 284.304688 51.765625 284.308594 51.765625 284.3125 51.769531 C 284.320312 51.769531 284.328125 51.773438 284.332031 51.773438 C 284.339844 51.777344 284.34375 51.777344 284.347656 51.777344 C 284.355469 51.78125 284.363281 51.78125 284.371094 51.785156 C 284.375 51.785156 284.378906 51.785156 284.382812 51.785156 C 284.390625 51.789062 284.398438 51.789062 284.40625 51.792969 C 284.410156 51.792969 284.414062 51.792969 284.417969 51.796875 C 284.429688 51.796875 284.441406 51.800781 284.453125 51.800781 C 284.464844 51.804688 284.476562 51.808594 284.488281 51.808594 C 284.492188 51.808594 284.496094 51.8125 284.5 51.8125 C 284.507812 51.8125 284.515625 51.8125 284.523438 51.816406 C 284.527344 51.816406 284.535156 51.816406 284.539062 51.816406 C 284.546875 51.820312 284.550781 51.820312 284.558594 51.820312 C 284.566406 51.820312 284.570312 51.824219 284.574219 51.824219 C 284.582031 51.824219 284.589844 51.824219 284.59375 51.828125 C 284.601562 51.828125 284.605469 51.828125 284.609375 51.828125 C 284.617188 51.828125 284.625 51.832031 284.632812 51.832031 C 284.636719 51.832031 284.640625 51.832031 284.644531 51.832031 C 284.652344 51.832031 284.660156 51.835938 284.667969 51.835938 C 284.671875 51.835938 284.675781 51.835938 284.683594 51.835938 C 284.691406 51.835938 284.699219 51.835938 284.703125 51.839844 C 284.710938 51.839844 284.714844 51.839844 284.71875 51.839844 C 284.726562 51.839844 284.734375 51.839844 284.746094 51.839844 C 284.746094 51.839844 284.75 51.84375 284.753906 51.84375 C 284.765625 51.84375 284.777344 51.84375 284.789062 51.84375 C 284.792969 51.84375 284.796875 51.84375 284.796875 51.84375 C 284.808594 51.84375 284.816406 51.84375 284.824219 51.84375 C 284.828125 51.84375 284.835938 51.84375 284.839844 51.84375 C 284.847656 51.84375 284.855469 51.847656 284.863281 51.847656 C 284.867188 51.847656 284.871094 51.847656 284.875 51.847656 C 284.882812 51.847656 284.890625 51.847656 284.898438 51.847656 C 284.902344 51.847656 284.90625 51.847656 284.914062 51.847656 C 284.917969 51.847656 284.925781 51.84375 284.933594 51.84375 C 284.9375 51.84375 284.945312 51.84375 284.949219 51.84375 C 284.957031 51.84375 284.964844 51.84375 284.96875 51.84375 C 284.976562 51.84375 284.980469 51.84375 284.984375 51.84375 C 284.992188 51.84375 285 51.84375 285.007812 51.84375 C 285.011719 51.84375 285.015625 51.84375 285.019531 51.839844 C 285.027344 51.839844 285.035156 51.839844 285.042969 51.839844 C 285.050781 51.839844 285.054688 51.839844 285.058594 51.839844 C 285.066406 51.839844 285.078125 51.835938 285.089844 51.835938 C 285.09375 51.835938 285.09375 51.835938 285.09375 51.835938 C 285.105469 51.835938 285.117188 51.832031 285.128906 51.832031 C 285.132812 51.832031 285.136719 51.832031 285.140625 51.832031 C 285.148438 51.828125 285.15625 51.828125 285.164062 51.828125 C 285.167969 51.828125 285.171875 51.824219 285.179688 51.824219 C 285.183594 51.824219 285.191406 51.824219 285.199219 51.824219 C 285.203125 51.820312 285.210938 51.820312 285.214844 51.820312 C 285.222656 51.820312 285.230469 51.816406 285.234375 51.816406 C 285.242188 51.816406 285.246094 51.816406 285.25 51.8125 C 285.257812 51.8125 285.265625 51.8125 285.273438 51.808594 C 285.277344 51.808594 285.28125 51.808594 285.285156 51.808594 C 285.292969 51.804688 285.300781 51.804688 285.308594 51.804688 C 285.3125 51.800781 285.316406 51.800781 285.320312 51.800781 C 285.328125 51.800781 285.335938 51.796875 285.34375 51.796875 C 285.347656 51.792969 285.351562 51.792969 285.355469 51.792969 C 285.367188 51.789062 285.375 51.789062 285.382812 51.785156 C 285.386719 51.785156 285.390625 51.785156 285.394531 51.785156 C 285.40625 51.78125 285.417969 51.777344 285.429688 51.773438 C 285.429688 51.773438 285.433594 51.773438 285.4375 51.773438 C 285.445312 51.769531 285.453125 51.769531 285.460938 51.765625 C 285.46875 51.765625 285.472656 51.761719 285.476562 51.761719 C 285.484375 51.761719 285.492188 51.757812 285.496094 51.753906 C 285.503906 51.753906 285.507812 51.753906 285.511719 51.75 C 285.519531 51.75 285.527344 51.746094 285.53125 51.746094 C 285.539062 51.742188 285.542969 51.742188 285.546875 51.738281 C 285.554688 51.738281 285.5625 51.734375 285.566406 51.734375 C 285.570312 51.730469 285.578125 51.730469 285.582031 51.726562 C 285.589844 51.726562 285.59375 51.722656 285.601562 51.722656 C 285.605469 51.71875 285.613281 51.71875 285.617188 51.714844 C 285.625 51.714844 285.628906 51.710938 285.636719 51.707031 C 285.640625 51.707031 285.644531 51.703125 285.652344 51.703125 C 285.660156 51.699219 285.667969 51.695312 285.671875 51.695312 C 285.675781 51.691406 285.679688 51.691406 285.683594 51.691406 C 285.695312 51.683594 285.707031 51.679688 285.71875 51.675781 C 285.730469 51.671875 285.742188 51.664062 285.753906 51.660156 C 285.757812 51.660156 285.761719 51.65625 285.761719 51.65625 C 285.769531 51.652344 285.777344 51.648438 285.785156 51.644531 C 285.789062 51.644531 285.792969 51.640625 285.800781 51.640625 C 285.804688 51.636719 285.8125 51.632812 285.820312 51.628906 C 285.824219 51.628906 285.828125 51.625 285.832031 51.621094 C 285.839844 51.621094 285.847656 51.617188 285.851562 51.613281 C 285.855469 51.609375 285.863281 51.609375 285.867188 51.605469 C 285.871094 51.601562 285.878906 51.597656 285.886719 51.59375 C 285.890625 51.59375 285.894531 51.589844 285.898438 51.585938 C 285.90625 51.585938 285.914062 51.582031 285.917969 51.578125 C 285.921875 51.574219 285.925781 51.570312 285.933594 51.570312 C 285.9375 51.566406 285.945312 51.5625 285.953125 51.558594 C 285.957031 51.554688 285.960938 51.554688 285.964844 51.550781 C 285.972656 51.546875 285.980469 51.542969 285.988281 51.535156 C 285.992188 51.535156 285.992188 51.53125 285.996094 51.53125 C 286.007812 51.523438 286.019531 51.519531 286.027344 51.511719 C 286.03125 51.511719 286.035156 51.507812 286.035156 51.507812 C 286.042969 51.5 286.050781 51.496094 286.058594 51.492188 C 286.0625 51.488281 286.066406 51.484375 286.070312 51.484375 C 286.078125 51.480469 286.085938 51.472656 286.089844 51.46875 C 286.09375 51.46875 286.097656 51.464844 286.105469 51.460938 C 286.109375 51.457031 286.117188 51.453125 286.121094 51.449219 C 286.125 51.445312 286.128906 51.441406 286.136719 51.4375 C 286.140625 51.433594 286.148438 51.429688 286.152344 51.425781 C 286.15625 51.421875 286.160156 51.417969 286.164062 51.414062 C 286.171875 51.410156 286.179688 51.40625 286.183594 51.402344 C 286.1875 51.398438 286.191406 51.394531 286.195312 51.390625 C 286.203125 51.386719 286.207031 51.382812 286.214844 51.378906 C 286.21875 51.375 286.222656 51.371094 286.226562 51.367188 C 286.234375 51.363281 286.238281 51.355469 286.246094 51.351562 C 286.25 51.347656 286.253906 51.347656 286.257812 51.34375 C 286.265625 51.335938 286.277344 51.328125 286.285156 51.320312 C 286.347656 51.261719 286.410156 51.203125 286.464844 51.140625 C 286.480469 51.125 286.496094 51.105469 286.511719 51.085938 C 286.527344 51.070312 286.542969 51.050781 286.558594 51.03125 C 286.566406 51.019531 286.578125 51.007812 286.585938 50.992188 C 286.632812 50.933594 286.675781 50.867188 286.714844 50.800781 C 286.726562 50.78125 286.738281 50.761719 286.75 50.742188 C 286.761719 50.722656 286.769531 50.703125 286.78125 50.679688 C 286.792969 50.660156 286.800781 50.640625 286.8125 50.621094 C 286.820312 50.597656 286.832031 50.578125 286.839844 50.558594 C 286.863281 50.503906 286.882812 50.449219 286.898438 50.398438 C 286.90625 50.375 286.914062 50.355469 286.921875 50.332031 C 286.925781 50.3125 286.933594 50.292969 286.9375 50.273438 C 286.972656 50.140625 286.996094 50.003906 287.007812 49.867188 C 287.007812 49.855469 287.007812 49.84375 287.007812 49.832031 C 287.011719 49.808594 287.011719 49.789062 287.011719 49.765625 C 287.011719 49.765625 287.011719 49.761719 287.011719 49.761719 C 287.011719 49.707031 287.011719 49.652344 287.007812 49.597656 C 287.007812 49.597656 287.007812 49.59375 287.007812 49.589844 Z M 277.894531 48.449219 L 277.941406 48.410156 C 278.085938 48.28125 278.269531 48.21875 278.453125 48.21875 C 278.667969 48.21875 278.882812 48.308594 279.035156 48.480469 L 279.425781 48.925781 L 278.210938 49.992188 L 277.820312 49.546875 C 277.539062 49.222656 277.574219 48.730469 277.894531 48.449219 Z M 278.96875 50.167969 L 283.914062 55.730469 L 283.53125 56.0625 L 278.625 50.464844 Z M 284.097656 56.402344 L 285.007812 55.609375 L 285.316406 56.878906 Z M 284.386719 55.3125 L 279.441406 49.75 L 279.839844 49.398438 L 284.746094 55 Z M 284.386719 55.3125 " fill-opacity="1" fill-rule="nonzero"/></g><g clip-path="url(#e422a80a08)"><path fill="#e99643" d="M 292.03125 41.398438 L 289.636719 40.855469 L 288.992188 39.300781 L 290.300781 37.222656 C 290.402344 37.0625 290.378906 36.855469 290.246094 36.722656 L 288.46875 34.945312 C 288.335938 34.808594 288.128906 34.789062 287.96875 34.886719 L 285.890625 36.199219 L 284.332031 35.554688 L 283.792969 33.160156 C 283.75 32.972656 283.585938 32.84375 283.398438 32.84375 L 280.886719 32.84375 C 280.695312 32.84375 280.53125 32.972656 280.492188 33.160156 L 279.949219 35.554688 L 278.390625 36.199219 L 276.316406 34.886719 C 276.15625 34.789062 275.949219 34.808594 275.8125 34.945312 L 274.035156 36.722656 C 273.902344 36.855469 273.878906 37.0625 273.980469 37.222656 L 275.292969 39.300781 L 274.648438 40.855469 L 272.25 41.398438 C 272.066406 41.441406 271.9375 41.601562 271.9375 41.792969 L 271.9375 44.304688 C 271.9375 44.496094 272.066406 44.65625 272.25 44.699219 L 274.648438 45.242188 L 275.292969 46.796875 L 273.980469 48.875 C 273.878906 49.035156 273.902344 49.242188 274.035156 49.375 L 275.8125 51.152344 C 275.945312 51.289062 276.15625 51.308594 276.316406 51.210938 L 277.0625 50.738281 C 277.253906 50.617188 277.308594 50.367188 277.191406 50.179688 C 277.070312 49.992188 276.820312 49.933594 276.632812 50.054688 L 276.15625 50.355469 L 274.835938 49.035156 L 276.085938 47.050781 C 276.15625 46.941406 276.167969 46.804688 276.121094 46.683594 L 275.3125 44.738281 C 275.261719 44.617188 275.15625 44.527344 275.03125 44.5 L 272.746094 43.980469 L 272.746094 42.117188 L 275.03125 41.597656 C 275.15625 41.570312 275.265625 41.480469 275.3125 41.359375 L 276.121094 39.414062 C 276.167969 39.292969 276.15625 39.15625 276.085938 39.046875 L 274.835938 37.0625 L 276.15625 35.742188 L 278.136719 36.996094 C 278.25 37.066406 278.386719 37.078125 278.507812 37.027344 L 280.453125 36.222656 C 280.574219 36.171875 280.664062 36.066406 280.691406 35.9375 L 281.207031 33.652344 L 283.074219 33.652344 L 283.589844 35.9375 C 283.621094 36.066406 283.710938 36.171875 283.832031 36.222656 L 285.773438 37.027344 C 285.894531 37.078125 286.035156 37.066406 286.144531 36.996094 L 288.125 35.742188 L 289.445312 37.0625 L 288.195312 39.046875 C 288.125 39.15625 288.113281 39.292969 288.164062 39.414062 L 288.96875 41.359375 C 289.019531 41.480469 289.125 41.570312 289.253906 41.597656 L 291.539062 42.117188 L 291.539062 43.980469 L 289.253906 44.5 C 289.125 44.527344 289.019531 44.617188 288.96875 44.738281 L 288.164062 46.683594 C 288.113281 46.804688 288.125 46.941406 288.195312 47.050781 L 289.445312 49.035156 L 288.125 50.355469 L 287.855469 50.183594 C 287.667969 50.0625 287.417969 50.121094 287.300781 50.308594 C 287.179688 50.496094 287.234375 50.746094 287.425781 50.867188 L 287.96875 51.210938 C 288.035156 51.25 288.109375 51.273438 288.183594 51.273438 C 288.289062 51.273438 288.390625 51.230469 288.46875 51.152344 L 290.246094 49.375 C 290.378906 49.242188 290.402344 49.035156 290.300781 48.875 L 288.992188 46.796875 L 289.636719 45.242188 L 292.03125 44.699219 C 292.214844 44.65625 292.347656 44.496094 292.347656 44.304688 L 292.347656 41.792969 C 292.347656 41.601562 292.214844 41.441406 292.03125 41.398438 Z M 292.03125 41.398438 " fill-opacity="1" fill-rule="nonzero"/></g><path fill="#e99643" d="M 280.359375 47.269531 C 280.921875 47.511719 281.523438 47.632812 282.140625 47.632812 C 282.761719 47.632812 283.359375 47.511719 283.925781 47.269531 C 284.472656 47.039062 284.960938 46.710938 285.382812 46.289062 C 285.800781 45.867188 286.132812 45.378906 286.363281 44.832031 C 286.601562 44.265625 286.722656 43.667969 286.722656 43.046875 C 286.722656 42.429688 286.601562 41.832031 286.363281 41.265625 C 286.132812 40.71875 285.800781 40.230469 285.382812 39.808594 C 284.960938 39.386719 284.472656 39.058594 283.925781 38.828125 C 283.359375 38.585938 282.761719 38.464844 282.140625 38.464844 C 281.523438 38.464844 280.921875 38.585938 280.359375 38.828125 C 279.8125 39.058594 279.320312 39.386719 278.902344 39.808594 C 278.480469 40.230469 278.148438 40.71875 277.917969 41.265625 C 277.679688 41.832031 277.558594 42.429688 277.558594 43.046875 C 277.558594 43.667969 277.679688 44.265625 277.917969 44.832031 C 278.148438 45.378906 278.480469 45.867188 278.902344 46.289062 C 279.320312 46.710938 279.8125 47.039062 280.359375 47.269531 Z M 279.472656 40.378906 C 280.1875 39.667969 281.132812 39.273438 282.140625 39.273438 C 283.148438 39.273438 284.097656 39.667969 284.808594 40.378906 C 285.523438 41.09375 285.914062 42.039062 285.914062 43.046875 C 285.914062 44.058594 285.523438 45.003906 284.808594 45.71875 C 284.097656 46.429688 283.148438 46.824219 282.140625 46.824219 C 281.132812 46.824219 280.1875 46.429688 279.472656 45.71875 C 278.761719 45.003906 278.367188 44.058594 278.367188 43.046875 C 278.367188 42.039062 278.761719 41.09375 279.472656 40.378906 Z M 279.472656 40.378906 " fill-opacity="1" fill-rule="nonzero"/><g clip-path="url(#4501886425)"><path fill="#e99643" d="M 70.039062 111.976562 C 67.925781 111.980469 66.066406 111.785156 64.242188 111.269531 C 63.632812 111.097656 63.425781 110.878906 63.347656 110.261719 C 62.992188 107.527344 62.621094 104.792969 62.292969 102.050781 C 62 99.585938 61.753906 97.113281 61.480469 94.644531 C 61.316406 93.164062 61.148438 91.675781 60.992188 90.195312 C 60.960938 89.921875 60.820312 89.792969 60.5625 89.753906 C 60.480469 89.742188 60.394531 89.71875 60.316406 89.699219 C 59.820312 89.546875 59.597656 89.289062 59.589844 88.777344 C 59.578125 88.417969 59.601562 88.058594 59.648438 87.699219 C 59.714844 87.304688 59.921875 87.007812 60.328125 86.96875 C 60.945312 86.90625 61.144531 86.535156 61.210938 85.992188 C 61.253906 85.617188 61.34375 85.246094 61.421875 84.882812 C 61.515625 84.449219 61.769531 84.183594 62.222656 84.109375 C 64.582031 83.703125 66.953125 83.488281 69.347656 83.398438 C 71.832031 83.3125 74.292969 83.578125 76.765625 83.6875 C 77.03125 83.703125 77.289062 83.757812 77.542969 83.84375 C 77.957031 83.972656 78.210938 84.25 78.320312 84.664062 C 78.429688 85.089844 78.507812 85.515625 78.554688 85.949219 C 78.648438 86.664062 78.761719 86.785156 79.460938 86.933594 C 79.75 86.996094 79.902344 87.183594 79.953125 87.453125 C 80.027344 87.832031 80.054688 88.226562 80.03125 88.609375 C 80.015625 88.957031 79.835938 89.273438 79.542969 89.464844 C 79.199219 89.699219 79.0625 90.011719 79.015625 90.410156 C 78.757812 92.617188 78.488281 94.820312 78.214844 97.023438 C 77.933594 99.296875 77.625 101.574219 77.335938 103.847656 C 77.0625 105.976562 76.78125 108.105469 76.527344 110.234375 C 76.464844 110.769531 76.207031 111.058594 75.703125 111.21875 C 73.785156 111.824219 71.804688 111.898438 70.039062 111.976562 Z M 69.367188 95.5 C 69.421875 95.5 69.480469 95.5 69.539062 95.5 C 71.996094 95.453125 74.441406 95.210938 76.890625 94.972656 C 77.871094 94.875 77.71875 95.015625 77.859375 94.035156 C 78.039062 92.777344 78.246094 91.519531 78.367188 90.246094 C 78.402344 89.855469 78.410156 89.855469 78.019531 89.925781 C 76.84375 90.132812 75.664062 90.289062 74.480469 90.410156 C 72.058594 90.664062 69.632812 90.761719 67.203125 90.632812 C 65.449219 90.542969 63.699219 90.347656 61.96875 90.039062 C 61.75 89.996094 61.660156 90.019531 61.691406 90.28125 C 61.84375 91.546875 61.980469 92.816406 62.117188 94.082031 C 62.152344 94.394531 62.304688 94.609375 62.613281 94.695312 C 63.007812 94.800781 63.394531 94.914062 63.792969 95.003906 C 65.625 95.421875 67.492188 95.523438 69.367188 95.5 Z M 69.667969 111.332031 C 71.433594 111.320312 73.191406 111.144531 74.925781 110.800781 C 75.699219 110.648438 75.902344 110.449219 76.015625 109.679688 C 76.253906 108.0625 76.449219 106.4375 76.628906 104.816406 C 76.65625 104.589844 76.566406 104.589844 76.394531 104.625 C 74.582031 105.007812 72.757812 105.304688 70.898438 105.417969 C 68.382812 105.574219 65.894531 105.375 63.46875 104.648438 C 63.164062 104.554688 63.144531 104.574219 63.191406 104.894531 C 63.433594 106.570312 63.679688 108.242188 63.929688 109.914062 C 63.992188 110.347656 64.285156 110.621094 64.667969 110.71875 C 66.363281 111.140625 68.085938 111.347656 69.667969 111.332031 Z M 78.730469 87.519531 C 78.699219 87.457031 78.644531 87.414062 78.574219 87.40625 C 78.171875 87.304688 78.023438 87.011719 77.976562 86.632812 C 77.953125 86.398438 77.90625 86.164062 77.894531 85.925781 C 77.882812 85.71875 77.808594 85.652344 77.59375 85.691406 C 77.214844 85.765625 76.828125 85.800781 76.441406 85.855469 C 73.792969 86.269531 71.132812 86.476562 68.453125 86.363281 C 66.40625 86.269531 64.363281 86.046875 62.34375 85.699219 C 61.953125 85.632812 61.929688 85.65625 61.859375 86.039062 C 61.757812 86.59375 61.785156 87.207031 61.152344 87.558594 C 61.613281 87.777344 62.058594 87.871094 62.5 87.960938 C 64.15625 88.28125 65.832031 88.398438 67.511719 88.445312 C 70.652344 88.542969 73.789062 88.515625 76.902344 88.023438 C 77.53125 87.933594 78.148438 87.804688 78.730469 87.519531 Z M 70.074219 103.453125 C 70.132812 103.382812 70.175781 103.332031 70.210938 103.28125 C 70.621094 102.660156 71.089844 102.070312 71.609375 101.539062 C 72.097656 101.027344 72.671875 100.609375 73.15625 100.085938 C 73.660156 99.546875 73.789062 98.933594 73.5 98.257812 C 73.203125 97.554688 72.640625 97.179688 71.878906 97.113281 C 71.195312 97.054688 70.671875 97.359375 70.226562 97.828125 C 70.070312 97.992188 69.964844 97.980469 69.796875 97.863281 C 69.472656 97.640625 69.148438 97.40625 68.78125 97.246094 C 68.160156 96.984375 67.566406 97.019531 67.019531 97.433594 C 66.472656 97.847656 66.359375 98.40625 66.453125 99.050781 C 66.570312 99.796875 67.007812 100.320312 67.582031 100.75 C 68.574219 101.484375 69.515625 102.273438 70.074219 103.453125 Z M 77.683594 84.84375 C 77.410156 84.648438 77.171875 84.511719 76.875 84.484375 C 76.460938 84.449219 76.050781 84.382812 75.636719 84.347656 C 73.082031 84.128906 70.523438 84.027344 67.964844 84.097656 C 66.449219 84.136719 64.941406 84.230469 63.453125 84.472656 C 63.019531 84.542969 62.597656 84.660156 62.207031 84.890625 C 62.269531 85 62.363281 84.996094 62.441406 85.015625 C 63.023438 85.175781 63.617188 85.292969 64.21875 85.363281 C 68.117188 85.839844 72.019531 85.867188 75.914062 85.304688 C 76.523438 85.226562 77.117188 85.066406 77.683594 84.84375 Z M 69.324219 90.039062 C 70.070312 90.042969 70.816406 90.023438 71.5625 89.988281 C 74.003906 89.878906 76.4375 89.585938 78.84375 89.125 C 78.972656 89.105469 79.097656 89.054688 79.207031 88.980469 C 79.433594 88.800781 79.40625 88.550781 79.339844 88.324219 C 79.273438 88.09375 79.074219 88.25 78.957031 88.273438 C 76.605469 88.707031 74.238281 89.007812 71.847656 89.132812 C 69.214844 89.273438 66.574219 89.179688 63.957031 88.851562 C 62.816406 88.707031 61.683594 88.5 60.554688 88.269531 C 60.367188 88.230469 60.308594 88.265625 60.277344 88.453125 C 60.207031 88.894531 60.273438 88.992188 60.785156 89.109375 C 63.59375 89.75 66.4375 90.085938 69.324219 90.039062 Z M 69.324219 90.039062 " fill-opacity="1" fill-rule="nonzero"/></g><g clip-path="url(#14f9d795a9)"><path fill="#e99643" d="M 64.976562 80.128906 C 64.960938 79.644531 65.230469 79.351562 65.589844 79.132812 C 65.832031 78.984375 66.097656 78.875 66.339844 78.734375 C 66.792969 78.460938 66.957031 78.0625 66.828125 77.546875 C 66.675781 76.945312 66.359375 76.417969 66.03125 75.894531 C 65.628906 75.277344 65.792969 74.453125 66.402344 74.039062 C 66.464844 73.992188 66.53125 73.953125 66.597656 73.921875 C 66.722656 73.871094 66.871094 73.835938 66.964844 73.945312 C 67.082031 74.074219 66.957031 74.191406 66.882812 74.292969 C 66.8125 74.382812 66.738281 74.464844 66.65625 74.546875 C 66.277344 74.957031 66.246094 75.175781 66.550781 75.652344 C 66.796875 76.035156 67.023438 76.421875 67.183594 76.851562 C 67.226562 76.964844 67.273438 77.082031 67.308594 77.195312 C 67.625 78.199219 67.304688 78.929688 66.359375 79.386719 C 66.195312 79.464844 66.027344 79.535156 65.878906 79.625 C 65.523438 79.835938 65.453125 80.097656 65.652344 80.464844 C 65.777344 80.6875 65.941406 80.878906 66.105469 81.074219 C 66.347656 81.367188 66.582031 81.664062 66.839844 81.941406 C 66.984375 82.097656 66.925781 82.164062 66.761719 82.242188 C 66.601562 82.316406 66.425781 82.355469 66.300781 82.1875 C 65.957031 81.714844 65.476562 81.355469 65.199219 80.828125 C 65.078125 80.605469 64.964844 80.375 64.976562 80.128906 Z M 64.976562 80.128906 " fill-opacity="1" fill-rule="nonzero"/></g><path fill="#e99643" d="M 70.097656 77.398438 C 70.0625 77.746094 69.835938 78.054688 69.554688 78.328125 C 69.414062 78.464844 69.246094 78.582031 69.109375 78.722656 C 68.757812 79.074219 68.738281 79.351562 69.050781 79.738281 C 69.191406 79.917969 69.316406 80.105469 69.421875 80.308594 C 69.839844 81.105469 69.464844 81.84375 68.890625 82.347656 C 68.710938 82.496094 68.625 82.28125 68.511719 82.21875 C 68.375 82.144531 68.449219 82.050781 68.511719 81.960938 C 68.625 81.804688 68.746094 81.644531 68.847656 81.472656 C 69.140625 80.988281 69.113281 80.707031 68.753906 80.265625 C 68.671875 80.171875 68.59375 80.078125 68.519531 79.976562 C 68.136719 79.449219 68.171875 78.875 68.625 78.414062 C 68.863281 78.171875 69.121094 77.953125 69.355469 77.707031 C 69.613281 77.4375 69.585938 77.257812 69.285156 77.03125 C 69.203125 76.96875 69.109375 76.917969 69.042969 76.84375 C 68.976562 76.769531 68.878906 76.667969 68.941406 76.542969 C 69 76.433594 69.113281 76.40625 69.234375 76.402344 C 69.679688 76.382812 70.109375 76.847656 70.097656 77.398438 Z M 70.097656 77.398438 " fill-opacity="1" fill-rule="nonzero"/><g clip-path="url(#6c6d2f62a8)"><path fill="#e99643" d="M 94.132812 61.9375 C 95.292969 61.132812 96.695312 60.535156 98.289062 60.195312 C 96.179688 59.988281 93.945312 60.554688 92.261719 61.421875 C 88.839844 63.179688 86.648438 66.679688 85.792969 71.480469 C 85.304688 74.21875 86.082031 77.039062 86.765625 79.53125 C 87.144531 80.90625 87.453125 82.234375 87.515625 83.222656 C 87.574219 84.152344 87.304688 84.988281 87.039062 85.792969 C 86.78125 86.59375 86.535156 87.347656 86.582031 88.1875 C 86.695312 90.144531 87.902344 92.269531 89.601562 93.007812 C 90.304688 93.105469 91.015625 92.976562 91.742188 92.476562 C 92.890625 91.679688 93.0625 90.257812 92.921875 88.964844 C 92.613281 86.132812 90.371094 83.972656 89.296875 81.433594 C 88.523438 79.59375 88.214844 77.589844 88.097656 75.609375 C 87.96875 73.421875 87.875 71.203125 88.5625 69.089844 C 89.542969 66.0625 91.554688 63.726562 94.132812 61.9375 " fill-opacity="1" fill-rule="nonzero"/></g><path fill="#e99643" d="M 109.824219 83.042969 C 109.878906 81.03125 110.578125 79.125 111.023438 77.183594 C 111.492188 75.132812 111.484375 73.132812 111.003906 71.085938 C 110.160156 67.488281 107.976562 63.996094 104.199219 62.992188 C 102.488281 62.539062 100.644531 62.519531 98.898438 62.761719 C 98.449219 62.824219 97.992188 62.898438 97.535156 62.992188 C 98.15625 63.164062 98.945312 63.179688 99.304688 63.179688 C 101.4375 63.179688 107.800781 63.761719 108.410156 71.167969 C 108.726562 74.988281 108.296875 77.792969 107.765625 80.421875 C 107.703125 80.734375 107.574219 81.351562 107.574219 81.351562 L 108.234375 92.996094 C 108.234375 92.996094 108.914062 92.957031 109.246094 92.71875 C 109.699219 92.351562 110.1875 91.945312 110.472656 91.074219 C 110.628906 90.636719 110.75 90.1875 110.835938 89.722656 C 111.035156 88.671875 111.1875 87.378906 110.925781 86.324219 C 110.660156 85.238281 109.792969 84.183594 109.824219 83.042969 " fill-opacity="1" fill-rule="nonzero"/><g clip-path="url(#b46728d18c)"><path fill="#e99643" d="M 92.09375 80.789062 C 91.65625 80.871094 91.246094 81.027344 90.863281 81.246094 C 90.949219 81.449219 91.019531 82.199219 91.605469 83.117188 C 92.253906 84.140625 93.433594 85.398438 93.832031 86.945312 C 94.121094 88.0625 94.117188 89.421875 93.910156 90.570312 C 93.421875 93.292969 90.527344 93.652344 90.464844 93.644531 C 91.699219 94.972656 93.269531 95.660156 94.824219 95.367188 C 97.703125 94.832031 99.425781 91.128906 98.671875 87.101562 C 97.917969 83.078125 94.976562 80.25 92.09375 80.789062 " fill-opacity="1" fill-rule="nonzero"/></g><g clip-path="url(#bfd3579b4c)"><path fill="#e99643" d="M 107.574219 81.351562 C 107.460938 81.277344 107.347656 81.207031 107.226562 81.144531 C 106.855469 80.941406 106.453125 80.800781 106.023438 80.734375 C 103.175781 80.269531 100.339844 83.121094 99.691406 87.105469 C 99.042969 91.089844 100.828125 94.695312 103.675781 95.160156 C 105.15625 95.402344 106.632812 94.746094 107.800781 93.5 C 107.953125 93.34375 108.09375 93.175781 108.234375 92.996094 C 109.097656 91.890625 109.742188 90.433594 110.007812 88.785156 C 110.53125 85.585938 109.480469 82.632812 107.574219 81.351562 " fill-opacity="1" fill-rule="nonzero"/></g><g clip-path="url(#9f1ca0d4ad)"><path fill="#ffffff" d="M 111.515625 85.476562 C 111.449219 85.28125 111.378906 85.09375 111.3125 84.902344 C 111.0625 84.222656 110.828125 83.578125 110.855469 82.832031 C 110.894531 81.890625 111.164062 80.734375 111.480469 79.394531 C 112.050781 76.96875 112.765625 73.945312 112.1875 71.113281 C 111.363281 67.039062 109.625 64.015625 107.03125 62.136719 C 104.882812 60.578125 102.125 59.789062 98.835938 59.789062 C 96.347656 59.789062 94.136719 60.277344 92.253906 61.242188 C 88.714844 63.058594 86.476562 66.480469 85.59375 71.410156 C 85.089844 74.234375 85.914062 77.230469 86.574219 79.636719 C 86.949219 80.992188 87.269531 82.160156 87.328125 83.109375 C 87.382812 83.960938 87.136719 84.722656 86.871094 85.53125 C 86.613281 86.328125 86.34375 87.15625 86.394531 88.070312 C 86.519531 90.199219 87.621094 92.800781 89.746094 93.488281 C 89.972656 93.5625 90.21875 93.617188 90.464844 93.644531 C 90.601562 93.660156 90.742188 93.671875 90.875 93.671875 C 91.019531 93.671875 91.160156 93.660156 91.285156 93.636719 C 93.417969 93.277344 94.75 90.578125 94.246094 87.621094 C 94.019531 86.277344 93.441406 85.054688 92.621094 84.179688 C 91.917969 83.355469 91.332031 82.375 90.863281 81.246094 C 89.769531 78.613281 89.320312 75.191406 89.558594 71.140625 C 89.996094 63.699219 97.390625 63.324219 98.867188 63.324219 C 100.914062 63.324219 107.632812 63.875 108.21875 70.9375 C 108.5625 75.113281 108.230469 78.527344 107.226562 81.144531 C 107.347656 81.207031 107.460938 81.277344 107.574219 81.351562 C 108.617188 78.671875 108.96875 75.175781 108.617188 70.902344 C 108.003906 63.5 101 62.925781 98.867188 62.925781 C 98.507812 62.925781 98.050781 62.941406 97.535156 62.992188 C 96.167969 63.136719 94.375 63.539062 92.75 64.597656 C 90.535156 66.039062 89.328125 68.230469 89.160156 71.117188 C 88.8125 77.007812 89.90625 81.613281 92.316406 84.4375 L 92.328125 84.449219 C 93.097656 85.269531 93.640625 86.421875 93.855469 87.691406 C 94.316406 90.425781 93.136719 92.917969 91.21875 93.246094 C 90.847656 93.308594 90.308594 93.25 89.871094 93.109375 C 89.777344 93.082031 89.691406 93.046875 89.601562 93.007812 C 87.902344 92.269531 86.90625 90.003906 86.792969 88.046875 C 86.746094 87.207031 86.992188 86.453125 87.253906 85.65625 C 87.515625 84.847656 87.785156 84.011719 87.726562 83.085938 C 87.664062 82.09375 87.339844 80.90625 86.960938 79.53125 C 86.277344 77.039062 85.5 74.21875 85.988281 71.480469 C 86.84375 66.679688 89.015625 63.355469 92.4375 61.597656 C 94.121094 60.730469 96.089844 60.261719 98.289062 60.195312 C 98.46875 60.191406 98.652344 60.1875 98.835938 60.1875 C 105.953125 60.1875 110.316406 63.890625 111.796875 71.195312 C 112.355469 73.9375 111.683594 76.789062 111.09375 79.304688 C 110.773438 80.664062 110.496094 81.835938 110.457031 82.816406 C 110.425781 83.640625 110.671875 84.320312 110.933594 85.039062 C 111.003906 85.226562 111.070312 85.414062 111.136719 85.605469 C 111.183594 85.75 111.226562 85.898438 111.265625 86.042969 C 111.492188 86.898438 111.546875 87.773438 111.429688 88.578125 C 111.179688 90.300781 110.355469 91.734375 109.285156 92.496094 C 108.957031 92.730469 108.601562 92.902344 108.234375 92.996094 C 108.09375 93.175781 107.953125 93.34375 107.800781 93.5 C 109.734375 93.351562 111.441406 91.308594 111.828125 88.652344 C 111.953125 87.78125 111.894531 86.859375 111.652344 85.941406 C 111.613281 85.789062 111.566406 85.632812 111.515625 85.476562 " fill-opacity="1" fill-rule="nonzero"/></g><path fill="#ffffff" d="M 105.410156 87.972656 C 105.726562 86.359375 105.148438 84.84375 104.121094 84.589844 C 103.09375 84.335938 102.003906 85.4375 101.683594 87.050781 C 101.367188 88.667969 101.945312 90.179688 102.972656 90.4375 C 104 90.691406 105.09375 89.589844 105.410156 87.972656 " fill-opacity="1" fill-rule="nonzero"/><path fill="#ffffff" d="M 105.558594 81.144531 C 105.496094 81.105469 105.414062 81.117188 105.375 81.179688 C 105.332031 81.242188 105.347656 81.324219 105.40625 81.363281 C 107.207031 82.601562 108.097656 85.375 107.625 88.269531 C 107.109375 91.445312 105.058594 93.949219 102.75 94.230469 C 102.675781 94.238281 102.625 94.304688 102.632812 94.378906 C 102.640625 94.445312 102.699219 94.496094 102.765625 94.496094 C 102.773438 94.496094 102.777344 94.496094 102.78125 94.492188 C 105.207031 94.199219 107.355469 91.601562 107.890625 88.3125 C 108.378906 85.316406 107.441406 82.4375 105.558594 81.144531 " fill-opacity="1" fill-rule="nonzero"/><path fill="#ffffff" d="M 92.21875 81.414062 C 92.148438 81.394531 92.074219 81.4375 92.054688 81.507812 C 92.035156 81.578125 92.074219 81.652344 92.148438 81.671875 C 94.246094 82.265625 95.980469 84.605469 96.464844 87.5 C 96.992188 90.671875 95.855469 93.703125 93.757812 94.707031 C 93.691406 94.742188 93.664062 94.820312 93.695312 94.886719 C 93.71875 94.933594 93.765625 94.960938 93.816406 94.960938 C 93.832031 94.960938 93.851562 94.957031 93.871094 94.949219 C 96.074219 93.894531 97.273438 90.742188 96.726562 87.457031 C 96.226562 84.464844 94.417969 82.035156 92.21875 81.414062 " fill-opacity="1" fill-rule="nonzero"/><path fill="#fbfefe" d="M 104.417969 85.300781 C 103.550781 85.253906 102.703125 86.207031 102.445312 87.511719 C 102.246094 88.539062 102.453125 89.566406 102.976562 90.125 C 102.992188 90.140625 103.007812 90.148438 103.027344 90.148438 C 103.042969 90.148438 103.058594 90.140625 103.074219 90.128906 C 103.097656 90.105469 103.101562 90.0625 103.074219 90.035156 C 102.578125 89.503906 102.382812 88.523438 102.578125 87.535156 C 102.820312 86.296875 103.605469 85.390625 104.410156 85.433594 C 104.445312 85.4375 104.476562 85.40625 104.480469 85.371094 C 104.480469 85.332031 104.453125 85.300781 104.417969 85.300781 " fill-opacity="1" fill-rule="nonzero"/></svg>